<svg width="235" height="223" viewBox="0 0 235 223" fill="none" xmlns="http://www.w3.org/2000/svg">
<g clip-path="url(#clip0_508_1564)">
<path d="M184.097 174.554C184.551 174.722 185.041 174.764 185.516 174.677C185.992 174.59 186.435 174.377 186.8 174.059L191.076 170.329C191.613 169.86 191.942 169.196 191.991 168.485C192.04 167.773 191.804 167.071 191.335 166.532L160.25 130.89C159.781 130.353 159.117 130.024 158.406 129.975C157.694 129.926 156.992 130.162 156.453 130.631L152.177 134.36C151.64 134.83 151.311 135.493 151.262 136.205C151.214 136.917 151.449 137.619 151.918 138.157L183.002 173.8C183.298 174.139 183.675 174.399 184.097 174.554Z" fill="#FF6519"/>
<path d="M141.375 135.333C141.654 135.333 141.932 135.289 142.199 135.203C142.536 135.097 142.848 134.925 143.118 134.696C143.388 134.468 143.61 134.189 143.772 133.874L146.372 128.831C146.698 128.197 146.76 127.458 146.542 126.779C146.325 126.099 145.847 125.533 145.213 125.206L103.178 103.534C102.543 103.207 101.805 103.146 101.126 103.363C100.446 103.581 99.8804 104.059 99.5528 104.692L96.9526 109.736C96.6262 110.37 96.565 111.108 96.7822 111.788C96.9994 112.467 97.4774 113.033 98.1113 113.361L140.147 135.033C140.526 135.23 140.947 135.333 141.375 135.333Z" fill="#FF6519"/>
<path d="M142.133 136.553C142.633 136.553 143.123 136.414 143.549 136.152C143.974 135.889 144.319 135.514 144.543 135.067L147.089 129.996C147.377 129.424 147.451 128.768 147.298 128.147C147.281 128.078 147.261 128.009 147.239 127.941C147.187 127.786 147.131 127.545 147.066 127.265C146.86 126.373 146.603 125.263 146.08 125L127.61 113.805C126.974 113.481 126.236 113.423 125.558 113.643C124.879 113.864 124.316 114.344 123.992 114.98L123.984 114.995L119.325 124.599C119.006 125.237 118.954 125.975 119.178 126.652C119.403 127.328 119.887 127.888 120.524 128.209L140.946 136.272C141.314 136.457 141.721 136.553 142.133 136.553Z" fill="#2F2E41"/>
<path d="M149.8 111.664C161.164 111.664 170.376 102.452 170.376 91.0884C170.376 79.7248 161.164 70.5127 149.8 70.5127C138.437 70.5127 129.225 79.7248 129.225 91.0884C129.225 102.452 138.437 111.664 149.8 111.664Z" fill="#FF6519"/>
<path d="M153.81 221.743H159.485C160.198 221.743 160.882 221.459 161.387 220.954C161.891 220.45 162.175 219.766 162.176 219.052V170.99C162.175 170.277 161.891 169.592 161.387 169.088C160.882 168.583 160.198 168.3 159.485 168.299H153.81C153.097 168.3 152.413 168.583 151.908 169.088C151.404 169.592 151.12 170.277 151.119 170.99V219.052C151.12 219.766 151.404 220.45 151.908 220.954C152.413 221.459 153.097 221.743 153.81 221.743Z" fill="#FF6519"/>
<path d="M129.361 199.374C129.79 199.375 130.212 199.274 130.594 199.078C130.975 198.882 131.304 198.598 131.554 198.25L159.061 159.778C159.475 159.198 159.642 158.476 159.525 157.772C159.408 157.068 159.017 156.44 158.437 156.024L153.821 152.724C153.24 152.309 152.519 152.142 151.815 152.259C151.111 152.376 150.482 152.767 150.067 153.348L122.559 191.818C122.145 192.399 121.978 193.121 122.095 193.825C122.212 194.528 122.603 195.157 123.183 195.573L127.799 198.873C128.255 199.2 128.801 199.375 129.361 199.374Z" fill="#6C63FF"/>
<path d="M136.658 221.03C137.224 221.02 137.78 220.881 138.284 220.623L143.364 218.094C144.692 217.432 145.424 216.194 144.995 215.333L131.903 189.036C131.475 188.175 130.045 188.013 128.717 188.674L123.637 191.203C123.045 191.484 122.541 191.922 122.181 192.469C122.024 192.681 121.926 192.931 121.895 193.193C121.864 193.455 121.902 193.721 122.005 193.964L135.097 220.261C135.348 220.765 135.942 221.03 136.658 221.03Z" fill="#FF6519"/>
<path d="M161.354 151.258C161.834 151.433 162.353 151.469 162.852 151.361C163.351 151.253 163.809 151.006 164.173 150.648L171.871 143.262C172.123 143.014 172.324 142.719 172.461 142.394C172.599 142.068 172.672 141.719 172.675 141.366C172.678 141.012 172.611 140.662 172.478 140.334C172.346 140.007 172.15 139.708 171.902 139.456L171.9 139.454L155.538 125.309C155.139 124.902 154.003 125 153.091 125.078C152.805 125.103 152.558 125.124 152.394 125.123C152.323 125.122 152.251 125.125 152.181 125.13C151.542 125.176 150.941 125.448 150.486 125.898L146.445 129.881C145.938 130.383 145.65 131.065 145.645 131.779C145.64 132.492 145.918 133.179 146.418 133.687L160.356 150.609C160.636 150.897 160.978 151.118 161.354 151.258Z" fill="#2F2E41"/>
<path d="M139.906 98.7145L139.928 97.9456C138.497 97.9058 137.236 97.8161 136.288 97.1238C136.02 96.9163 135.799 96.6535 135.641 96.353C135.483 96.0526 135.391 95.7217 135.373 95.3828C135.356 95.1757 135.387 94.9676 135.464 94.7746C135.541 94.5816 135.662 94.4089 135.816 94.27C136.445 93.7387 137.457 93.9107 138.195 94.249L138.831 94.5407L137.611 85.625L136.849 85.7294L137.887 93.3134C136.885 93.0186 135.956 93.1455 135.32 93.6828C135.075 93.8961 134.884 94.1629 134.76 94.4625C134.636 94.7621 134.582 95.0863 134.604 95.4098C134.627 95.8652 134.749 96.3101 134.961 96.7135C135.174 97.1168 135.472 97.4688 135.835 97.7447C137.052 98.6345 138.635 98.6789 139.906 98.7145Z" fill="#2F2E41"/>
<path d="M133.081 86.3828H128.939V87.1517H133.081V86.3828Z" fill="#2F2E41"/>
<path d="M146.153 86.3828H142.012V87.1517H146.153V86.3828Z" fill="#2F2E41"/>
<path d="M121.348 192.761L143.793 128.069C143.069 127.09 142.583 125.317 142.582 123.286V121.565C142.584 118.478 143.701 115.976 145.081 115.973H153.539C154.918 115.976 156.036 118.478 156.038 121.565V123.286C156.037 125.523 155.448 127.448 154.599 128.342L165.994 171.442C166.215 171.821 166.332 172.253 166.332 172.692C166.333 173.131 166.218 173.563 165.998 173.943C165.779 174.324 165.462 174.64 165.082 174.858C164.701 175.077 164.269 175.192 163.83 175.19L123.513 196.509C123.074 196.509 122.643 196.394 122.263 196.174C121.883 195.955 121.568 195.639 121.348 195.26C121.129 194.88 121.014 194.449 121.014 194.01C121.014 193.571 121.129 193.141 121.348 192.761Z" fill="#2F2E41"/>
<path d="M80.1934 112.309C76.2802 110.123 73.3846 106.485 72.1326 102.181C64.2154 105.254 55.6725 106.369 47.2318 105.428C38.7911 104.488 30.7028 101.521 23.6563 96.7803C-0.448356 80.5642 -6.86607 47.761 9.35 23.6562C25.5661 -0.448668 58.3696 -6.8658 82.474 9.34987C106.518 25.5255 112.964 58.2061 96.9011 82.2936C98.8956 83.398 100.652 84.8866 102.068 86.6733C103.484 88.46 104.532 90.5096 105.151 92.7036C105.76 94.8756 105.935 97.1462 105.666 99.3857C105.397 101.625 104.689 103.79 103.584 105.756C102.478 107.722 100.996 109.451 99.2222 110.845C97.4484 112.238 95.4176 113.268 93.2456 113.877C91.0744 114.491 88.8029 114.669 86.5626 114.4C84.3222 114.131 82.1574 113.42 80.1934 112.309Z" fill="white"/>
<path d="M82.1096 107.942C79.3739 106.229 77.3899 103.542 76.5581 100.423C76.3964 99.8459 76.1154 99.3091 75.7333 98.8472C75.3512 98.3853 74.8764 98.0087 74.3397 97.7417C73.803 97.4747 73.2162 97.3233 72.6173 97.2971C72.0184 97.271 71.4207 97.3708 70.8628 97.59L70.6015 97.6928C59.9293 101.887 48.1075 102.117 37.28 98.3422C26.4525 94.5675 17.3362 87.0375 11.5843 77.1179C5.83237 67.1982 3.82575 55.5457 5.92829 44.2735C8.03083 33.0012 14.1033 22.8557 23.0445 15.6766C31.9858 8.4976 43.2036 4.76045 54.6639 5.14291C66.1242 5.52536 77.0679 10.0021 85.5106 17.7613C93.9533 25.5204 99.3359 36.0483 100.682 47.4356C102.029 58.823 99.2495 70.3157 92.8491 79.8298L92.6933 80.0616C92.3586 80.5591 92.132 81.1213 92.028 81.7119C91.9241 82.3025 91.9452 82.9084 92.09 83.4903C92.2348 84.0722 92.5 84.6173 92.8685 85.0904C93.2371 85.5634 93.7008 85.9539 94.2296 86.2366C95.7558 87.0355 97.1055 88.1334 98.1983 89.465C99.2911 90.7966 100.105 92.3346 100.59 93.9873C101.095 95.7919 101.186 97.6873 100.856 99.5319C100.526 101.377 99.784 103.123 98.6846 104.64C97.2726 106.608 95.3083 108.113 93.0404 108.963C91.621 109.501 90.116 109.777 88.5981 109.779C86.3072 109.777 84.0615 109.142 82.1096 107.942Z" fill="#F0F0F0"/>
<path d="M79.9999 112.653C79.4009 112.317 78.8217 111.946 78.2652 111.542C72.2827 107.202 65.2242 105.192 58.3912 105.88C46.0737 107.112 33.7122 104.01 23.4361 97.1081C-0.84911 80.7705 -7.31503 47.7213 9.0225 23.4361C25.3599 -0.849017 58.409 -7.31513 82.6945 9.02258C92.7539 15.8087 100.19 25.8313 103.767 37.4262C107.345 49.0212 106.849 61.491 102.362 72.7653C101.355 75.2446 100.94 77.9246 101.15 80.5923C101.36 83.26 102.19 85.842 103.572 88.133C104.992 90.4386 105.86 93.0413 106.108 95.7377C106.355 98.4341 105.976 101.151 105 103.677C104.023 106.202 102.476 108.468 100.479 110.297C98.4822 112.126 96.0894 113.468 93.4878 114.219C91.8947 114.68 90.2446 114.915 88.586 114.916C85.5774 114.91 82.6209 114.131 79.9999 112.653ZM10.0052 24.0973C3.82798 33.2795 0.747733 44.1959 1.21417 55.2527C1.6806 66.3095 5.6693 76.9277 12.5979 85.5571C19.5265 94.1864 29.0322 100.375 39.7271 103.219C50.422 106.063 61.7461 105.414 72.046 101.367L72.6562 101.127L72.8329 101.758C74.0054 105.943 76.7923 109.491 80.5805 111.621C84.3687 113.751 88.8479 114.289 93.0328 113.117C97.2177 111.944 100.765 109.157 102.896 105.369C105.026 101.581 105.564 97.1017 104.391 92.9168C103.791 90.79 102.768 88.8058 101.384 87.0825C100.001 85.3592 98.2843 83.9321 96.3374 82.8862L95.7597 82.5774L96.1253 82.0334C103.803 70.6131 106.63 56.6111 103.986 43.1065C101.341 29.6018 93.4418 17.7004 82.024 10.0192C70.6061 2.33798 56.605 -0.49398 43.0996 2.14604C29.5941 4.78607 17.6901 12.6819 10.0052 24.0973Z" fill="#3F3D56"/>
<path d="M74.7136 59.2533C78.1096 59.2533 80.8627 56.5002 80.8627 53.1042C80.8627 49.7081 78.1096 46.9551 74.7136 46.9551C71.3175 46.9551 68.5645 49.7081 68.5645 53.1042C68.5645 56.5002 71.3175 59.2533 74.7136 59.2533Z" fill="#FF6519"/>
<path d="M53.7351 59.2533C57.1311 59.2533 59.8842 56.5003 59.8842 53.1042C59.8842 49.7081 57.1311 46.9551 53.7351 46.9551C50.339 46.9551 47.5859 49.7081 47.5859 53.1042C47.5859 56.5003 50.339 59.2533 53.7351 59.2533Z" fill="#FF6519"/>
<path d="M32.7565 59.2533C36.1526 59.2533 38.9057 56.5003 38.9057 53.1042C38.9057 49.7081 36.1526 46.9551 32.7565 46.9551C29.3605 46.9551 26.6074 49.7081 26.6074 53.1042C26.6074 56.5003 29.3605 59.2533 32.7565 59.2533Z" fill="#FF6519"/>
<path d="M159.081 82.0975C158.43 80.6594 156.904 80.0627 155.403 79.9992C153.476 79.9176 151.701 80.7457 149.958 81.4615C148.158 82.2007 146.315 82.8038 144.343 82.6517C142.594 82.5143 140.909 81.9313 139.448 80.9583C138.008 80.021 136.849 78.7101 136.096 77.1655C135.343 75.6209 135.024 73.9008 135.172 72.1888C135.488 68.7848 137.477 65.5184 140.646 64.0781C142.447 63.2685 144.444 63.0004 146.395 63.3067C148.345 63.6129 150.164 64.4802 151.63 65.8027L150.62 66.2214C150.199 62.0208 152.483 58.0256 155.689 55.4619C159.07 52.7574 163.395 51.194 167.634 50.5001C171.992 49.7351 176.472 50.0722 180.666 51.4808C184.157 52.7239 187.34 54.7036 189.998 57.2856C192.76 59.9595 194.912 63.1987 196.306 66.7815C197.7 70.3643 198.303 74.206 198.074 78.0436C197.83 82.1022 196.749 86.0664 194.901 89.6879C193.056 93.2291 190.532 96.3724 187.473 98.9381C181.383 104.127 173.836 107.193 166.4 109.903C165.475 110.24 164.548 110.573 163.62 110.903C162.901 111.159 162.591 110.015 163.305 109.761C170.479 107.202 177.782 104.543 184.046 100.109C187.149 97.9654 189.849 95.2915 192.023 92.2103C194.23 88.9807 195.743 85.3282 196.465 81.4838C197.556 76.0689 196.856 70.4459 194.469 65.4642C192.083 60.4825 188.141 56.4125 183.237 53.8689C179.694 52.0742 175.759 51.1899 171.788 51.2956C167.478 51.3736 163.245 52.4484 159.419 54.4358C155.875 56.3101 152.788 59.31 151.942 63.3582C151.75 64.2999 151.703 65.2656 151.804 66.2214C151.858 66.763 151.137 66.9607 150.793 66.6402C149.575 65.552 148.083 64.8168 146.477 64.5138C144.872 64.2108 143.215 64.3515 141.684 64.9208C138.643 66.0476 136.625 69.0774 136.35 72.2571C136.211 73.8453 136.53 75.4401 137.268 76.8531C138.006 78.2662 139.133 79.4383 140.517 80.2311C141.903 81.0594 143.488 81.4955 145.103 81.4929C146.988 81.4751 148.725 80.6947 150.438 79.9908C152.269 79.2384 154.126 78.6115 156.129 78.8825C157.774 79.1051 159.392 79.9281 160.104 81.4998C160.416 82.1887 159.395 82.7915 159.081 82.0975Z" fill="#2F2E41"/>
<path d="M57.9414 222.315H234.531C234.655 222.315 234.774 222.265 234.862 222.177C234.95 222.089 234.999 221.97 234.999 221.845C234.999 221.721 234.95 221.601 234.862 221.513C234.774 221.425 234.655 221.375 234.531 221.375H57.9414C57.8169 221.375 57.6977 221.425 57.6098 221.513C57.522 221.601 57.4727 221.721 57.4727 221.845C57.4727 221.97 57.522 222.089 57.6098 222.177C57.6977 222.265 57.8169 222.315 57.9414 222.315Z" fill="#3F3D56"/>
</g>
<defs>
<clipPath id="clip0_508_1564">
<rect width="235" height="222.315" fill="white"/>
</clipPath>
</defs>
</svg>
