<svg width="25" height="25" viewBox="0 0 25 25" fill="none" xmlns="http://www.w3.org/2000/svg">
<path d="M14.9459 18.4922L15.729 18.9052L16.2339 18.1781C16.9708 17.1168 18.2716 16.3846 19.7917 16.3846C22.1933 16.3846 24 18.1627 24 20.1923C24 22.2219 22.1933 24 19.7917 24C17.39 24 15.5833 22.2219 15.5833 20.1923C15.5833 20.1378 15.5875 20.1123 15.5968 20.0545C15.6049 20.0046 15.6169 19.9305 15.6335 19.7926L15.7151 19.1139L15.1124 18.7914L8.82592 15.4279L8.28221 15.137L7.77814 15.4922C7.06104 15.9975 6.1781 16.3077 5.20833 16.3077C2.80666 16.3077 1 14.5296 1 12.5C1 10.4704 2.80666 8.69231 5.20833 8.69231C6.45109 8.69231 7.55043 9.1897 8.31792 9.95713L8.83925 10.4784L9.49139 10.1346L15.2945 7.07495L16.0399 6.68194L15.7789 5.88068C15.6549 5.49978 15.5833 5.15138 15.5833 4.80769C15.5833 2.77807 17.39 1 19.7917 1C22.1933 1 24 2.77807 24 4.80769C24 6.83732 22.1933 8.61538 19.7917 8.61538C18.5485 8.61538 17.4495 8.11867 16.6824 7.35092L16.161 6.82903L15.5085 7.17317L9.70539 10.2337L8.95963 10.6271L9.22125 11.4286C9.34509 11.808 9.41667 12.1563 9.41667 12.5C9.41667 13.0885 9.25072 13.6528 8.95862 14.1827L8.46692 15.0747L9.36784 15.5499L14.9459 18.4922Z" stroke="black" stroke-width="2"/>
</svg>
