<svg width="237" height="165" viewBox="0 0 237 165" fill="none" xmlns="http://www.w3.org/2000/svg">
<g clip-path="url(#clip0_508_2598)">
<path d="M47.0794 164.399C73.0807 164.399 94.1589 162.798 94.1589 160.824C94.1589 158.849 73.0807 157.248 47.0794 157.248C21.0782 157.248 0 158.849 0 160.824C0 162.798 21.0782 164.399 47.0794 164.399Z" fill="#E6E6E6"/>
<path d="M35.9883 36.4766C44.1815 32.9918 54.3863 35.1997 64.3524 36.7322C64.4452 34.8764 65.5693 32.6178 64.3917 31.3231C62.9611 29.7502 63.0928 28.0975 63.9537 26.4353C66.1551 22.1847 63.0011 17.6619 59.8166 13.9012C59.0988 13.0555 58.1917 12.391 57.1689 11.9617C56.1461 11.5324 55.0364 11.3504 53.9301 11.4305L48.031 11.8519C46.5955 11.9544 45.2256 12.4929 44.1045 13.3953C42.9834 14.2977 42.1647 15.5209 41.7578 16.9013C40.3492 18.817 39.5953 20.7275 40.07 22.6279C37.9602 24.0697 37.6057 25.8102 38.5538 27.7722C39.3577 29.0076 39.3491 30.2101 38.5172 31.3793C37.4246 32.87 36.5878 34.5322 36.041 36.2977L35.9883 36.4766Z" fill="#2F2E41"/>
<path d="M230.691 142.122H63.7027C62.2177 142.122 60.7935 141.532 59.7435 140.482C58.6934 139.432 58.1035 138.007 58.1035 136.522C118.637 129.487 178.032 129.487 236.29 136.522C236.29 138.007 235.7 139.432 234.65 140.482C233.6 141.532 232.176 142.122 230.691 142.122Z" fill="#2F2E41"/>
<path d="M236.29 136.851L58.1035 136.522L78.7547 101.774L78.8535 101.609V25.0283C78.8535 24.0987 79.0365 23.1783 79.3922 22.3195C79.7478 21.4607 80.2692 20.6804 80.9265 20.0231C81.5838 19.3659 82.3641 18.8445 83.2228 18.4888C84.0816 18.1331 85.0021 17.9501 85.9316 17.9502H207.474C208.404 17.9501 209.324 18.1331 210.183 18.4888C211.042 18.8445 211.822 19.3659 212.479 20.0231C213.136 20.6804 213.658 21.4607 214.013 22.3195C214.369 23.1783 214.552 24.0987 214.552 25.0283V102.136L236.29 136.851Z" fill="#3F3D56"/>
<path d="M85.7704 22.8906C85.1591 22.8913 84.5731 23.1344 84.1409 23.5667C83.7087 23.9989 83.4655 24.5849 83.4648 25.1962V95.0216C83.4656 95.6329 83.7087 96.2189 84.1409 96.6511C84.5731 97.0834 85.1591 97.3265 85.7704 97.3272H208.624C209.235 97.3265 209.821 97.0833 210.253 96.6511C210.685 96.2189 210.929 95.6329 210.929 95.0216V25.1962C210.929 24.5849 210.685 23.9989 210.253 23.5667C209.821 23.1345 209.235 22.8913 208.624 22.8906H85.7704Z" fill="white"/>
<path d="M86.2851 106.55C86.0962 106.55 85.9113 106.604 85.7523 106.706C85.5932 106.808 85.4666 106.953 85.3874 107.125L79.0241 120.958C78.9548 121.109 78.9245 121.274 78.936 121.44C78.9474 121.605 79.0003 121.765 79.0897 121.904C79.1791 122.044 79.3021 122.159 79.4475 122.238C79.5929 122.318 79.7559 122.359 79.9216 122.359H213.738C213.906 122.359 214.072 122.316 214.219 122.234C214.366 122.152 214.49 122.034 214.579 121.891C214.667 121.747 214.717 121.584 214.725 121.416C214.733 121.247 214.697 121.08 214.622 120.929L207.705 107.096C207.623 106.932 207.497 106.793 207.341 106.697C207.185 106.6 207.005 106.549 206.821 106.55H86.2851Z" fill="#2F2E41"/>
<path d="M146.703 21.7377C147.521 21.7377 148.185 21.0741 148.185 20.2556C148.185 19.437 147.521 18.7734 146.703 18.7734C145.884 18.7734 145.221 19.437 145.221 20.2556C145.221 21.0741 145.884 21.7377 146.703 21.7377Z" fill="white"/>
<path d="M133.551 124.994C133.334 124.994 133.123 125.066 132.95 125.198C132.778 125.33 132.654 125.516 132.597 125.725L131.001 131.654C130.961 131.8 130.956 131.954 130.986 132.103C131.015 132.251 131.078 132.391 131.171 132.512C131.263 132.632 131.382 132.73 131.518 132.797C131.654 132.864 131.803 132.899 131.955 132.899H162.31C162.468 132.899 162.623 132.861 162.763 132.789C162.903 132.717 163.024 132.612 163.115 132.484C163.207 132.356 163.266 132.207 163.288 132.051C163.311 131.895 163.295 131.736 163.244 131.588L161.192 125.659C161.124 125.465 160.998 125.297 160.831 125.177C160.664 125.058 160.463 124.994 160.258 124.994H133.551Z" fill="#2F2E41"/>
<path d="M214.553 100.456V101.773H78.7559L78.8581 101.609V100.456H214.553Z" fill="#2F2E41"/>
<path d="M210.765 46.1111C223.498 46.1111 233.82 35.7888 233.82 23.0556C233.82 10.3223 223.498 0 210.765 0C198.031 0 187.709 10.3223 187.709 23.0556C187.709 35.7888 198.031 46.1111 210.765 46.1111Z" fill="#FF6519"/>
<path d="M220.317 33.1012H201.214C200.865 33.1008 200.53 32.9619 200.283 32.7149C200.036 32.4679 199.897 32.133 199.896 31.7837V20.2559C199.897 19.9066 200.036 19.5718 200.283 19.3248C200.53 19.0778 200.865 18.9388 201.214 18.9385H220.317C220.666 18.9388 221.001 19.0778 221.248 19.3248C221.495 19.5718 221.634 19.9066 221.635 20.2559V31.7837C221.634 32.133 221.495 32.4679 221.248 32.7149C221.001 32.9619 220.666 33.1008 220.317 33.1012ZM201.214 20.2559V31.7837H220.318L220.317 20.2559L201.214 20.2559Z" fill="white"/>
<path d="M216.693 20.2556H204.836V14.9857C204.836 11.1688 207.329 8.39844 210.765 8.39844C214.2 8.39844 216.693 11.1688 216.693 14.9857L216.693 20.2556ZM206.153 18.9381H215.376V14.9857C215.376 11.883 213.48 9.71591 210.765 9.71591C208.05 9.71591 206.153 11.883 206.153 14.9857L206.153 18.9381Z" fill="white"/>
<path d="M210.765 27.007C211.492 27.007 212.082 26.4171 212.082 25.6895C212.082 24.9619 211.492 24.3721 210.765 24.3721C210.037 24.3721 209.447 24.9619 209.447 25.6895C209.447 26.4171 210.037 27.007 210.765 27.007Z" fill="white"/>
<path d="M194.67 73.6426H99.725C99.2589 73.6421 98.812 73.4567 98.4824 73.1271C98.1528 72.7974 97.9673 72.3505 97.9668 71.8844V48.3325C97.9673 47.8663 98.1528 47.4194 98.4824 47.0898C98.812 46.7602 99.2589 46.5748 99.725 46.5742H194.67C195.137 46.5748 195.584 46.7602 195.913 47.0898C196.243 47.4194 196.428 47.8663 196.429 48.3325V71.8844C196.428 72.3505 196.243 72.7974 195.913 73.1271C195.584 73.4567 195.137 73.6421 194.67 73.6426ZM99.725 47.2775C99.4453 47.2778 99.1772 47.3891 98.9794 47.5869C98.7816 47.7846 98.6704 48.0528 98.6701 48.3325V71.8844C98.6704 72.1641 98.7816 72.4322 98.9794 72.63C99.1772 72.8278 99.4453 72.939 99.725 72.9393H194.67C194.95 72.939 195.218 72.8278 195.416 72.63C195.614 72.4322 195.725 72.1641 195.725 71.8844V48.3325C195.725 48.0528 195.614 47.7846 195.416 47.5868C195.218 47.3891 194.95 47.2778 194.67 47.2775L99.725 47.2775Z" fill="#E6E6E6"/>
<path d="M114.479 66.3673C118.434 66.3673 121.641 63.1607 121.641 59.2051C121.641 55.2496 118.434 52.043 114.479 52.043C110.523 52.043 107.316 55.2496 107.316 59.2051C107.316 63.1607 110.523 66.3673 114.479 66.3673Z" fill="#E6E6E6"/>
<path d="M131.018 54.4307C130.861 54.4304 130.705 54.4611 130.56 54.521C130.415 54.5809 130.284 54.6688 130.173 54.7796C130.062 54.8905 129.973 55.0222 129.913 55.1671C129.853 55.3121 129.822 55.4674 129.822 55.6244C129.822 55.7813 129.853 55.9367 129.913 56.0816C129.973 56.2265 130.062 56.3582 130.173 56.4691C130.284 56.58 130.415 56.6679 130.56 56.7277C130.705 56.7876 130.861 56.8183 131.018 56.8181H187.292C187.609 56.8181 187.912 56.6923 188.136 56.4684C188.36 56.2446 188.486 55.9409 188.486 55.6244C188.486 55.3078 188.36 55.0041 188.136 54.7803C187.912 54.5564 187.609 54.4307 187.292 54.4307H131.018Z" fill="#E6E6E6"/>
<path d="M131.018 61.5928C130.701 61.5928 130.398 61.7185 130.174 61.9424C129.95 62.1663 129.824 62.4699 129.824 62.7865C129.824 63.1031 129.95 63.4067 130.174 63.6305C130.398 63.8544 130.701 63.9802 131.018 63.9802H155.233C155.549 63.9802 155.853 63.8544 156.077 63.6305C156.301 63.4067 156.427 63.1031 156.427 62.7865C156.427 62.4699 156.301 62.1663 156.077 61.9424C155.853 61.7185 155.549 61.5928 155.233 61.5928H131.018Z" fill="#E6E6E6"/>
<path d="M78.5216 62.0756L60.9702 71.4068L60.748 63.6308C66.4767 62.6745 71.9269 61.0095 76.9664 58.2988L78.8021 53.7636C79.0021 53.2695 79.3272 52.8358 79.7454 52.5052C80.1637 52.1746 80.6607 51.9585 81.1877 51.878C81.7148 51.7975 82.2536 51.8555 82.7515 52.0462C83.2493 52.2369 83.689 52.5537 84.0274 52.9657C84.5225 53.5684 84.77 54.3368 84.7198 55.1152C84.6695 55.8936 84.3252 56.6238 83.7567 57.1578L78.5216 62.0756Z" fill="#FFB8B8"/>
<path d="M35.6371 115.95C35.509 115.48 35.4819 114.989 35.5573 114.508C35.6328 114.027 35.8092 113.568 36.0749 113.16L39.9304 107.243C40.8424 105.844 42.2416 104.833 43.8568 104.407C45.4719 103.98 47.1878 104.169 48.6714 104.937C47.051 107.695 47.2769 110.115 49.231 112.217C46.1975 113.698 43.3939 115.61 40.9069 117.892C40.4529 118.202 39.9315 118.398 39.3861 118.466C38.8407 118.533 38.2872 118.469 37.7716 118.279C37.2561 118.089 36.7934 117.778 36.4221 117.373C36.0508 116.968 35.7816 116.48 35.6371 115.95Z" fill="#2F2E41"/>
<path d="M79.3221 108.213C78.7387 109.186 77.9151 109.992 76.9304 110.554C75.9458 111.117 74.8331 111.417 73.6991 111.425L48.0854 111.619L46.9746 105.176L58.3053 101.844L48.752 94.5123L59.1939 82.293L78.1598 99.9699C79.2683 101.003 79.9885 102.385 80.2001 103.886C80.4117 105.386 80.1017 106.914 79.3221 108.213Z" fill="#2F2E41"/>
<path d="M44.0856 152.277H38.087C32.7012 115.359 27.2189 78.3375 43.4191 64.5195L62.5257 67.6299L60.0818 83.8483L49.4177 96.0676L44.0856 152.277Z" fill="#2F2E41"/>
<path d="M49.359 160.639C48.8894 160.767 48.3981 160.795 47.9172 160.719C47.4363 160.644 46.9769 160.467 46.5691 160.202L40.0559 159.326C38.6563 158.414 37.6453 157.015 37.2191 155.4C36.7929 153.785 36.9818 152.069 37.7493 150.585C40.5075 152.206 42.9271 151.98 45.0298 150.025C46.5154 153.025 48.9632 152.842 51.301 155.369C51.6106 155.823 51.8071 156.345 51.8744 156.89C51.9416 157.436 51.8776 157.989 51.6876 158.505C51.4976 159.02 51.1871 159.483 50.7821 159.854C50.3771 160.226 49.8892 160.495 49.359 160.639Z" fill="#2F2E41"/>
<path d="M58.3038 39.859L47.1953 37.193C49.0403 33.4165 49.1922 29.2144 48.3061 24.7515L55.8599 24.5293C56.0966 30.0791 56.8127 35.2641 58.3038 39.859Z" fill="#FFB8B8"/>
<path d="M61.3574 74.3186C53.2708 79.829 47.5571 74.5071 43.1968 66.2961C43.8027 61.2718 42.8217 55.2591 41.0048 48.7259C40.1967 45.8443 40.4984 42.7644 41.8502 40.0944C43.2021 37.4243 45.5059 35.3581 48.3067 34.3037L57.86 38.3028C65.9719 44.9149 67.5685 52.0771 64.5251 59.6311L61.3574 74.3186Z" fill="#FF6519"/>
<path d="M38.0873 45.4127L29.2005 50.0782L44.9746 59.4093L47.1694 64.8233C47.3159 65.1847 47.3873 65.5721 47.3792 65.9619C47.3711 66.3518 47.2836 66.7359 47.1222 67.0908C46.9608 67.4457 46.7288 67.7641 46.4403 68.0265C46.1519 68.2888 45.813 68.4897 45.4444 68.6168C45.0254 68.7613 44.5786 68.8068 44.139 68.7498C43.6995 68.6928 43.2791 68.5348 42.9108 68.2882C42.5425 68.0416 42.2362 67.7131 42.0161 67.3284C41.7959 66.9437 41.6678 66.5133 41.6418 66.0708L41.4199 62.2976L21.3712 55.6815C20.6957 55.4586 20.0798 55.0849 19.5702 54.5887C19.0605 54.0925 18.6704 53.4868 18.4295 52.8176C18.0783 51.842 18.0604 50.7775 18.3786 49.7907C18.6969 48.8039 19.3333 47.9505 20.1883 47.3639L36.31 36.3037L38.0873 45.4127Z" fill="#FFB8B8"/>
<path d="M46.9737 46.3012C43.2674 44.6769 39.8971 46.4413 35.6431 47.8563L34.9766 36.0813C39.2006 33.83 43.228 33.223 46.9737 34.9705L46.9737 46.3012Z" fill="#FF6519"/>
<path d="M51.4068 30.3605C55.3238 30.3605 58.4991 27.1851 58.4991 23.2681C58.4991 19.3511 55.3238 16.1758 51.4068 16.1758C47.4898 16.1758 44.3145 19.3511 44.3145 23.2681C44.3145 27.1851 47.4898 30.3605 51.4068 30.3605Z" fill="#FFB8B8"/>
<path d="M59.8921 22.3747C52.87 23.0625 47.5193 21.9141 44.0996 18.6441V16.0107H59.2961L59.8921 22.3747Z" fill="#2F2E41"/>
</g>
<defs>
<clipPath id="clip0_508_2598">
<rect width="236.291" height="164.4" fill="white"/>
</clipPath>
</defs>
</svg>
