<svg width="273" height="165" viewBox="0 0 273 165" fill="none" xmlns="http://www.w3.org/2000/svg">
<g clip-path="url(#clip0_508_942)">
<path d="M273 128.266C273.006 129.367 272.574 130.425 271.8 131.207C271.026 131.99 269.972 132.433 268.871 132.438H87.1995C86.6544 132.436 86.1152 132.325 85.6127 132.114C85.1102 131.903 84.6543 131.595 84.2708 131.207C83.8874 130.82 83.584 130.361 83.3781 129.856C83.1721 129.352 83.0675 128.811 83.0704 128.266V4.17244C83.0646 3.0716 83.4964 2.01356 84.2707 1.23107C85.0451 0.448589 86.0986 0.00575692 87.1994 0H268.871C269.416 0.00283534 269.955 0.113006 270.458 0.32422C270.96 0.535433 271.416 0.843554 271.8 1.23099C272.183 1.61843 272.487 2.07759 272.693 2.58227C272.899 3.08695 273.003 3.62725 273 4.17233V128.266Z" fill="#E6E6E6"/>
<path d="M270.855 126.234C270.855 127.304 270.43 128.33 269.674 129.086C268.917 129.843 267.891 130.268 266.821 130.268H89.3704C88.3004 130.268 87.2742 129.843 86.5176 129.086C85.761 128.33 85.3359 127.304 85.3359 126.234V6.261C85.3359 5.191 85.761 4.16483 86.5176 3.40822C87.2742 2.65162 88.3004 2.22656 89.3704 2.22656H266.829C267.898 2.22871 268.922 2.65472 269.676 3.41109C270.431 4.16746 270.855 5.1924 270.855 6.261V126.234Z" fill="white"/>
<path d="M94.8205 7.43555H261.561C262.196 7.43555 262.805 7.68784 263.254 8.13694C263.704 8.58603 263.956 9.19512 263.956 9.83024V122.199C263.956 122.834 263.704 123.443 263.254 123.893C262.805 124.342 262.196 124.594 261.561 124.594H94.8205C94.1854 124.594 93.5763 124.342 93.1272 123.893C92.6781 123.443 92.4258 122.834 92.4258 122.199V9.83024C92.4258 9.19512 92.6781 8.58603 93.1272 8.13694C93.5763 7.68784 94.1854 7.43555 94.8205 7.43555Z" fill="#E6E6E6"/>
<path d="M96.9338 10.1309H259.272C259.907 10.1309 260.516 10.3832 260.965 10.8322C261.414 11.2813 261.667 11.8904 261.667 12.5255V118.898C261.667 119.534 261.414 120.143 260.965 120.592C260.516 121.041 259.907 121.293 259.272 121.293H96.9338C96.2986 121.293 95.6895 121.041 95.2404 120.592C94.7914 120.143 94.5391 119.534 94.5391 118.898V12.5255C94.5391 11.8904 94.7914 11.2813 95.2404 10.8322C95.6895 10.3832 96.2986 10.1309 96.9338 10.1309Z" fill="white"/>
<path d="M211.554 84.025C210.915 84.0246 210.284 83.8899 209.7 83.6299C209.564 83.5696 209.435 83.496 209.313 83.4102L197.515 75.1055C196.917 74.6843 196.429 74.1255 196.091 73.476C195.754 72.8266 195.578 72.1057 195.578 71.374V60.048C195.578 59.3163 195.754 58.5954 196.091 57.9459C196.429 57.2965 196.917 56.7377 197.515 56.3165L209.313 48.0118C209.435 47.9259 209.564 47.8524 209.7 47.7921C210.395 47.4831 211.156 47.3527 211.914 47.4127C212.672 47.4726 213.404 47.7211 214.041 48.1355C214.679 48.5499 215.203 49.1171 215.566 49.7855C215.929 50.4539 216.119 51.2024 216.119 51.963V79.459C216.119 80.6696 215.638 81.8306 214.782 82.6867C213.926 83.5427 212.765 84.0236 211.554 84.0236L211.554 84.025Z" fill="#3F3D56"/>
<path d="M185.152 86.2523H152.247C145.533 86.2468 140.093 81.9073 140.086 76.5525V54.8707C140.093 49.5159 145.533 45.1764 152.247 45.1709H185.238C191.903 45.1772 197.305 49.4856 197.313 54.8022V76.5525C197.306 81.9073 191.865 86.2468 185.152 86.2523Z" fill="#3F3D56"/>
<path d="M243.767 114.453C249.172 114.453 253.553 110.071 253.553 104.666C253.553 99.2614 249.172 94.8799 243.767 94.8799C238.362 94.8799 233.98 99.2614 233.98 104.666C233.98 110.071 238.362 114.453 243.767 114.453Z" fill="#E6E6E6"/>
<path d="M248.847 104.491L241.046 99.9871C241.015 99.9693 240.98 99.96 240.945 99.96C240.909 99.96 240.874 99.9693 240.843 99.9871C240.813 100.005 240.787 100.03 240.769 100.061C240.752 100.092 240.742 100.127 240.742 100.163V109.17C240.742 109.206 240.752 109.241 240.769 109.271C240.787 109.302 240.813 109.328 240.843 109.346C240.874 109.363 240.909 109.373 240.945 109.373C240.98 109.373 241.015 109.363 241.046 109.346L248.847 104.842C248.878 104.824 248.903 104.798 248.921 104.768C248.939 104.737 248.948 104.702 248.948 104.666C248.948 104.631 248.939 104.596 248.921 104.565C248.903 104.534 248.878 104.509 248.847 104.491L241.046 99.9871C241.015 99.9693 240.98 99.96 240.945 99.96C240.909 99.96 240.874 99.9693 240.843 99.9871C240.813 100.005 240.787 100.03 240.769 100.061C240.752 100.092 240.742 100.127 240.742 100.163V109.17C240.742 109.206 240.752 109.241 240.769 109.271C240.787 109.302 240.813 109.328 240.843 109.346C240.874 109.363 240.909 109.373 240.945 109.373C240.98 109.373 241.015 109.363 241.046 109.346L248.847 104.842C248.878 104.824 248.903 104.798 248.921 104.768C248.939 104.737 248.948 104.702 248.948 104.666C248.948 104.631 248.939 104.596 248.921 104.565C248.903 104.534 248.878 104.509 248.847 104.491Z" fill="white"/>
<path d="M231.059 143.148C231.065 144.249 230.633 145.307 229.858 146.089C229.084 146.872 228.031 147.315 226.93 147.32H45.2581C44.713 147.317 44.1738 147.207 43.6713 146.996C43.1688 146.785 42.7128 146.477 42.3294 146.089C41.946 145.702 41.6426 145.243 41.4367 144.738C41.2307 144.233 41.1261 143.693 41.129 143.148V19.0543C41.1232 17.9534 41.555 16.8954 42.3293 16.1129C43.1037 15.3304 44.1571 14.8876 45.258 14.8818H226.93C227.475 14.8847 228.014 14.9948 228.516 15.2061C229.019 15.4173 229.475 15.7254 229.858 16.1128C230.242 16.5003 230.545 16.9594 230.751 17.4641C230.957 17.9688 231.062 18.5091 231.059 19.0542V143.148Z" fill="#E6E6E6"/>
<path d="M228.918 141.116C228.918 142.186 228.493 143.213 227.736 143.969C226.98 144.726 225.953 145.151 224.883 145.151H47.4329C46.3629 145.151 45.3367 144.726 44.5801 143.969C43.8235 143.213 43.3984 142.186 43.3984 141.116V21.1438C43.3984 20.0738 43.8235 19.0476 44.5801 18.291C45.3367 17.5344 46.3629 17.1094 47.4329 17.1094H224.891C225.96 17.1115 226.984 17.5375 227.739 18.2939C228.494 19.0503 228.918 20.0752 228.918 21.1438V141.116Z" fill="white"/>
<path d="M52.8791 22.3174H219.62C220.255 22.3174 220.864 22.5697 221.313 23.0188C221.762 23.4679 222.014 24.077 222.014 24.7121V137.081C222.014 137.716 221.762 138.325 221.313 138.774C220.864 139.224 220.255 139.476 219.62 139.476H52.8791C52.244 139.476 51.6349 139.224 51.1858 138.774C50.7367 138.325 50.4844 137.716 50.4844 137.081V24.7121C50.4844 24.077 50.7367 23.4679 51.1858 23.0188C51.6349 22.5697 52.244 22.3174 52.8791 22.3174Z" fill="#E6E6E6"/>
<path d="M54.9923 25.0127H217.331C217.966 25.0127 218.575 25.265 219.024 25.7141C219.473 26.1632 219.725 26.7723 219.725 27.4074V133.78C219.725 134.415 219.473 135.024 219.024 135.474C218.575 135.923 217.966 136.175 217.331 136.175H54.9923C54.3572 136.175 53.7481 135.923 53.299 135.474C52.85 135.024 52.5977 134.415 52.5977 133.78V27.4074C52.5977 26.7723 52.85 26.1632 53.299 25.7141C53.7481 25.265 54.3572 25.0127 54.9923 25.0127Z" fill="white"/>
<path d="M169.613 98.9078C168.974 98.9074 168.342 98.7728 167.758 98.5127C167.623 98.4524 167.493 98.3788 167.372 98.293L155.574 89.9883C154.975 89.5671 154.487 89.0083 154.15 88.3588C153.813 87.7094 153.637 86.9885 153.637 86.2568V74.9308C153.637 74.1991 153.813 73.4782 154.15 72.8288C154.487 72.1793 154.975 71.6205 155.574 71.1993L167.372 62.8946C167.493 62.8088 167.623 62.7352 167.758 62.6749C168.453 62.3659 169.215 62.2355 169.973 62.2955C170.731 62.3554 171.462 62.6039 172.1 63.0183C172.738 63.4327 173.262 63.9999 173.625 64.6683C173.987 65.3367 174.177 66.0852 174.177 66.8458V94.3418C174.177 95.5524 173.696 96.7134 172.84 97.5695C171.984 98.4255 170.823 98.9064 169.613 98.9064L169.613 98.9078Z" fill="#3F3D56"/>
<path d="M143.211 101.134H110.305C103.592 101.129 98.1514 96.7891 98.1445 91.4344V69.7525C98.1514 64.3978 103.592 60.0582 110.305 60.0527H143.296C149.962 60.059 155.363 64.3674 155.371 69.684V91.4344C155.364 96.7891 149.924 101.129 143.211 101.134Z" fill="#3F3D56"/>
<path d="M201.825 129.334C207.23 129.334 211.612 124.953 211.612 119.548C211.612 114.143 207.23 109.762 201.825 109.762C196.421 109.762 192.039 114.143 192.039 119.548C192.039 124.953 196.421 129.334 201.825 129.334Z" fill="#E6E6E6"/>
<path d="M206.909 119.373L199.109 114.869C199.078 114.851 199.043 114.842 199.007 114.842C198.972 114.842 198.937 114.851 198.906 114.869C198.875 114.887 198.85 114.912 198.832 114.943C198.814 114.974 198.805 115.009 198.805 115.044V124.052C198.805 124.087 198.814 124.122 198.832 124.153C198.85 124.184 198.875 124.21 198.906 124.227C198.937 124.245 198.972 124.254 199.007 124.254C199.043 124.254 199.078 124.245 199.109 124.227L206.909 119.724C206.94 119.706 206.966 119.68 206.983 119.649C207.001 119.619 207.011 119.584 207.011 119.548C207.011 119.513 207.001 119.478 206.983 119.447C206.966 119.416 206.94 119.391 206.909 119.373L199.109 114.869C199.078 114.851 199.043 114.842 199.007 114.842C198.972 114.842 198.937 114.851 198.906 114.869C198.875 114.887 198.85 114.912 198.832 114.943C198.814 114.974 198.805 115.009 198.805 115.044V124.052C198.805 124.087 198.814 124.122 198.832 124.153C198.85 124.184 198.875 124.21 198.906 124.227C198.937 124.245 198.972 124.254 199.007 124.254C199.043 124.254 199.078 124.245 199.109 124.227L206.909 119.724C206.94 119.706 206.966 119.68 206.983 119.649C207.001 119.619 207.011 119.584 207.011 119.548C207.011 119.513 207.001 119.478 206.983 119.447C206.966 119.416 206.94 119.391 206.909 119.373Z" fill="white"/>
<path d="M189.93 160.195C189.936 161.296 189.504 162.354 188.73 163.136C187.955 163.919 186.902 164.361 185.801 164.367H4.1292C3.58412 164.364 3.04493 164.254 2.54243 164.043C2.03992 163.832 1.58394 163.524 1.20051 163.136C0.817082 162.749 0.513721 162.29 0.307747 161.785C0.101773 161.28 -0.00277977 160.74 5.68217e-05 160.195V36.1012C-0.00569934 35.0003 0.426087 33.9423 1.20043 33.1598C1.97477 32.3773 3.02824 31.9345 4.12909 31.9287H185.801C186.346 31.9315 186.885 32.0417 187.388 32.2529C187.89 32.4641 188.346 32.7723 188.73 33.1597C189.113 33.5471 189.416 34.0063 189.622 34.511C189.828 35.0157 189.933 35.556 189.93 36.101V160.195Z" fill="#E6E6E6"/>
<path d="M187.789 158.162C187.789 159.232 187.364 160.258 186.607 161.015C185.851 161.772 184.824 162.197 183.754 162.197H6.30397C5.23397 162.197 4.2078 161.772 3.45119 161.015C2.69459 160.258 2.26953 159.232 2.26953 158.162V38.1897C2.26953 37.1197 2.69459 36.0935 3.45119 35.3369C4.2078 34.5803 5.23397 34.1553 6.30397 34.1553H183.763C184.831 34.1574 185.855 34.5834 186.61 35.3398C187.365 36.0962 187.789 37.1211 187.789 38.1897V158.162Z" fill="white"/>
<path d="M11.7502 39.3643H178.491C179.126 39.3643 179.735 39.6166 180.184 40.0656C180.633 40.5147 180.886 41.1238 180.886 41.7589V154.128C180.886 154.763 180.633 155.372 180.184 155.821C179.735 156.27 179.126 156.523 178.491 156.523H11.7502C11.115 156.523 10.5059 156.27 10.0569 155.821C9.60777 155.372 9.35547 154.763 9.35547 154.128V41.7589C9.35547 41.1238 9.60777 40.5147 10.0569 40.0656C10.5059 39.6166 11.115 39.3643 11.7502 39.3643Z" fill="#E6E6E6"/>
<path d="M13.8634 42.0596H176.202C176.516 42.0596 176.828 42.1215 177.118 42.2419C177.409 42.3622 177.673 42.5386 177.895 42.761C178.117 42.9833 178.294 43.2473 178.414 43.5378C178.534 43.8284 178.596 44.1398 178.596 44.4543V150.827C178.596 151.142 178.534 151.453 178.414 151.744C178.294 152.034 178.117 152.298 177.895 152.52C177.673 152.743 177.409 152.919 177.118 153.04C176.828 153.16 176.516 153.222 176.202 153.222H13.8634C13.2283 153.222 12.6192 152.97 12.1701 152.52C11.721 152.071 11.4688 151.462 11.4688 150.827V44.4543C11.4688 43.8191 11.721 43.21 12.1701 42.761C12.6192 42.3119 13.2283 42.0596 13.8634 42.0596Z" fill="white"/>
<path d="M128.484 115.955C127.845 115.954 127.213 115.82 126.63 115.56C126.494 115.499 126.364 115.426 126.243 115.34L114.445 107.035C113.847 106.614 113.358 106.055 113.021 105.406C112.684 104.756 112.508 104.035 112.508 103.304V91.9777C112.508 91.246 112.684 90.5251 113.021 89.8756C113.358 89.2262 113.847 88.6674 114.445 88.2462L126.243 79.9414C126.364 79.8556 126.494 79.782 126.63 79.7218C127.325 79.4128 128.086 79.2824 128.844 79.3423C129.602 79.4023 130.333 79.6508 130.971 80.0652C131.609 80.4796 132.133 81.0468 132.496 81.7152C132.858 82.3836 133.049 83.1321 133.049 83.8927V111.389C133.049 112.599 132.568 113.76 131.712 114.616C130.856 115.472 129.695 115.953 128.484 115.953L128.484 115.955Z" fill="#FF6519"/>
<path d="M102.082 118.181H69.1763C62.463 118.176 57.0225 113.836 57.0156 108.481V86.7994C57.0225 81.4446 62.463 77.1051 69.1763 77.0996H102.168C108.833 77.1059 114.235 81.4143 114.242 86.7309V108.481C114.236 113.836 108.795 118.176 102.082 118.181Z" fill="#FF6519"/>
<path d="M160.697 146.381C166.101 146.381 170.483 142 170.483 136.595C170.483 131.19 166.101 126.809 160.697 126.809C155.292 126.809 150.91 131.19 150.91 136.595C150.91 142 155.292 146.381 160.697 146.381Z" fill="#3F3D56"/>
<path d="M165.777 136.42L157.976 131.916C157.945 131.898 157.91 131.889 157.874 131.889C157.839 131.889 157.804 131.898 157.773 131.916C157.742 131.934 157.717 131.959 157.699 131.99C157.681 132.021 157.672 132.056 157.672 132.091V141.099C157.672 141.134 157.681 141.169 157.699 141.2C157.717 141.231 157.742 141.256 157.773 141.274C157.804 141.292 157.839 141.301 157.874 141.301C157.91 141.301 157.945 141.292 157.976 141.274L165.777 136.77C165.807 136.753 165.833 136.727 165.851 136.696C165.868 136.666 165.878 136.631 165.878 136.595C165.878 136.559 165.868 136.525 165.851 136.494C165.833 136.463 165.807 136.437 165.777 136.42L157.976 131.916C157.945 131.898 157.91 131.889 157.874 131.889C157.839 131.889 157.804 131.898 157.773 131.916C157.742 131.934 157.717 131.959 157.699 131.99C157.681 132.021 157.672 132.056 157.672 132.091V141.099C157.672 141.134 157.681 141.169 157.699 141.2C157.717 141.231 157.742 141.256 157.773 141.274C157.804 141.292 157.839 141.301 157.874 141.301C157.91 141.301 157.945 141.292 157.976 141.274L165.777 136.77C165.807 136.753 165.833 136.727 165.851 136.696C165.868 136.666 165.878 136.631 165.878 136.595C165.878 136.559 165.868 136.525 165.851 136.494C165.833 136.463 165.807 136.437 165.777 136.42Z" fill="white"/>
</g>
<defs>
<clipPath id="clip0_508_942">
<rect width="273" height="164.368" fill="white"/>
</clipPath>
</defs>
</svg>
