<svg width="258" height="222" viewBox="0 0 258 222" fill="none" xmlns="http://www.w3.org/2000/svg">
<g clip-path="url(#clip0_508_1069)">
<path d="M183.368 220.686C181.517 220.684 179.697 220.215 178.075 219.324L27.4923 136.97C24.9206 135.56 23.0132 133.187 22.1888 130.373C21.3643 127.558 21.69 124.531 23.0945 121.956L86.6414 5.76045C87.3385 4.48581 88.2798 3.36096 89.4116 2.45012C90.5434 1.53928 91.8435 0.860286 93.2377 0.451911C94.632 0.0435356 96.093 -0.0862241 97.5373 0.0700408C98.9817 0.226306 100.381 0.665534 101.656 1.36265L252.239 83.7159C254.81 85.1261 256.718 87.4989 257.542 90.3136C258.367 93.1284 258.041 96.1553 256.637 98.7302L193.09 214.926C192.396 216.203 191.455 217.33 190.323 218.241C189.191 219.152 187.889 219.83 186.493 220.234C185.478 220.533 184.426 220.685 183.368 220.686ZM178.985 217.66C181.118 218.826 183.627 219.098 185.96 218.414C188.293 217.731 190.259 216.149 191.426 214.016L254.973 97.8202C256.136 95.6867 256.406 93.1787 255.723 90.8465C255.04 88.5142 253.46 86.5482 251.329 85.3796L100.746 3.02639C98.6128 1.85996 96.1039 1.58859 93.7709 2.27198C91.4379 2.95536 89.4718 4.53751 88.3053 6.6704L24.7583 122.866C23.5947 125 23.3248 127.508 24.0079 129.84C24.6911 132.172 26.2714 134.138 28.4023 135.307L178.985 217.66Z" fill="#F2F2F2"/>
<path d="M186.474 180.046C184.741 180.045 183.036 179.608 181.517 178.776L59.7747 112.196C58.5902 111.55 57.5448 110.676 56.6983 109.625C55.8518 108.574 55.2209 107.367 54.8416 106.072C54.4622 104.777 54.342 103.42 54.4878 102.079C54.6335 100.737 55.0424 99.4375 55.691 98.2542L93.6432 28.8585C94.2904 27.6748 95.1644 26.6303 96.2154 25.7844C97.2663 24.9386 98.4736 24.308 99.7682 23.9288C101.063 23.5496 102.42 23.4291 103.761 23.5743C105.102 23.7194 106.401 24.1274 107.585 24.7748L229.327 91.3549C230.511 92.0022 231.555 92.8762 232.401 93.9271C233.247 94.9781 233.877 96.1853 234.257 97.48C234.636 98.7746 234.756 100.131 234.611 101.472C234.466 102.814 234.058 104.113 233.411 105.297L195.459 174.692C194.581 176.311 193.283 177.662 191.702 178.604C190.121 179.546 188.314 180.044 186.474 180.046Z" fill="#F2F2F2"/>
<path d="M182.695 220.654H11.0636C8.34009 220.651 5.72901 219.568 3.8032 217.642C1.87738 215.716 0.794104 213.105 0.791016 210.382V77.9445C0.794104 75.221 1.87738 72.6099 3.8032 70.6841C5.72901 68.7582 8.34009 67.675 11.0636 67.6719H182.695C185.418 67.675 188.029 68.7582 189.955 70.6841C191.881 72.6099 192.964 75.221 192.967 77.9445V210.382C192.964 213.105 191.881 215.716 189.955 217.642C188.029 219.568 185.418 220.651 182.695 220.654Z" fill="white"/>
<path d="M182.694 221.445H11.0628C8.12977 221.441 5.31782 220.275 3.24386 218.201C1.1699 216.127 0.00330203 213.315 0 210.382V77.9446C0.00330203 75.0116 1.1699 72.1997 3.24386 70.1257C5.31782 68.0517 8.12977 66.8851 11.0628 66.8818H182.694C185.627 66.8851 188.439 68.0517 190.513 70.1257C192.587 72.1997 193.754 75.0116 193.757 77.9446V210.382C193.754 213.315 192.587 216.127 190.513 218.201C188.439 220.275 185.627 221.441 182.694 221.445ZM11.0628 68.7783C8.63257 68.7811 6.30268 69.7477 4.58425 71.4661C2.86583 73.1845 1.89922 75.5144 1.89648 77.9446V210.382C1.89922 212.812 2.86583 215.142 4.58425 216.861C6.30268 218.579 8.63257 219.546 11.0628 219.548H182.694C185.124 219.546 187.454 218.579 189.173 216.861C190.891 215.142 191.858 212.812 191.86 210.382V77.9446C191.858 75.5144 190.891 73.1845 189.173 71.4661C187.454 69.7477 185.124 68.7811 182.694 68.7783H11.0628Z" fill="#E6E6E6"/>
<path d="M123.589 111.224C121.595 111.222 119.628 111.683 117.842 112.571C116.057 113.459 114.502 114.749 113.3 116.34C112.009 115.784 110.601 115.558 109.202 115.681C107.803 115.805 106.456 116.274 105.282 117.046C104.109 117.818 103.146 118.87 102.479 120.106C101.812 121.343 101.463 122.726 101.463 124.13H136.495C136.495 122.435 136.161 120.757 135.513 119.191C134.864 117.625 133.913 116.202 132.715 115.004C131.516 113.805 130.094 112.855 128.528 112.206C126.962 111.557 125.283 111.224 123.589 111.224Z" fill="#E6E6E6"/>
<path d="M46.8412 161.743C58.3202 161.743 67.6257 152.437 67.6257 140.958C67.6257 129.479 58.3202 120.174 46.8412 120.174C35.3622 120.174 26.0566 129.479 26.0566 140.958C26.0566 152.437 35.3622 161.743 46.8412 161.743Z" fill="#FF6519"/>
<path d="M168.583 183.793C167.821 183.973 167.04 184.063 166.257 184.062H27.4979C25.789 184.065 24.1074 183.633 22.6113 182.807L22.9811 182.276L38.4627 159.983L61.4038 126.956L61.7388 126.472L65.3484 121.276C65.591 120.926 65.9147 120.64 66.2917 120.443C66.6688 120.246 67.088 120.143 67.5136 120.143C67.9392 120.143 68.3584 120.246 68.7355 120.443C69.1125 120.64 69.4362 120.926 69.6788 121.276L81.6708 138.537V138.54L88.7257 148.699L105.566 172.942L131.109 136.482C131.352 136.135 131.676 135.851 132.052 135.655C132.428 135.459 132.846 135.356 133.271 135.356C133.695 135.356 134.113 135.459 134.49 135.655C134.866 135.851 135.189 136.135 135.433 136.482L151.818 159.869L152.76 161.212L168.583 183.793Z" fill="#3F3D56"/>
<path d="M96.003 132.774C93.543 132.773 91.1161 133.342 88.9134 134.437C86.7107 135.532 84.7923 137.124 83.3091 139.086C81.7171 138.401 79.9798 138.122 78.2534 138.274C76.5269 138.426 74.8652 139.005 73.4175 139.958C71.9697 140.911 70.7813 142.208 69.9588 143.734C69.1363 145.259 68.7055 146.965 68.7051 148.698H111.927C111.927 146.607 111.515 144.536 110.715 142.604C109.914 140.672 108.741 138.917 107.263 137.438C105.784 135.96 104.029 134.787 102.097 133.987C100.165 133.186 98.0941 132.774 96.003 132.774Z" fill="#CCCCCC"/>
<path d="M166.258 184.378H27.499C26.1289 184.379 24.772 184.11 23.5059 183.586C22.2398 183.063 21.0895 182.294 20.1206 181.326C19.1518 180.357 18.3836 179.206 17.8598 177.94C17.3361 176.674 17.0671 175.317 17.0684 173.947V94.8515C17.0715 92.0861 18.1714 89.4349 20.1269 87.4794C22.0823 85.524 24.7336 84.424 27.499 84.4209H166.258C169.023 84.424 171.675 85.524 173.63 87.4794C175.586 89.4349 176.685 92.0861 176.689 94.8515V173.947C176.69 175.317 176.421 176.674 175.898 177.941C175.374 179.207 174.606 180.357 173.637 181.326C172.668 182.295 171.518 183.063 170.251 183.587C168.985 184.111 167.628 184.379 166.258 184.378ZM27.499 85.0531C24.9012 85.056 22.4106 86.0893 20.5737 87.9262C18.7367 89.7632 17.7035 92.2537 17.7005 94.8515V173.947C17.6993 175.234 17.9519 176.509 18.4439 177.698C18.9359 178.888 19.6576 179.968 20.5677 180.878C21.4778 181.789 22.5585 182.51 23.7478 183.002C24.9372 183.494 26.2119 183.747 27.499 183.746H166.258C167.545 183.747 168.82 183.495 170.009 183.003C171.199 182.511 172.28 181.789 173.19 180.879C174.1 179.969 174.822 178.888 175.314 177.699C175.806 176.509 176.058 175.234 176.056 173.947V94.8515C176.053 92.2537 175.02 89.7632 173.183 87.9262C171.346 86.0893 168.856 85.056 166.258 85.0531H27.499Z" fill="#3F3D56"/>
</g>
<defs>
<clipPath id="clip0_508_1069">
<rect width="257.991" height="221.444" fill="white"/>
</clipPath>
</defs>
</svg>
