<svg width="275" height="168" viewBox="0 0 275 168" fill="none" xmlns="http://www.w3.org/2000/svg">
<g clip-path="url(#clip0_508_1312)">
<path d="M215.729 26.237C215.729 26.237 209.677 26.9193 209.286 36.2923C208.959 44.1037 208.294 48.4564 211.474 50.0857C212.609 50.6681 213.944 50.7181 215.159 50.321L228.129 46.0565C228.129 46.0565 228.323 31.9984 223.832 28.581C219.341 25.1635 215.729 26.237 215.729 26.237Z" fill="#36344E"/>
<path d="M222.879 47.7801L216.314 49.9388V40.4893H222.27L222.879 47.7801Z" fill="#FAAFB2"/>
<path d="M202.813 101.418C202.457 103.583 201.013 105.136 199.589 104.886C198.163 104.636 197.298 102.677 197.654 100.512C197.784 99.6447 198.128 98.8241 198.654 98.1212L200.281 88.9688L204.707 89.8952L202.633 98.8182C202.907 99.6623 202.969 100.553 202.813 101.418Z" fill="#FAAFB2"/>
<path d="M217.841 162.277H211.694L208.127 129.426H217.632L217.841 162.277Z" fill="#FAAFB2"/>
<path d="M205.706 167.556C205.059 167.556 204.483 167.541 204.05 167.5C202.418 167.35 200.859 166.144 200.077 165.441C199.727 165.127 199.612 164.621 199.795 164.186C199.927 163.874 200.189 163.641 200.515 163.547L204.83 162.315L211.818 157.601L211.897 157.742C211.927 157.795 212.612 159.03 212.841 159.865C212.929 160.183 212.906 160.447 212.774 160.653C212.682 160.795 212.553 160.877 212.45 160.924C212.577 161.056 212.974 161.324 214.194 161.518C215.979 161.8 216.35 159.953 216.367 159.877L216.379 159.815L216.432 159.78C217.279 159.233 217.803 158.986 217.982 159.039C218.094 159.071 218.282 159.13 218.788 164.159C218.838 164.318 219.194 165.474 218.953 166.582C218.691 167.788 213.429 167.374 212.377 167.277C212.347 167.28 208.409 167.559 205.709 167.559H205.706V167.556Z" fill="#36344E"/>
<path d="M231.732 162.277H225.582L222.018 129.426H231.52L231.732 162.277Z" fill="#FAAFB2"/>
<path d="M219.597 167.556C218.95 167.556 218.373 167.541 217.941 167.5C216.309 167.35 214.75 166.144 213.968 165.441C213.618 165.127 213.503 164.621 213.685 164.186C213.818 163.874 214.08 163.641 214.406 163.547L218.72 162.315L225.708 157.601L225.788 157.742C225.817 157.795 226.502 159.03 226.732 159.865C226.82 160.183 226.797 160.447 226.664 160.653C226.573 160.795 226.444 160.877 226.341 160.924C226.467 161.056 226.864 161.324 228.085 161.518C229.87 161.8 230.24 159.953 230.258 159.877L230.27 159.815L230.323 159.78C231.173 159.233 231.693 158.986 231.873 159.039C231.984 159.071 232.173 159.13 232.679 164.159C232.729 164.318 233.084 165.474 232.843 166.582C232.582 167.788 227.32 167.374 226.267 167.277C226.238 167.28 222.3 167.559 219.6 167.559H219.597V167.556Z" fill="#36344E"/>
<path d="M233.499 81.5903H203.627L214.365 46.251H226.276L233.499 81.5903Z" fill="#DFDFE0"/>
<path d="M216.246 46.2534C216.246 46.2534 208.826 46.0593 208.046 48.0121C207.267 49.965 198.088 96.4361 198.088 96.4361H204.141L216.246 46.2563V46.2534Z" fill="#DFDFE0"/>
<path d="M217.127 43.1041C220.739 43.1041 223.668 40.1757 223.668 36.5633C223.668 32.9509 220.739 30.0225 217.127 30.0225C213.514 30.0225 210.586 32.9509 210.586 36.5633C210.586 40.1757 213.514 43.1041 217.127 43.1041Z" fill="#FAAFB2"/>
<path d="M215.339 28.6777C215.339 28.6777 211.739 43.2946 215.742 50.1266L210.104 48.9296C210.104 48.9296 207.919 32.9334 212.313 30.0247L215.339 28.6777Z" fill="#36344E"/>
<path d="M227.292 81.5898H207.687L196.961 125.614C196.764 127.473 197.943 129.208 199.749 129.693C205.634 131.27 219.757 133.502 241.129 127.282C243.185 126.685 244.353 124.514 243.708 122.47L227.292 81.5898Z" fill="#36344E"/>
<path d="M219.365 46.251L225.462 45.9834C228.103 46.1834 230.491 47.6186 231.906 49.8567C236.214 56.6681 244.276 71.0233 237.079 72.9908C227.591 75.5819 222.994 61.1561 222.994 61.1561L219.365 46.251Z" fill="#DFDFE0"/>
<path d="M217.275 50.5271C216.022 48.7272 215.978 46.6067 217.172 45.7921C218.369 44.9774 220.354 45.7803 221.607 47.5802C222.118 48.2919 222.442 49.1213 222.554 49.9918L227.762 57.6915L223.942 60.1119L219.213 52.2653C218.427 51.8506 217.763 51.2535 217.275 50.5271Z" fill="#FAAFB2"/>
<path d="M220.355 56.7535L224.658 52.7949L233.167 60.7151L225.255 66.1237L220.355 56.7535Z" fill="#DFDFE0"/>
<path d="M9.53186 37.2422H144.601C149.866 37.2422 154.133 41.5096 154.133 46.774C154.133 52.0385 149.866 56.3059 144.601 56.3059H9.53186C4.26743 56.3059 0 52.0385 0 46.774C0 41.5096 4.26743 37.2422 9.53186 37.2422Z" fill="#FF6519"/>
<path d="M59.793 167.624C59.793 167.819 59.9488 167.974 60.143 167.974H274.629C274.823 167.974 274.979 167.819 274.979 167.624C274.979 167.43 274.823 167.274 274.629 167.274H60.143C59.9488 167.274 59.793 167.43 59.793 167.624Z" fill="#484565"/>
<path d="M124.882 27.6309H152.924C153.595 27.6309 154.136 28.172 154.136 28.8396C154.136 29.5072 153.595 30.0484 152.924 30.0484H124.882C124.211 30.0484 123.67 29.5072 123.67 28.8396C123.67 28.172 124.211 27.6309 124.882 27.6309Z" fill="#DFDFE0"/>
<path d="M1.2117 0H29.2544C29.9249 0 30.4661 0.541149 30.4661 1.20876C30.4661 1.87637 29.9249 2.41752 29.2544 2.41752H1.2117C0.541149 2.42046 0 1.87932 0 1.20876C0 0.541149 0.541149 0 1.2117 0Z" fill="#DFDFE0"/>
<path d="M1.2117 10.5615H83.5222C84.1927 10.5615 84.7339 11.1027 84.7339 11.7732C84.7339 12.4408 84.1927 12.982 83.5222 12.982H1.2117C0.541149 12.982 0 12.4408 0 11.7732C0 11.1056 0.541149 10.5615 1.2117 10.5615Z" fill="#DFDFE0"/>
<path d="M68.752 76.7259C68.752 83.0668 73.8929 88.2077 80.2337 88.2077C82.1542 88.2077 83.9629 87.7371 85.5511 86.9048L96.677 104.551C97.3593 105.63 98.8151 105.901 99.8386 105.136C100.794 104.422 101 103.075 100.303 102.104L88.0657 85.1196C90.3097 83.0226 91.7155 80.0375 91.7155 76.7259C91.7155 70.3851 86.5746 65.2441 80.2337 65.2441C73.8929 65.2441 68.752 70.3851 68.752 76.7259ZM70.3283 76.7259C70.3283 71.2556 74.7634 66.8176 80.2367 66.8176C85.7099 66.8176 90.145 71.2527 90.145 76.7259C90.145 82.1962 85.7099 86.6342 80.2367 86.6342C74.7664 86.6342 70.3283 82.1992 70.3283 76.7259Z" fill="#484662"/>
</g>
<defs>
<clipPath id="clip0_508_1312">
<rect width="274.98" height="167.974" fill="white"/>
</clipPath>
</defs>
</svg>
