<svg width="161" height="165" viewBox="0 0 161 165" fill="none" xmlns="http://www.w3.org/2000/svg">
<g clip-path="url(#clip0_508_2718)">
<path d="M69.5664 161.732L65.7931 161.731L63.998 147.177L69.5672 147.177L69.5664 161.732Z" fill="#A0616A"/>
<path d="M56.6385 161.646C56.521 161.844 56.459 162.482 56.459 162.713C56.459 163.42 57.0324 163.993 57.7397 163.993H69.4254C69.9079 163.993 70.299 163.602 70.299 163.12V162.633C70.299 162.633 70.8771 161.171 69.687 159.369C69.687 159.369 68.2078 160.78 65.9974 158.569L65.3456 157.389L60.6275 160.839L58.0122 161.161C57.4401 161.232 56.9328 161.15 56.6385 161.646Z" fill="#2F2E41"/>
<path d="M52.6621 161.732L48.8888 161.731L47.0938 147.177L52.6629 147.177L52.6621 161.732Z" fill="#A0616A"/>
<path d="M39.7342 161.646C39.6167 161.844 39.5547 162.482 39.5547 162.713C39.5547 163.42 40.1281 163.993 40.8354 163.993H52.5211C53.0036 163.993 53.3948 163.602 53.3948 163.12V162.633C53.3948 162.633 53.9728 161.171 52.7827 159.369C52.7827 159.369 51.3035 160.78 49.0931 158.569L48.4413 157.389L43.7232 160.839L41.1079 161.161C40.5358 161.232 40.0285 161.15 39.7342 161.646Z" fill="#2F2E41"/>
<path d="M69.891 70.4199L73.404 79.4222L70.6594 151.33H62.9746L56.0583 86.4483L54.4115 151.55L46.9462 151.33L38.8223 79.0928L44.2017 72.6156L69.891 70.4199Z" fill="#2F2E41"/>
<path d="M53.3145 19.3706L62.5363 18.7119L65.3907 23.3228L73.9538 25.7381L70.77 48.0241L74.1733 81.2884C74.1733 81.2884 61.8776 79.5319 60.9993 83.045C60.1211 86.558 38.6035 79.5319 38.6035 79.5319L45.959 56.8067L45.3003 39.0218L43.3242 28.7022L52.3264 24.5304L53.3145 19.3706Z" fill="#E6E6E6"/>
<path d="M49.1423 25.9575C49.1423 25.9575 41.7937 25.8477 40.8022 28.9217C39.8107 31.9956 36.5172 53.2936 36.5172 53.2936L33.9922 62.6252L45.2999 57.0262L42.8846 53.2996L50.789 38.1435L49.1423 25.9575Z" fill="#E6E6E6"/>
<path d="M53.6369 60.1005C54.852 60.1017 55.9816 59.4014 56.454 58.282C56.8112 57.4354 56.7775 56.6231 56.5102 55.9267C56.5962 55.8911 56.6815 55.854 56.7696 55.8225C56.6402 55.77 56.5144 55.7108 56.3888 55.6515C55.9511 54.7791 55.1119 54.146 54.1125 53.9923C52.8744 52.6661 52.1135 50.8892 52.1055 48.9335C52.0892 44.9029 55.3588 41.5362 59.3882 41.4395C59.4199 41.4387 59.4516 41.4382 59.4832 41.4378C61.2876 41.417 62.9244 42.4263 63.8386 43.9821C64.372 44.8899 65.3577 45.4993 66.4871 45.4993C67.3517 45.4993 68.1317 45.1419 68.6892 44.5669C69.9039 43.3142 71.4249 42.3821 73.1463 42.0961C74.2767 41.9083 75.4467 41.8375 76.6437 41.897C84.838 42.3043 91.8878 49.5668 92.0628 57.7693C92.2577 66.9052 84.9102 74.3723 75.8187 74.3723C71.088 74.3723 66.8317 72.3493 63.8632 69.1221C62.5453 67.6894 60.6985 66.8869 58.752 66.9067C58.7322 66.9069 58.7123 66.907 58.6925 66.907C55.5396 66.907 52.9837 64.3512 52.9837 61.1983C52.9837 61.0235 52.9924 60.8507 53.0087 60.6802C53.0392 60.3614 53.3166 60.1002 53.6369 60.1005Z" fill="#FF6519"/>
<path d="M159.833 120.897C159.434 120.224 157.708 120.944 157.391 120.334C157.075 119.726 158.678 118.799 159.594 116.683C159.759 116.301 160.8 113.895 160.03 113.153C158.569 111.746 151.886 117.552 149.547 115.652C149.034 115.235 148.675 114.403 147.122 113.051C146.504 112.514 146.13 112.271 145.768 112.361C145.255 112.489 145.214 113.176 144.664 114.527C143.839 116.552 143.351 116.43 142.87 118.045C142.513 119.245 142.594 119.942 142.174 120.078C141.58 120.27 141.033 118.998 140.28 119.112C139.511 119.228 139.046 120.71 138.899 121.819C138.624 123.9 139.388 125.274 139.812 126.718C140.272 128.287 140.546 130.674 139.482 134.053L128.959 163.703C131.282 157.619 138.009 140.941 140.836 134.743C141.652 132.954 142.553 131.139 144.403 130.423C146.184 129.733 148.63 130.145 151.749 129.394C152.113 129.306 153.123 129.049 153.251 128.454C153.356 127.963 152.761 127.689 152.853 127.228C152.975 126.611 154.144 126.603 155.581 125.891C156.594 125.389 157.225 124.791 157.768 124.278C157.931 124.123 160.364 121.792 159.833 120.897Z" fill="#F2F2F2"/>
<path d="M118.431 136.505C117.986 136.507 117.841 137.562 117.45 137.541C117.06 137.521 117.068 136.467 116.294 135.407C116.154 135.215 115.274 134.01 114.687 134.174C113.575 134.485 114.496 139.441 112.889 140.04C112.536 140.172 112.024 140.108 110.913 140.48C110.47 140.629 110.243 140.742 110.183 140.946C110.098 141.234 110.424 141.453 110.928 142.112C111.684 143.102 111.483 143.306 112.137 144.008C112.623 144.529 112.989 144.691 112.934 144.936C112.857 145.283 112.075 145.185 111.913 145.587C111.748 145.998 112.341 146.654 112.843 147.046C113.786 147.781 114.68 147.802 115.511 148.011C116.414 148.238 117.665 148.793 119.016 150.289L130.532 164.009C128.216 161.114 121.972 153 119.745 149.824C119.103 148.908 118.472 147.942 118.654 146.827C118.83 145.754 119.738 144.672 120.269 142.925C120.331 142.721 120.496 142.15 120.241 141.916C120.03 141.723 119.724 141.936 119.524 141.758C119.257 141.52 119.59 140.944 119.655 140.033C119.701 139.391 119.59 138.909 119.494 138.494C119.466 138.369 119.023 136.503 118.431 136.505Z" fill="#F2F2F2"/>
<path d="M127.311 138.499L127.043 136.104L127.166 135.923C127.733 135.084 128.022 134.264 128.025 133.486C128.026 133.362 128.02 133.239 128.014 133.113C127.991 132.613 127.962 131.992 128.286 131.269C128.467 130.865 128.977 129.931 129.743 130.047C129.95 130.076 130.106 130.171 130.224 130.282C130.242 130.254 130.26 130.226 130.279 130.196C130.517 129.832 130.706 129.676 130.888 129.525C131.028 129.41 131.173 129.291 131.399 129.009C131.499 128.885 131.576 128.776 131.642 128.685C131.84 128.409 132.099 128.079 132.555 128.085C133.043 128.108 133.299 128.512 133.468 128.779C133.77 129.255 133.907 129.598 133.998 129.826C134.031 129.909 134.069 130.003 134.088 130.032C134.245 130.263 135.523 130.047 136.005 129.968C137.086 129.788 138.022 129.632 138.407 130.314C138.684 130.802 138.478 131.447 137.779 132.283C137.561 132.543 137.329 132.74 137.124 132.895C137.294 132.997 137.447 133.153 137.509 133.398C137.654 133.978 137.155 134.56 136.026 135.129C135.746 135.271 135.369 135.461 134.84 135.552C134.591 135.595 134.366 135.605 134.175 135.611C134.17 135.722 134.144 135.842 134.077 135.966C133.879 136.33 133.466 136.503 132.844 136.462C132.16 136.426 131.596 136.295 131.099 136.181C130.665 136.081 130.291 135.997 129.997 136.017C129.453 136.06 129.033 136.496 128.541 137.062L127.311 138.499Z" fill="#F2F2F2"/>
<path d="M128.555 124.244L126.307 125.111L126.101 125.039C125.145 124.703 124.279 124.631 123.525 124.825C123.406 124.856 123.287 124.893 123.167 124.931C122.69 125.08 122.097 125.265 121.315 125.136C120.878 125.062 119.845 124.806 119.763 124.035C119.738 123.829 119.791 123.654 119.868 123.511C119.837 123.501 119.805 123.491 119.771 123.48C119.358 123.341 119.16 123.198 118.968 123.06C118.821 122.954 118.669 122.845 118.339 122.697C118.194 122.632 118.069 122.585 117.964 122.545C117.647 122.423 117.262 122.256 117.152 121.813C117.051 121.335 117.376 120.986 117.591 120.754C117.975 120.341 118.273 120.121 118.47 119.976C118.542 119.923 118.623 119.863 118.646 119.837C118.83 119.626 118.297 118.445 118.099 117.999C117.65 116.999 117.262 116.133 117.824 115.587C118.225 115.196 118.901 115.231 119.887 115.696C120.194 115.84 120.444 116.014 120.646 116.174C120.701 115.984 120.814 115.796 121.035 115.674C121.559 115.386 122.248 115.721 123.085 116.669C123.293 116.904 123.573 117.221 123.795 117.709C123.9 117.94 123.967 118.154 124.021 118.338C124.129 118.314 124.252 118.308 124.389 118.343C124.791 118.442 125.064 118.797 125.181 119.409C125.32 120.08 125.337 120.659 125.352 121.169C125.366 121.614 125.379 121.997 125.473 122.276C125.654 122.791 126.182 123.087 126.853 123.42L128.555 124.244Z" fill="#F2F2F2"/>
<path d="M127.311 117.191L127.043 114.797L127.166 114.615C127.733 113.776 128.022 112.956 128.025 112.178C128.026 112.055 128.02 111.931 128.014 111.805C127.991 111.306 127.962 110.685 128.286 109.961C128.467 109.558 128.977 108.624 129.743 108.739C129.95 108.768 130.106 108.863 130.224 108.974C130.242 108.946 130.26 108.918 130.279 108.888C130.517 108.524 130.706 108.368 130.888 108.218C131.028 108.102 131.173 107.983 131.399 107.701C131.499 107.577 131.576 107.469 131.642 107.377C131.84 107.101 132.099 106.772 132.555 106.777C133.043 106.801 133.299 107.204 133.468 107.471C133.77 107.947 133.907 108.291 133.998 108.518C134.031 108.602 134.069 108.695 134.088 108.724C134.245 108.955 135.523 108.739 136.005 108.661C137.086 108.48 138.022 108.324 138.407 109.006C138.684 109.494 138.478 110.139 137.779 110.975C137.561 111.235 137.329 111.433 137.124 111.588C137.294 111.689 137.447 111.845 137.509 112.091C137.654 112.671 137.155 113.252 136.026 113.821C135.746 113.963 135.369 114.153 134.84 114.244C134.591 114.287 134.366 114.297 134.175 114.303C134.17 114.414 134.144 114.534 134.077 114.658C133.879 115.022 133.466 115.196 132.844 115.154C132.16 115.118 131.596 114.988 131.099 114.873C130.665 114.774 130.291 114.689 129.997 114.709C129.453 114.753 129.033 115.189 128.541 115.754L127.311 117.191Z" fill="#F2F2F2"/>
<path d="M129.761 163.663L129.259 163.349L128.674 163.416C128.665 163.361 128.633 163.237 128.585 163.041C128.324 161.971 127.525 158.713 126.859 153.583C126.395 150.001 126.132 146.319 126.077 142.637C126.023 138.95 126.198 136.158 126.338 133.914C126.443 132.221 126.572 130.61 126.698 129.04C127.033 124.846 127.349 120.884 127.114 116.498C127.062 115.519 126.953 113.481 125.762 111.312C125.071 110.055 124.12 108.938 122.934 107.995L123.671 107.067C124.98 108.11 126.033 109.347 126.8 110.744C128.12 113.148 128.239 115.369 128.296 116.436C128.536 120.899 128.216 124.899 127.877 129.134C127.752 130.698 127.624 132.302 127.519 133.988C127.38 136.211 127.207 138.978 127.261 142.619C127.314 146.257 127.574 149.894 128.033 153.43C128.691 158.496 129.477 161.705 129.736 162.759C129.873 163.322 129.902 163.44 129.761 163.663Z" fill="#F2F2F2"/>
<path d="M120.762 109.875C120.713 109.875 120.664 109.874 120.614 109.871C119.606 109.817 118.673 109.213 117.839 108.078C117.449 107.544 117.249 106.935 116.85 105.72C116.788 105.532 116.487 104.582 116.305 103.275C116.185 102.42 116.2 102.063 116.369 101.747C116.557 101.396 116.861 101.151 117.203 100.986C117.188 100.872 117.201 100.756 117.25 100.636C117.451 100.143 117.988 100.208 118.278 100.239C118.425 100.257 118.608 100.282 118.806 100.271C119.117 100.256 119.284 100.164 119.537 100.025C119.779 99.892 120.08 99.7267 120.527 99.6354C121.408 99.4516 122.146 99.7013 122.389 99.7833C123.67 100.21 124.301 101.205 125.032 102.358C125.177 102.589 125.677 103.431 126.007 104.584C126.245 105.417 126.212 105.787 126.14 106.062C125.994 106.627 125.651 106.951 124.777 107.665C123.865 108.413 123.407 108.788 123.014 109.015C122.099 109.544 121.525 109.875 120.762 109.875Z" fill="#F2F2F2"/>
<path d="M80.6495 55.2698L25.9774 44.9502L25.7578 48.9024L79.9908 61.8568L80.6495 55.2698Z" fill="#FF6519"/>
<path d="M26.6371 45.6092L25.9784 44.9505C25.9784 44.9505 23.124 43.6331 23.124 43.4135C23.124 43.2761 18.9091 41.8484 15.7556 40.7994C13.9944 40.2136 12.1345 41.3729 11.8838 43.2119L11.4886 46.1098C11.2523 47.8426 12.5597 49.4023 14.3071 49.4722L22.0262 49.781L25.7588 48.9027L26.6371 45.6092Z" fill="#FF6519"/>
<path d="M80.5393 56.4775L80.6697 55.9305L25.9626 45.4717L25.8672 46.1578L80.5393 56.4775Z" fill="#3F3D56"/>
<path d="M80.414 57.5165L80.5393 56.917L25.9031 46.5547L25.8672 47.2561L80.414 57.5165Z" fill="#3F3D56"/>
<path d="M80.2898 58.7611L80.3208 57.7951L25.8613 47.3428L25.8683 47.9146L80.2898 58.7611Z" fill="#3F3D56"/>
<path d="M80.1431 60.2058L80.1005 59.3312L25.7811 48.1299L25.7344 48.3443L80.1431 60.2058Z" fill="#3F3D56"/>
<path d="M80.1424 61.0823L80.1008 60.429L25.8631 48.4922L25.8145 48.7062L80.1424 61.0823Z" fill="#3F3D56"/>
<path d="M48.7278 24.5581L51.4482 23.0518L52.6282 47.1462L52.2167 50.1103C52.2167 50.1103 45.3488 31.1724 48.7278 24.5581Z" fill="#3F3D56"/>
<path d="M58.0351 17.0643C61.7942 17.0643 64.8417 14.0169 64.8417 10.2577C64.8417 6.49858 61.7942 3.45117 58.0351 3.45117C54.2759 3.45117 51.2285 6.49858 51.2285 10.2577C51.2285 14.0169 54.2759 17.0643 58.0351 17.0643Z" fill="#A0616A"/>
<path d="M52.2167 14.3208L53.844 15.6198L51.9972 8.61204C51.9972 8.61204 57.157 8.50226 57.5961 5.64789C57.5961 5.64789 61.6581 5.53811 62.7559 5.53811C63.8538 5.53811 64.3491 12.8023 64.3491 12.8023C64.3491 12.8023 66.4886 6.85551 64.2929 3.78157C62.0972 0.707639 62.8657 2.57396 62.4266 1.47612C61.9875 0.378291 57.4863 -0.631371 54.632 0.488074C51.7776 1.60752 51.6678 3.20327 50.7896 3.21796C49.9113 3.23266 46.8373 7.62399 49.6917 11.1371C52.5461 14.6501 52.2167 14.3208 52.2167 14.3208Z" fill="#2F2E41"/>
<path d="M73.0102 58.9871C73.817 58.3433 74.4115 57.5708 74.7465 56.8071L82.8194 51.1603L80.02 47.3975L72.1323 53.5308C71.3133 53.6879 70.4281 54.0961 69.6213 54.7398C67.7782 56.2104 67.0428 58.3533 67.9786 59.5262C68.9144 60.699 71.1672 60.4577 73.0102 58.9871Z" fill="#A0616A"/>
<path d="M42.0832 50.3976C41.4845 51.2384 41.1254 52.1447 41.0133 52.971L34.8047 60.6203L38.531 63.4681L44.4278 55.4021C45.172 55.0258 45.9109 54.3899 46.5095 53.5491C47.8771 51.6284 47.9948 49.3658 46.7725 48.4956C45.5502 47.6253 43.4507 48.4769 42.0832 50.3976Z" fill="#A0616A"/>
<path d="M70.44 27.1656C70.44 27.1656 72.4161 23.8721 74.3922 25.8482C75.9559 27.4119 84.5312 37.362 88.0424 41.4471C89.0107 42.5737 89.5423 44.009 89.5423 45.4945C89.5423 47.7923 88.2737 49.9023 86.2443 50.9799L75.2705 56.8071L72.1965 52.1962L81.6379 45.3897L67.1465 37.4852L70.44 27.1656Z" fill="#E6E6E6"/>
<path d="M35.7401 57.516L33.9922 62.6253L39.0422 65.2601L42.8846 62.6253L45.2999 57.0263L38.164 54.9404" fill="#E6E6E6"/>
<path d="M117.382 8.54785L100.794 13.0538L103.207 23.8172C102.427 23.2936 101.488 22.9875 100.478 22.9875C97.7685 22.9875 95.5723 25.1838 95.5723 27.893C95.5723 30.6023 97.7685 32.7986 100.478 32.7986C103.187 32.7986 105.383 30.6023 105.383 27.893C105.383 26.9514 105.113 26.0748 104.653 25.3277L102.74 16.7941L117.05 12.2951L118.359 18.6518C117.573 18.1174 116.625 17.8045 115.603 17.8045C112.894 17.8045 110.698 20.0008 110.698 22.7101C110.698 25.4194 112.894 27.6157 115.603 27.6157C118.313 27.6157 120.509 25.4194 120.509 22.7101C120.509 21.7584 120.233 20.873 119.764 20.1209L117.382 8.54785Z" fill="#FF6519"/>
<path d="M133.652 18.6084C130.97 18.6084 128.797 20.7819 128.797 23.463C128.797 24.2209 128.976 24.9354 129.285 25.5746L132.056 37.0039L133.629 36.6226L131.491 27.8058C132.143 28.1304 132.874 28.3177 133.652 28.3177C136.333 28.3177 138.506 26.1441 138.506 23.463C138.506 20.7819 136.333 18.6084 133.652 18.6084Z" fill="#FF6519"/>
<path d="M153.408 43.7988L150.657 32.7979L148.987 33.1903L151.139 41.7951C150.477 41.4955 149.741 41.3233 148.963 41.3233C146.116 41.3233 143.809 43.5608 143.809 46.3209C143.809 49.0809 146.116 51.3184 148.963 51.3184C151.81 51.3184 154.117 49.0809 154.117 46.3209C154.117 45.3997 153.856 44.5397 153.408 43.7988Z" fill="#FF6519"/>
<path d="M160.603 164.061C160.603 164.248 160.451 164.4 160.264 164.4H0V163.722H160.264C160.451 163.722 160.603 163.874 160.603 164.061Z" fill="#E6E6E6"/>
</g>
<defs>
<clipPath id="clip0_508_2718">
<rect width="160.603" height="164.4" fill="white"/>
</clipPath>
</defs>
</svg>
