<svg width="230" height="225" viewBox="0 0 230 225" fill="none" xmlns="http://www.w3.org/2000/svg">
<g clip-path="url(#clip0_508_1408)">
<path d="M146.013 50.4909H84.0382C82.6259 50.4926 81.2719 51.0544 80.2733 52.0531C79.2746 53.0517 78.7128 54.4057 78.7111 55.818V193.558L78.0008 193.775L62.7974 198.431C62.0769 198.65 61.2986 198.575 60.6334 198.222C59.9683 197.868 59.4706 197.265 59.2497 196.545L14.0263 48.8253C13.8062 48.1048 13.8812 47.3263 14.2349 46.6611C14.5885 45.9958 15.1918 45.4982 15.9121 45.2775L39.3406 38.1037L107.261 17.314L130.689 10.1402C131.046 10.0304 131.42 9.9921 131.792 10.0273C132.163 10.0626 132.524 10.1707 132.853 10.3455C133.183 10.5204 133.475 10.7584 133.712 11.0462C133.95 11.3339 134.128 11.6657 134.237 12.0224L145.797 49.7806L146.013 50.4909Z" fill="#F2F2F2"/>
<path d="M159.537 49.781L145.605 4.2737C145.373 3.51547 144.994 2.81034 144.49 2.1986C143.985 1.58687 143.365 1.08053 142.665 0.708504C141.965 0.336483 141.198 0.106071 140.409 0.0304451C139.62 -0.045181 138.823 0.0354603 138.065 0.267753L105.126 10.3501L37.2099 31.1434L4.27093 41.2293C2.74076 41.6992 1.45952 42.757 0.708458 44.1705C-0.0426083 45.5841 -0.202145 47.2379 0.264872 48.7689L47.8817 204.294C48.2611 205.53 49.0266 206.612 50.0659 207.381C51.1052 208.15 52.3636 208.565 53.6564 208.567C54.2547 208.567 54.8497 208.477 55.4213 208.3L78.001 201.389L78.7113 201.169V200.427L78.001 200.643L55.2118 207.622C53.8612 208.034 52.4024 207.893 51.1554 207.23C49.9084 206.568 48.9751 205.438 48.5601 204.088L0.946882 48.5594C0.741289 47.8906 0.669635 47.1879 0.736019 46.4914C0.802403 45.7949 1.00552 45.1184 1.33374 44.5005C1.66197 43.8826 2.10886 43.3356 2.64881 42.8906C3.18876 42.4457 3.81117 42.1117 4.4804 41.9076L37.4194 31.8217L105.336 11.032L138.275 0.946072C138.783 0.791161 139.31 0.712175 139.841 0.71168C140.98 0.714237 142.088 1.08143 143.003 1.75949C143.919 2.43754 144.593 3.39082 144.927 4.47969L158.795 49.7811L159.015 50.4913H159.754L159.537 49.781Z" fill="#3F3D56"/>
<path d="M43.5695 45.3942C42.885 45.3937 42.2187 45.1738 41.6683 44.7669C41.1179 44.36 40.7124 43.7874 40.5113 43.1331L35.937 28.1918C35.8141 27.7905 35.7714 27.3688 35.8115 26.951C35.8515 26.5332 35.9735 26.1273 36.1704 25.7566C36.3673 25.386 36.6353 25.0577 36.9592 24.7906C37.283 24.5235 37.6562 24.3228 38.0576 24.2L100.54 5.07094C101.351 4.8236 102.226 4.90796 102.975 5.3055C103.723 5.70304 104.283 6.38128 104.532 7.19137L109.106 22.1328C109.354 22.9434 109.269 23.8189 108.872 24.5673C108.474 25.3157 107.796 25.8758 106.986 26.1248L44.5033 45.2539C44.2007 45.3467 43.886 45.394 43.5695 45.3942Z" fill="#FF6519"/>
<path d="M67.5305 15.9653C71.4532 15.9653 74.6332 12.7853 74.6332 8.86252C74.6332 4.93978 71.4532 1.75977 67.5305 1.75977C63.6077 1.75977 60.4277 4.93978 60.4277 8.86252C60.4277 12.7853 63.6077 15.9653 67.5305 15.9653Z" fill="#6C63FF"/>
<path d="M67.5309 13.3596C70.0149 13.3596 72.0286 11.3459 72.0286 8.86194C72.0286 6.37794 70.0149 4.36426 67.5309 4.36426C65.0469 4.36426 63.0332 6.37794 63.0332 8.86194C63.0332 11.3459 65.0469 13.3596 67.5309 13.3596Z" fill="white"/>
<path d="M214.018 206.752H93.9816C93.1812 206.751 92.414 206.433 91.848 205.867C91.2821 205.301 90.9638 204.534 90.9629 203.733V59.9025C90.9638 59.1021 91.2821 58.3348 91.848 57.7689C92.4139 57.203 93.1812 56.8847 93.9816 56.8838H214.018C214.818 56.8847 215.586 57.203 216.152 57.769C216.717 58.3349 217.036 59.1021 217.037 59.9025V203.733C217.036 204.534 216.717 205.301 216.152 205.867C215.586 206.433 214.818 206.751 214.018 206.752Z" fill="#E6E6E6"/>
<path d="M158.796 49.7812H84.0393C82.4388 49.7835 80.9045 50.4203 79.7728 51.5521C78.641 52.6838 78.0042 54.2181 78.002 55.8186V200.644L78.7122 200.427V55.8186C78.7139 54.4063 79.2757 53.0523 80.2744 52.0537C81.273 51.055 82.627 50.4932 84.0393 50.4915H159.016L158.796 49.7812ZM223.964 49.7812H84.0393C82.4388 49.7835 80.9045 50.4203 79.7728 51.5521C78.641 52.6838 78.0042 54.2181 78.002 55.8186V218.472C78.0042 220.072 78.641 221.606 79.7728 222.738C80.9045 223.87 82.4388 224.507 84.0393 224.509H223.964C225.564 224.507 227.098 223.87 228.23 222.738C229.362 221.606 229.999 220.072 230.001 218.472V55.8186C229.999 54.2181 229.362 52.6838 228.23 51.5521C227.098 50.4203 225.564 49.7835 223.964 49.7812ZM229.291 218.472C229.289 219.884 228.727 221.238 227.728 222.237C226.73 223.235 225.376 223.797 223.964 223.799H84.0393C82.627 223.797 81.273 223.235 80.2744 222.237C79.2757 221.238 78.7139 219.884 78.7122 218.472V55.8186C78.7139 54.4063 79.2757 53.0523 80.2744 52.0537C81.273 51.055 82.627 50.4932 84.0393 50.4915H223.964C225.376 50.4932 226.73 51.055 227.728 52.0537C228.727 53.0523 229.289 54.4063 229.291 55.8186V218.472Z" fill="#3F3D56"/>
<path d="M186.674 65.4072H121.329C120.482 65.4063 119.669 65.0692 119.07 64.47C118.471 63.8708 118.134 63.0584 118.133 62.211V46.5849C118.134 45.7375 118.471 44.9251 119.07 44.3259C119.669 43.7267 120.482 43.3896 121.329 43.3887H186.674C187.522 43.3896 188.334 43.7267 188.933 44.3259C189.533 44.9251 189.87 45.7375 189.871 46.5849V62.211C189.87 63.0584 189.533 63.8708 188.933 64.47C188.334 65.0692 187.522 65.4063 186.674 65.4072Z" fill="#FF6519"/>
<path d="M154.001 44.4536C157.924 44.4536 161.104 41.2735 161.104 37.3508C161.104 33.4281 157.924 30.248 154.001 30.248C150.078 30.248 146.898 33.4281 146.898 37.3508C146.898 41.2735 150.078 44.4536 154.001 44.4536Z" fill="#6C63FF"/>
<path d="M154 41.6779C156.389 41.6779 158.326 39.7409 158.326 37.3516C158.326 34.9623 156.389 33.0254 154 33.0254C151.611 33.0254 149.674 34.9623 149.674 37.3516C149.674 39.7409 151.611 41.6779 154 41.6779Z" fill="white"/>
</g>
<defs>
<clipPath id="clip0_508_1408">
<rect width="230" height="224.509" fill="white"/>
</clipPath>
</defs>
</svg>
