<svg width="184" height="166" viewBox="0 0 184 166" fill="none" xmlns="http://www.w3.org/2000/svg">
<g clip-path="url(#clip0_508_1213)">
<path d="M94.2322 0.359868L88.2451 1.9038L14.4836 20.9254L8.49659 22.4694C5.59055 23.2223 3.10183 25.0971 1.57643 27.6827C0.0510254 30.2682 -0.386488 33.3533 0.359874 36.261L26.321 136.932C27.0739 139.838 28.9488 142.327 31.5343 143.853C34.1199 145.378 37.2049 145.815 40.1126 145.069L40.1281 145.065L125.833 122.964L125.848 122.96C128.754 122.207 131.243 120.332 132.768 117.746C134.294 115.161 134.731 112.076 133.985 109.168L108.024 8.49663C107.271 5.59059 105.396 3.10186 102.81 1.57645C100.225 0.051034 97.1399 -0.386489 94.2322 0.359868Z" fill="#F2F2F2"/>
<path d="M95.0472 3.51616L87.956 5.34485L16.4027 23.797L9.31154 25.6257C7.24208 26.1618 5.4698 27.497 4.38351 29.3382C3.29723 31.1794 2.98566 33.3764 3.51716 35.447L29.4783 136.118C30.0144 138.188 31.3496 139.96 33.1908 141.046C35.032 142.133 37.229 142.444 39.2996 141.913L39.3151 141.909L125.02 119.807L125.035 119.803C127.105 119.267 128.877 117.932 129.963 116.091C131.049 114.249 131.361 112.053 130.83 109.982L104.868 9.31055C104.332 7.24111 102.997 5.46884 101.156 4.38256C99.3148 3.29627 97.1179 2.98469 95.0472 3.51616Z" fill="white"/>
<path d="M89.6928 36.1172L46.3369 47.2979C45.8526 47.4227 45.3386 47.3501 44.9079 47.096C44.4772 46.8419 44.1651 46.4271 44.0402 45.9429C43.9153 45.4586 43.9879 44.9446 44.242 44.5139C44.4962 44.0832 44.9109 43.7711 45.3952 43.6462L88.7511 32.4656C89.2351 32.3412 89.7488 32.4141 90.1791 32.6683C90.6095 32.9224 90.9213 33.337 91.0461 33.821C91.1709 34.3049 91.0985 34.8186 90.8447 35.2492C90.591 35.6798 90.1766 35.992 89.6928 36.1172Z" fill="#F2F2F2"/>
<path d="M98.8122 40.3364L47.9248 53.4593C47.4405 53.5841 46.9265 53.5115 46.4958 53.2574C46.0651 53.0033 45.753 52.5885 45.6281 52.1043C45.5032 51.62 45.5758 51.106 45.8299 50.6753C46.084 50.2446 46.4988 49.9325 46.9831 49.8076L97.8705 36.6847C98.3548 36.5599 98.8688 36.6325 99.2995 36.8866C99.7302 37.1407 100.042 37.5555 100.167 38.0397C100.292 38.524 100.22 39.038 99.9654 39.4687C99.7113 39.8994 99.2965 40.2115 98.8122 40.3364Z" fill="#F2F2F2"/>
<path d="M96.8139 63.7319L53.458 74.9125C53.2182 74.9744 52.9686 74.9884 52.7234 74.9537C52.4782 74.9191 52.2423 74.8365 52.029 74.7107C51.8157 74.5849 51.6294 74.4183 51.4805 74.2204C51.3316 74.0226 51.2231 73.7973 51.1613 73.5575C51.0995 73.3178 51.0855 73.0682 51.1201 72.823C51.1547 72.5778 51.2373 72.3418 51.3631 72.1286C51.489 71.9153 51.6556 71.7289 51.8534 71.58C52.0513 71.4311 52.2765 71.3227 52.5163 71.2609L95.8722 60.0802C96.1119 60.0184 96.3616 60.0044 96.6067 60.039C96.8519 60.0737 97.0879 60.1563 97.3011 60.2821C97.5144 60.4079 97.7008 60.5745 97.8497 60.7724C97.9986 60.9702 98.107 61.1955 98.1689 61.4352C98.2307 61.675 98.2447 61.9246 98.2101 62.1698C98.1754 62.415 98.0928 62.6509 97.967 62.8642C97.8412 63.0775 97.6746 63.2639 97.4767 63.4127C97.2789 63.5616 97.0536 63.6701 96.8139 63.7319Z" fill="#F2F2F2"/>
<path d="M105.933 67.9516L55.0459 81.0745C54.8061 81.1363 54.5565 81.1503 54.3113 81.1157C54.0661 81.0811 53.8302 80.9985 53.6169 80.8727C53.4036 80.7468 53.2172 80.5802 53.0684 80.3824C52.9195 80.1845 52.811 79.9593 52.7492 79.7195C52.6874 79.4797 52.6734 79.2301 52.708 78.985C52.7426 78.7398 52.8252 78.5038 52.951 78.2905C53.0768 78.0773 53.2434 77.8909 53.4413 77.742C53.6392 77.5931 53.8644 77.4847 54.1042 77.4228L104.992 64.3C105.476 64.1751 105.99 64.2477 106.421 64.5018C106.851 64.7559 107.163 65.1707 107.288 65.655C107.413 66.1392 107.341 66.6532 107.086 67.0839C106.832 67.5146 106.418 67.8268 105.933 67.9516Z" fill="#F2F2F2"/>
<path d="M103.934 91.3481L60.5778 102.529C60.0937 102.653 59.58 102.58 59.1495 102.326C58.7191 102.072 58.4072 101.657 58.2824 101.173C58.1576 100.689 58.2301 100.176 58.4839 99.745C58.7377 99.3144 59.1522 99.0022 59.6361 98.8771L102.992 87.6965C103.476 87.5716 103.99 87.6442 104.421 87.8983C104.852 88.1524 105.164 88.5672 105.289 89.0514C105.414 89.5357 105.341 90.0497 105.087 90.4804C104.833 90.9111 104.418 91.2232 103.934 91.3481Z" fill="#F2F2F2"/>
<path d="M113.056 95.5679L62.1686 108.691C61.9287 108.753 61.679 108.767 61.4336 108.733C61.1883 108.698 60.9522 108.616 60.7387 108.49C60.5253 108.364 60.3387 108.197 60.1897 107.999C60.0407 107.801 59.9322 107.576 59.8703 107.336C59.8084 107.096 59.7944 106.846 59.8291 106.601C59.8638 106.356 59.9466 106.12 60.0725 105.906C60.1985 105.693 60.3653 105.507 60.5634 105.358C60.7615 105.209 60.9869 105.101 61.2269 105.039L112.114 91.9162C112.599 91.7913 113.113 91.8639 113.543 92.118C113.974 92.3721 114.286 92.7869 114.411 93.2712C114.536 93.7554 114.463 94.2694 114.209 94.7001C113.955 95.1309 113.54 95.443 113.056 95.5679Z" fill="#F2F2F2"/>
<path d="M38.9344 58.7612L23.5912 62.718C23.359 62.7776 23.1126 62.7426 22.9062 62.6208C22.6997 62.499 22.55 62.3003 22.4899 62.0682L18.9679 48.4106C18.9083 48.1784 18.9432 47.9321 19.065 47.7256C19.1868 47.5192 19.3855 47.3695 19.6176 47.3094L34.9608 43.3526C35.193 43.293 35.4394 43.328 35.6458 43.4498C35.8523 43.5716 36.002 43.7703 36.0621 44.0024L39.5841 57.66C39.6437 57.8922 39.6088 58.1385 39.487 58.345C39.3652 58.5514 39.1664 58.7011 38.9344 58.7612Z" fill="#E6E6E6"/>
<path d="M46.0555 86.3765L30.7123 90.3332C30.4801 90.3928 30.2337 90.3579 30.0273 90.2361C29.8208 90.1143 29.6711 89.9155 29.611 89.6835L26.089 76.0259C26.0294 75.7937 26.0643 75.5473 26.1861 75.3409C26.3079 75.1344 26.5066 74.9847 26.7387 74.9246L42.0819 70.9679C42.3141 70.9083 42.5604 70.9432 42.7669 71.065C42.9734 71.1868 43.1231 71.3856 43.1832 71.6176L46.7052 85.2752C46.7648 85.5074 46.7299 85.7537 46.6081 85.9602C46.4863 86.1667 46.2875 86.3164 46.0555 86.3765Z" fill="#E6E6E6"/>
<path d="M53.1766 113.993L37.8334 117.949C37.6012 118.009 37.3548 117.974 37.1484 117.852C36.9419 117.73 36.7922 117.532 36.7321 117.3L33.2101 103.642C33.1505 103.41 33.1854 103.164 33.3072 102.957C33.429 102.751 33.6277 102.601 33.8598 102.541L49.203 98.5841C49.4352 98.5245 49.6815 98.5594 49.888 98.6812C50.0945 98.803 50.2442 99.0018 50.3043 99.2338L53.8263 112.891C53.8859 113.124 53.851 113.37 53.7292 113.576C53.6074 113.783 53.4086 113.933 53.1766 113.993Z" fill="#E6E6E6"/>
<path d="M154.029 25.8789H65.4889C62.4869 25.8823 59.6089 27.0763 57.4861 29.199C55.3634 31.3218 54.1694 34.1998 54.166 37.2018V141.167C54.1694 144.169 55.3634 147.047 57.4861 149.169C59.6089 151.292 62.4869 152.486 65.4889 152.49H154.029C157.031 152.486 159.909 151.292 162.032 149.169C164.155 147.047 165.349 144.169 165.352 141.167V37.2018C165.349 34.1998 164.155 31.3218 162.032 29.199C159.909 27.0763 157.031 25.8823 154.029 25.8789Z" fill="#E6E6E6"/>
<path d="M154.028 29.1387H65.4871C63.3494 29.1411 61.2998 29.9914 59.7882 31.503C58.2765 33.0146 57.4262 35.0642 57.4238 37.202V141.167C57.4262 143.305 58.2765 145.354 59.7882 146.866C61.2998 148.377 63.3494 149.228 65.4871 149.23H154.028C156.165 149.228 158.215 148.377 159.727 146.866C161.238 145.354 162.089 143.305 162.091 141.167V37.202C162.089 35.0642 161.238 33.0147 159.727 31.503C158.215 29.9914 156.165 29.1411 154.028 29.1387Z" fill="white"/>
<path d="M163.33 165.139C174.745 165.139 183.999 155.885 183.999 144.469C183.999 133.054 174.745 123.8 163.33 123.8C151.914 123.8 142.66 133.054 142.66 144.469C142.66 155.885 151.914 165.139 163.33 165.139Z" fill="#FF6519"/>
<path d="M173.217 141.773H166.027V134.584C166.027 133.869 165.743 133.183 165.238 132.677C164.732 132.172 164.046 131.888 163.331 131.888C162.616 131.888 161.931 132.172 161.425 132.677C160.919 133.183 160.635 133.869 160.635 134.584V141.773H153.446C152.731 141.773 152.045 142.057 151.54 142.563C151.034 143.068 150.75 143.754 150.75 144.469C150.75 145.184 151.034 145.87 151.54 146.376C152.045 146.881 152.731 147.165 153.446 147.165H160.635V154.355C160.635 155.07 160.919 155.755 161.425 156.261C161.931 156.767 162.616 157.051 163.331 157.051C164.046 157.051 164.732 156.767 165.238 156.261C165.743 155.755 166.027 155.07 166.027 154.355V147.165H173.217C173.932 147.165 174.618 146.881 175.123 146.376C175.629 145.87 175.913 145.184 175.913 144.469C175.913 143.754 175.629 143.068 175.123 142.563C174.618 142.057 173.932 141.773 173.217 141.773Z" fill="white"/>
<path d="M140.703 86.2672H95.9287C95.6809 86.2675 95.4355 86.2189 95.2065 86.1243C94.9775 86.0297 94.7693 85.8908 94.594 85.7157C94.4187 85.5406 94.2796 85.3326 94.1847 85.1037C94.0899 84.8748 94.041 84.6295 94.041 84.3817C94.041 84.1339 94.0899 83.8885 94.1847 83.6596C94.2796 83.4307 94.4187 83.2227 94.594 83.0476C94.7693 82.8725 94.9775 82.7337 95.2065 82.639C95.4355 82.5444 95.6809 82.4958 95.9287 82.4961H140.703C141.203 82.4967 141.682 82.6956 142.035 83.0491C142.388 83.4027 142.586 83.8819 142.586 84.3817C142.586 84.8814 142.388 85.3607 142.035 85.7142C141.682 86.0678 141.203 86.2667 140.703 86.2672Z" fill="#E6E6E6"/>
<path d="M148.481 92.6305H95.9287C95.6809 92.6308 95.4355 92.5822 95.2065 92.4876C94.9775 92.3929 94.7693 92.2541 94.594 92.079C94.4187 91.9039 94.2796 91.6959 94.1847 91.467C94.0899 91.2381 94.041 90.9927 94.041 90.7449C94.041 90.4971 94.0899 90.2518 94.1847 90.0229C94.2796 89.794 94.4187 89.586 94.594 89.4109C94.7693 89.2358 94.9775 89.0969 95.2065 89.0023C95.4355 88.9077 95.6809 88.8591 95.9287 88.8594H148.481C148.981 88.8594 149.461 89.058 149.814 89.4116C150.168 89.7653 150.367 90.2449 150.367 90.7449C150.367 91.245 150.168 91.7246 149.814 92.0782C149.461 92.4319 148.981 92.6305 148.481 92.6305Z" fill="#E6E6E6"/>
<path d="M140.703 114.787H95.9287C95.6809 114.787 95.4355 114.738 95.2065 114.644C94.9775 114.549 94.7693 114.41 94.594 114.235C94.4187 114.06 94.2796 113.852 94.1847 113.623C94.0899 113.394 94.041 113.149 94.041 112.901C94.041 112.653 94.0899 112.408 94.1847 112.179C94.2796 111.95 94.4187 111.742 94.594 111.567C94.7693 111.392 94.9775 111.253 95.2065 111.159C95.4355 111.064 95.6809 111.015 95.9287 111.016H140.703C141.203 111.016 141.683 111.214 142.036 111.568C142.39 111.922 142.589 112.401 142.589 112.901C142.589 113.401 142.39 113.881 142.036 114.234C141.683 114.588 141.203 114.787 140.703 114.787Z" fill="#E6E6E6"/>
<path d="M148.481 121.15H95.9287C95.6809 121.15 95.4355 121.102 95.2065 121.007C94.9775 120.912 94.7693 120.774 94.594 120.599C94.4187 120.423 94.2796 120.215 94.1847 119.987C94.0899 119.758 94.041 119.512 94.041 119.264C94.041 119.017 94.0899 118.771 94.1847 118.542C94.2796 118.314 94.4187 118.106 94.594 117.93C94.7693 117.755 94.9775 117.616 95.2065 117.522C95.4355 117.427 95.6809 117.379 95.9287 117.379H148.481C148.729 117.379 148.974 117.427 149.203 117.522C149.432 117.616 149.64 117.755 149.816 117.93C149.991 118.106 150.13 118.314 150.225 118.542C150.32 118.771 150.369 119.017 150.369 119.264C150.369 119.512 150.32 119.758 150.225 119.987C150.13 120.215 149.991 120.423 149.816 120.599C149.64 120.774 149.432 120.912 149.203 121.007C148.974 121.102 148.729 121.15 148.481 121.15Z" fill="#E6E6E6"/>
<path d="M85.8978 95.5201H70.0526C69.8129 95.5199 69.583 95.4245 69.4135 95.255C69.244 95.0855 69.1487 94.8557 69.1484 94.616V80.5116C69.1487 80.2718 69.244 80.042 69.4135 79.8725C69.583 79.703 69.8129 79.6077 70.0526 79.6074H85.8978C86.1375 79.6077 86.3673 79.703 86.5368 79.8725C86.7063 80.042 86.8016 80.2718 86.8019 80.5116V94.616C86.8016 94.8557 86.7063 95.0855 86.5368 95.255C86.3673 95.4245 86.1375 95.5199 85.8978 95.5201Z" fill="#E6E6E6"/>
<path d="M85.8978 124.039H70.0526C69.8129 124.038 69.583 123.943 69.4135 123.774C69.244 123.604 69.1487 123.374 69.1484 123.135V109.03C69.1487 108.79 69.244 108.561 69.4135 108.391C69.583 108.222 69.8129 108.126 70.0526 108.126H85.8978C86.1375 108.126 86.3673 108.222 86.5368 108.391C86.7063 108.561 86.8016 108.79 86.8019 109.03V123.135C86.8016 123.374 86.7063 123.604 86.5368 123.774C86.3673 123.943 86.1375 124.038 85.8978 124.039Z" fill="#E6E6E6"/>
<path d="M140.753 54.5192H107.743C107.243 54.5192 106.763 54.3205 106.41 53.9669C106.056 53.6133 105.857 53.1337 105.857 52.6336C105.857 52.1335 106.056 51.6539 106.41 51.3003C106.763 50.9467 107.243 50.748 107.743 50.748H140.753C141.253 50.748 141.733 50.9467 142.087 51.3003C142.44 51.6539 142.639 52.1335 142.639 52.6336C142.639 53.1337 142.44 53.6133 142.087 53.9669C141.733 54.3205 141.253 54.5192 140.753 54.5192Z" fill="#CCCCCC"/>
<path d="M148.531 60.8834H107.743C107.495 60.8834 107.25 60.8347 107.021 60.7399C106.793 60.6451 106.585 60.5063 106.41 60.3312C106.235 60.1561 106.096 59.9482 106.001 59.7194C105.906 59.4907 105.857 59.2455 105.857 58.9979C105.857 58.7503 105.906 58.5051 106.001 58.2763C106.096 58.0475 106.235 57.8397 106.41 57.6646C106.585 57.4895 106.793 57.3506 107.021 57.2558C107.25 57.1611 107.495 57.1123 107.743 57.1123H148.531C149.031 57.1123 149.511 57.311 149.865 57.6646C150.218 58.0182 150.417 58.4978 150.417 58.9979C150.417 59.498 150.218 59.9776 149.865 60.3312C149.511 60.6848 149.031 60.8834 148.531 60.8834Z" fill="#CCCCCC"/>
<path d="M100.436 68.5953H70.0037C69.764 68.5951 69.5342 68.4997 69.3647 68.3302C69.1952 68.1607 69.0999 67.9309 69.0996 67.6912V43.9403C69.0999 43.7005 69.1952 43.4707 69.3647 43.3012C69.5342 43.1317 69.764 43.0364 70.0037 43.0361H100.436C100.676 43.0364 100.906 43.1317 101.075 43.3012C101.245 43.4707 101.34 43.7005 101.34 43.9403V67.6912C101.34 67.9309 101.245 68.1607 101.075 68.3302C100.906 68.4997 100.676 68.5951 100.436 68.5953Z" fill="#FF6519"/>
</g>
<defs>
<clipPath id="clip0_508_1213">
<rect width="184" height="165.139" fill="white"/>
</clipPath>
</defs>
</svg>
