<svg width="214" height="133" viewBox="0 0 214 133" fill="none" xmlns="http://www.w3.org/2000/svg">
<g clip-path="url(#clip0_508_1621)">
<path d="M20.1234 128.775C21.0677 130.047 22.2382 131.135 23.5764 131.984C23.861 132.164 24.1532 132.335 24.4505 132.492H31.4454C31.3617 132.324 31.2803 132.154 31.2015 131.984C29.0327 127.407 28.3526 122.266 29.2568 117.283C30.161 112.3 32.6041 107.725 36.2427 104.202C32.0146 105.508 28.1068 108.054 25.5507 111.665C24.3087 113.423 23.4254 115.409 22.9514 117.509C22.529 113.309 23.2003 109.072 24.9002 105.208C21.4676 108.001 18.7944 111.825 17.7756 116.129C16.7568 120.436 17.4961 125.215 20.1234 128.775Z" fill="#F0F0F0"/>
<path d="M212.274 71.3956H164.717C164.424 71.3952 164.143 71.2786 163.936 71.0713C163.728 70.8639 163.612 70.5828 163.611 70.2896V40.8706C163.612 40.5774 163.728 40.2963 163.936 40.089C164.143 39.8816 164.424 39.765 164.717 39.7646H212.274C212.568 39.765 212.849 39.8816 213.056 40.089C213.263 40.2963 213.38 40.5774 213.38 40.8706V70.2896C213.38 70.5828 213.263 70.8639 213.056 71.0713C212.849 71.2786 212.568 71.3952 212.274 71.3956Z" fill="white"/>
<path d="M212.274 71.3956H164.717C164.424 71.3952 164.143 71.2786 163.936 71.0713C163.728 70.8639 163.612 70.5828 163.611 70.2896V40.8706C163.612 40.5774 163.728 40.2963 163.936 40.089C164.143 39.8816 164.424 39.765 164.717 39.7646H212.274C212.568 39.765 212.849 39.8816 213.056 40.089C213.263 40.2963 213.38 40.5774 213.38 40.8706V70.2896C213.38 70.5828 213.263 70.8639 213.056 71.0713C212.849 71.2786 212.568 71.3952 212.274 71.3956ZM164.717 40.207C164.541 40.2072 164.373 40.2772 164.248 40.4016C164.124 40.526 164.054 40.6947 164.054 40.8706V70.2896C164.054 70.4655 164.124 70.6342 164.248 70.7586C164.373 70.883 164.541 70.953 164.717 70.9532H212.274C212.45 70.953 212.619 70.883 212.743 70.7586C212.868 70.6342 212.938 70.4655 212.938 70.2896V40.8706C212.938 40.6947 212.868 40.526 212.743 40.4016C212.619 40.2772 212.45 40.2072 212.274 40.207H164.717Z" fill="#3F3D56"/>
<path d="M202.874 49.5894H174.118C173.854 49.5894 173.601 49.4845 173.415 49.2979C173.228 49.1112 173.123 48.858 173.123 48.594C173.123 48.33 173.228 48.0768 173.415 47.8902C173.601 47.7035 173.854 47.5986 174.118 47.5986H202.874C203.138 47.5986 203.391 47.7035 203.578 47.8902C203.764 48.0768 203.869 48.33 203.869 48.594C203.869 48.858 203.764 49.1112 203.578 49.2979C203.391 49.4845 203.138 49.5894 202.874 49.5894Z" fill="#CCCCCC"/>
<path d="M202.874 56.4468H174.118C173.854 56.4468 173.601 56.342 173.415 56.1553C173.228 55.9686 173.123 55.7154 173.123 55.4514C173.123 55.1874 173.228 54.9343 173.415 54.7476C173.601 54.5609 173.854 54.4561 174.118 54.4561H202.874C203.138 54.4561 203.391 54.5609 203.578 54.7476C203.764 54.9343 203.869 55.1874 203.869 55.4514C203.869 55.7154 203.764 55.9686 203.578 56.1553C203.391 56.342 203.138 56.4468 202.874 56.4468Z" fill="#CCCCCC"/>
<path d="M200.313 67.3185C202.278 67.3185 203.87 65.7259 203.87 63.7613C203.87 61.7967 202.278 60.2041 200.313 60.2041C198.348 60.2041 196.756 61.7967 196.756 63.7613C196.756 65.7259 198.348 67.3185 200.313 67.3185Z" fill="#FF6519"/>
<path d="M200.411 62.086V61.7471H200.511V62.086C200.653 62.0922 200.793 62.1262 200.922 62.1863C201.015 62.2302 201.096 62.2974 201.156 62.3814C201.211 62.4592 201.241 62.5524 201.24 62.6479C201.243 62.7176 201.219 62.7858 201.175 62.8396C201.155 62.8641 201.131 62.8839 201.103 62.8974C201.075 62.9109 201.044 62.9179 201.013 62.9176C200.99 62.9181 200.967 62.9138 200.945 62.905C200.924 62.8961 200.904 62.883 200.888 62.8664C200.871 62.8498 200.858 62.83 200.849 62.8081C200.841 62.7863 200.836 62.7628 200.837 62.7393C200.837 62.7063 200.844 62.6736 200.857 62.6434L200.897 62.5587C200.911 62.5233 200.918 62.4853 200.917 62.4472C200.918 62.3881 200.899 62.3304 200.864 62.2833C200.825 62.234 200.772 62.1972 200.712 62.1774C200.647 62.1561 200.58 62.1426 200.511 62.1372V63.3569L200.534 63.3702C200.743 63.4812 200.934 63.6249 201.098 63.7961C201.17 63.8821 201.228 63.9797 201.268 64.0849C201.308 64.1868 201.329 64.2953 201.33 64.4048C201.331 64.5466 201.294 64.6861 201.223 64.8084C201.152 64.9277 201.05 65.0244 200.926 65.0871C200.796 65.1509 200.656 65.1917 200.511 65.2075V65.5709H200.411V65.2142C200.266 65.213 200.122 65.1835 199.987 65.1272C199.854 65.0774 199.735 64.9927 199.645 64.882C199.566 64.7826 199.523 64.6591 199.524 64.5319C199.521 64.4426 199.548 64.355 199.602 64.2833C199.623 64.2523 199.651 64.227 199.684 64.2093C199.717 64.1917 199.754 64.1822 199.791 64.1818C199.814 64.1811 199.836 64.1849 199.857 64.1931C199.878 64.2013 199.897 64.2137 199.913 64.2296C199.929 64.2455 199.941 64.2644 199.949 64.2853C199.957 64.3061 199.961 64.3285 199.961 64.3509C199.953 64.4196 199.924 64.4841 199.878 64.5356C199.854 64.5674 199.834 64.6017 199.817 64.6379C199.805 64.6662 199.8 64.6964 199.8 64.7269C199.801 64.8082 199.828 64.887 199.879 64.9504C199.935 65.0215 200.008 65.0764 200.092 65.1094C200.188 65.1468 200.29 65.165 200.393 65.1629H200.411V63.7069L200.284 63.6333C200.164 63.5635 200.072 63.5055 200.009 63.4594C199.947 63.4147 199.89 63.3639 199.838 63.3078C199.71 63.1714 199.639 62.9911 199.64 62.8039C199.639 62.6874 199.668 62.5727 199.724 62.4706C199.779 62.3688 199.86 62.2831 199.958 62.222C200.095 62.1394 200.251 62.0926 200.411 62.086ZM200.411 62.135C200.325 62.1377 200.24 62.1566 200.16 62.1907C200.081 62.23 200.016 62.293 199.974 62.3709C199.926 62.4557 199.901 62.5517 199.903 62.6491C199.902 62.7678 199.938 62.8838 200.007 62.9806C200.043 63.0333 200.087 63.0806 200.137 63.1209C200.217 63.181 200.302 63.2359 200.389 63.2855L200.411 63.2989V62.135ZM200.511 65.1584C200.569 65.1536 200.626 65.1416 200.68 65.1228C200.724 65.1056 200.766 65.0816 200.802 65.0514C200.871 64.9928 200.924 64.9181 200.958 64.8341C200.996 64.7412 201.016 64.6414 201.015 64.5408C201.006 64.3793 200.955 64.223 200.867 64.0875C200.778 63.9521 200.656 63.8424 200.511 63.7694V65.1584Z" fill="white"/>
<path d="M179.88 51.7042H132.323C132.03 51.7038 131.748 51.5872 131.541 51.3799C131.334 51.1725 131.217 50.8914 131.217 50.5982V21.1792C131.217 20.886 131.334 20.6049 131.541 20.3975C131.748 20.1902 132.03 20.0736 132.323 20.0732H179.88C180.173 20.0736 180.454 20.1902 180.661 20.3975C180.869 20.6049 180.985 20.886 180.986 21.1792V50.5982C180.985 50.8914 180.869 51.1725 180.661 51.3799C180.454 51.5872 180.173 51.7038 179.88 51.7042Z" fill="white"/>
<path d="M179.88 51.7042H132.323C132.03 51.7038 131.748 51.5872 131.541 51.3799C131.334 51.1725 131.217 50.8914 131.217 50.5982V21.1792C131.217 20.886 131.334 20.6049 131.541 20.3975C131.748 20.1902 132.03 20.0736 132.323 20.0732H179.88C180.173 20.0736 180.454 20.1902 180.661 20.3975C180.869 20.6049 180.985 20.886 180.986 21.1792V50.5982C180.985 50.8914 180.869 51.1725 180.661 51.3799C180.454 51.5872 180.173 51.7038 179.88 51.7042ZM132.323 20.5156C132.147 20.5158 131.978 20.5858 131.854 20.7102C131.729 20.8346 131.659 21.0033 131.659 21.1792V50.5982C131.659 50.7741 131.729 50.9428 131.854 51.0672C131.978 51.1916 132.147 51.2616 132.323 51.2618H179.88C180.056 51.2616 180.224 51.1916 180.349 51.0672C180.473 50.9428 180.543 50.7741 180.543 50.5982V21.1792C180.543 21.0033 180.473 20.8346 180.349 20.7102C180.224 20.5858 180.056 20.5158 179.88 20.5156H132.323Z" fill="#3F3D56"/>
<path d="M170.477 29.898H141.722C141.458 29.898 141.205 29.7931 141.018 29.6065C140.831 29.4198 140.727 29.1666 140.727 28.9026C140.727 28.6386 140.831 28.3854 141.018 28.1988C141.205 28.0121 141.458 27.9072 141.722 27.9072H170.477C170.741 27.9072 170.995 28.0121 171.181 28.1988C171.368 28.3854 171.473 28.6386 171.473 28.9026C171.473 29.1666 171.368 29.4198 171.181 29.6065C170.995 29.7931 170.741 29.898 170.477 29.898Z" fill="#CCCCCC"/>
<path d="M170.477 36.7554H141.722C141.458 36.7554 141.205 36.6505 141.018 36.4639C140.831 36.2772 140.727 36.024 140.727 35.76C140.727 35.496 140.831 35.2429 141.018 35.0562C141.205 34.8695 141.458 34.7646 141.722 34.7646H170.477C170.741 34.7646 170.995 34.8695 171.181 35.0562C171.368 35.2429 171.473 35.496 171.473 35.76C171.473 36.024 171.368 36.2772 171.181 36.4639C170.995 36.6505 170.741 36.7554 170.477 36.7554Z" fill="#CCCCCC"/>
<path d="M167.917 47.6271C169.881 47.6271 171.474 46.0345 171.474 44.0699C171.474 42.1053 169.881 40.5127 167.917 40.5127C165.952 40.5127 164.359 42.1053 164.359 44.0699C164.359 46.0345 165.952 47.6271 167.917 47.6271Z" fill="#FF6519"/>
<path d="M168.015 42.3936V42.0547H168.115V42.3936C168.257 42.3998 168.396 42.4339 168.525 42.4939C168.619 42.5378 168.699 42.605 168.759 42.6891C168.815 42.7668 168.844 42.86 168.844 42.9555C168.846 43.0253 168.823 43.0934 168.778 43.1472C168.759 43.1717 168.734 43.1915 168.706 43.205C168.678 43.2186 168.648 43.2255 168.617 43.2253C168.593 43.2257 168.57 43.2214 168.549 43.2126C168.527 43.2037 168.508 43.1906 168.492 43.174C168.475 43.1574 168.462 43.1376 168.453 43.1158C168.444 43.0939 168.44 43.0705 168.44 43.0469C168.44 43.0139 168.447 42.9813 168.46 42.951L168.501 42.8663C168.515 42.8309 168.522 42.7929 168.521 42.7548C168.522 42.6957 168.503 42.638 168.467 42.591C168.428 42.5416 168.375 42.5048 168.316 42.485C168.251 42.4637 168.183 42.4502 168.115 42.4449V43.6645L168.137 43.6779C168.347 43.7888 168.537 43.9326 168.701 44.1037C168.774 44.1897 168.832 44.2873 168.872 44.3925C168.912 44.4944 168.933 44.6029 168.933 44.7124C168.935 44.8542 168.898 44.9938 168.826 45.116C168.756 45.2353 168.653 45.332 168.53 45.3947C168.399 45.4585 168.259 45.4993 168.115 45.5151V45.8785H168.015V45.5218C167.869 45.5206 167.725 45.4911 167.591 45.4348C167.457 45.385 167.339 45.3004 167.249 45.1896C167.169 45.0902 167.126 44.9667 167.127 44.8395C167.124 44.7502 167.152 44.6626 167.205 44.5909C167.226 44.56 167.255 44.5346 167.288 44.5169C167.321 44.4993 167.357 44.4899 167.395 44.4895C167.417 44.4887 167.439 44.4925 167.46 44.5007C167.481 44.5089 167.5 44.5214 167.516 44.5372C167.532 44.5531 167.544 44.572 167.553 44.5929C167.561 44.6138 167.565 44.6361 167.564 44.6586C167.557 44.7272 167.528 44.7917 167.482 44.8432C167.458 44.875 167.437 44.9093 167.42 44.9455C167.409 44.9738 167.403 45.004 167.404 45.0345C167.404 45.1158 167.432 45.1946 167.483 45.258C167.538 45.3291 167.612 45.384 167.696 45.4171C167.792 45.4545 167.894 45.4726 167.997 45.4705H168.015V44.0145L167.887 43.941C167.767 43.8711 167.675 43.8132 167.612 43.767C167.55 43.7223 167.493 43.6715 167.442 43.6154C167.313 43.479 167.242 43.2987 167.243 43.1115C167.242 42.995 167.272 42.8803 167.328 42.7782C167.383 42.6764 167.464 42.5907 167.562 42.5296C167.699 42.447 167.855 42.4002 168.015 42.3936ZM168.015 42.4426C167.928 42.4453 167.843 42.4642 167.764 42.4983C167.684 42.5376 167.619 42.6006 167.577 42.6786C167.529 42.7634 167.505 42.8593 167.506 42.9567C167.505 43.0754 167.542 43.1914 167.61 43.2883C167.647 43.341 167.691 43.3882 167.74 43.4285C167.821 43.4886 167.905 43.5436 167.992 43.5932L168.015 43.6065V42.4426ZM168.115 45.466C168.172 45.4612 168.229 45.4493 168.284 45.4304C168.328 45.4133 168.369 45.3892 168.406 45.359C168.474 45.3004 168.528 45.2258 168.561 45.1417C168.6 45.0488 168.619 44.9491 168.619 44.8484C168.61 44.6869 168.559 44.5306 168.47 44.3952C168.382 44.2597 168.259 44.15 168.115 44.077V45.466Z" fill="white"/>
<path d="M81.2945 47.314C80.8802 47.2841 80.4644 47.3454 80.0763 47.4935C79.6882 47.6417 79.3373 47.8731 79.0484 48.1715C78.7594 48.47 78.5394 48.8281 78.4039 49.2208C78.2683 49.6134 78.2205 50.031 78.2637 50.4442L69.1211 54.7303L73.596 57.4704L81.592 52.9801C82.2812 52.8614 82.903 52.4939 83.3394 51.9474C83.7758 51.4009 83.9966 50.7133 83.96 50.0149C83.9233 49.3165 83.6317 48.6558 83.1405 48.158C82.6492 47.6602 81.9924 47.3599 81.2945 47.314Z" fill="#FFB6B6"/>
<path d="M43.4614 129.78L46.619 129.779L48.1211 117.601L43.4609 117.601L43.4614 129.78Z" fill="#FFB6B6"/>
<path d="M42.6562 128.749L48.8745 128.749H48.8747C49.9257 128.749 50.9336 129.167 51.6767 129.91C52.4199 130.653 52.8374 131.661 52.8375 132.712V132.84L42.6564 132.841L42.6562 128.749Z" fill="#2F2E41"/>
<path d="M59.5728 129.78L62.7303 129.779L64.2325 117.601L59.5723 117.601L59.5728 129.78Z" fill="#FFB6B6"/>
<path d="M58.7676 128.749L64.9858 128.749H64.986C66.037 128.749 67.0449 129.167 67.788 129.91C68.5312 130.653 68.9487 131.661 68.9488 132.712V132.84L58.7678 132.841L58.7676 128.749Z" fill="#2F2E41"/>
<path d="M61.6817 66.6113L63.2842 70.0616L66.1734 100.917L63.9275 127.438H58.6748L52.4766 85.635L49.5653 126.475L42.4778 126.189L41.1172 70.8187L61.6817 66.6113Z" fill="#2F2E41"/>
<path d="M36.1434 38.1368L42.7876 35.4336L52.1657 35.9596L60.503 38.9979L63.2846 70.0611C56.0314 74.0219 48.6841 75.1029 41.209 72.2708L34.2715 52.0385L36.1434 38.1368Z" fill="#E4E4E4"/>
<path d="M57.9086 39.8195L60.857 38.9982C60.857 38.9982 63.0872 37.5482 63.8209 41.8586C64.5546 46.1691 68.3301 52.8737 68.3301 52.8737L74.7933 49.4293L77.7856 55.9641L67.5787 62.1469L56.8301 51.3166L57.9086 39.8195Z" fill="#E4E4E4"/>
<path d="M41.7363 29.679C41.3782 28.8665 41.1837 27.9915 41.1638 27.1038C41.1439 26.2162 41.2991 25.3333 41.6204 24.5056C41.9417 23.6779 42.4229 22.9216 43.0365 22.2799C43.6501 21.6382 44.3841 21.1236 45.1966 20.7656C46.009 20.4075 46.8841 20.213 47.7717 20.1931C48.6594 20.1732 49.5422 20.3284 50.3699 20.6497C51.1976 20.971 51.9539 21.4522 52.5956 22.0658C53.2373 22.6794 53.7519 23.4134 54.11 24.2259L54.1486 24.3153C54.86 25.9616 54.8883 27.8231 54.2272 29.4903C53.8999 30.3158 53.4132 31.0687 52.7949 31.7061C52.1765 32.3435 51.4387 32.8529 50.6235 33.2052C48.9772 33.9166 47.1157 33.9448 45.4486 33.2838C43.7814 32.6227 42.4451 31.3264 41.7337 29.6801L41.7363 29.679Z" fill="#FFB6B6"/>
<path d="M50.9154 23.4902C52.3212 23.7453 54.4968 24.6303 55.7042 23.592C55.1079 22.8953 54.3579 22.3466 53.5132 21.9894C53.3468 21.9342 53.1928 21.8472 53.0597 21.7331C52.648 21.3171 52.9661 20.6003 52.7777 20.0378C52.6863 19.8323 52.5483 19.6508 52.3747 19.5077C52.2012 19.3646 51.9967 19.2637 51.7775 19.2131C51.3585 19.0877 50.9193 19.0673 50.5076 18.9153C49.5335 18.5492 48.8409 17.5014 47.8423 17.2166C46.9722 16.965 46.0968 17.3561 45.3459 17.8125C44.595 18.269 43.8522 18.8105 42.9738 18.8972C42.3173 18.957 41.9018 20.0368 41.2427 20.0684C39.8617 20.1356 39.9384 19.2254 39.8363 20.6762C39.7773 21.5419 38.5403 23.2643 38.5604 24.1375C38.5808 24.7098 38.4796 25.2765 38.4959 25.8505C38.5331 26.9437 38.9715 27.985 39.7276 28.7754C40.3563 29.422 41.1741 29.8581 41.7034 30.5951C41.9786 30.9863 42.1695 31.443 42.4899 31.797C42.8103 32.151 43.353 32.3641 43.7106 32.1113C44.0681 31.8586 44.0748 31.3116 44.2522 30.8954C44.361 30.6402 44.547 30.4255 44.7839 30.2812C45.0209 30.137 45.297 30.0705 45.5737 30.091C45.861 30.1285 46.1322 30.2455 46.3567 30.4288C46.5811 30.612 46.75 30.8543 46.8443 31.1283C46.6769 30.2085 46.2355 29.3466 46.0677 28.4261C45.8999 27.5056 46.1186 26.406 46.9112 26.0466C47.2515 25.8882 47.7113 25.8457 47.8481 25.4807C47.9318 25.2609 47.8552 25.0012 47.8875 24.7635C48.0617 23.5985 49.9987 23.3103 50.9154 23.4902Z" fill="#2F2E41"/>
<path d="M42.0057 71.9118C41.9451 71.5009 41.7951 71.1082 41.5664 70.7615C41.3376 70.4148 41.0356 70.1224 40.6816 69.905C40.3276 69.6876 39.9303 69.5505 39.5176 69.5033C39.1049 69.4561 38.6869 69.4999 38.2929 69.6317L32.1266 61.6357L30.4219 66.5983L36.5389 73.4306C36.8042 74.0777 37.2977 74.605 37.9258 74.9126C38.5539 75.2201 39.273 75.2866 39.9469 75.0994C40.6207 74.9122 41.2025 74.4843 41.5819 73.8968C41.9614 73.3093 42.1122 72.6031 42.0057 71.9118Z" fill="#FFB6B6"/>
<path d="M38.2727 39.6451L36.1429 38.137C36.1429 38.137 31.2703 37.8579 30.5615 41.8585L21.627 56.5561L32.7046 71.8388L38.0754 66.1852L31.2986 58.2659L36.9885 47.819L38.2727 39.6451Z" fill="#E4E4E4"/>
<path d="M90.1636 41.9742H90.0518V38.9132C90.0518 38.6806 90.006 38.4502 89.917 38.2352C89.8279 38.0203 89.6974 37.825 89.5329 37.6605C89.3684 37.496 89.1731 37.3655 88.9582 37.2765C88.7432 37.1874 88.5128 37.1416 88.2802 37.1416H81.7951C81.5624 37.1416 81.332 37.1874 81.1171 37.2765C80.9021 37.3655 80.7068 37.496 80.5423 37.6605C80.3778 37.825 80.2473 38.0203 80.1583 38.2352C80.0693 38.4502 80.0234 38.6806 80.0234 38.9132V55.7061C80.0234 55.9387 80.0693 56.1691 80.1583 56.384C80.2473 56.599 80.3778 56.7943 80.5423 56.9588C80.7068 57.1233 80.9021 57.2538 81.1171 57.3428C81.332 57.4319 81.5624 57.4777 81.7951 57.4777H88.2802C88.5128 57.4777 88.7432 57.4319 88.9581 57.3428C89.1731 57.2538 89.3684 57.1233 89.5329 56.9588C89.6974 56.7943 89.8279 56.599 89.917 56.384C90.006 56.1691 90.0518 55.9387 90.0518 55.7061V44.1531H90.1636V41.9742Z" fill="#3F3D56"/>
<path d="M88.3511 37.6025H87.5046C87.5435 37.698 87.5584 37.8015 87.5479 37.9041C87.5373 38.0066 87.5018 38.105 87.4443 38.1905C87.3868 38.2761 87.3091 38.3462 87.2182 38.3947C87.1272 38.4431 87.0257 38.4685 86.9226 38.4685H83.2074C83.1043 38.4685 83.0028 38.4431 82.9118 38.3947C82.8209 38.3462 82.7432 38.2761 82.6857 38.1905C82.6282 38.105 82.5927 38.0066 82.5821 37.9041C82.5716 37.8015 82.5865 37.698 82.6254 37.6025H81.8347C81.4839 37.6025 81.1473 37.7419 80.8992 37.99C80.6511 38.2382 80.5117 38.5747 80.5117 38.9256V55.6938C80.5117 56.0447 80.6511 56.3812 80.8992 56.6293C81.1473 56.8774 81.4839 57.0168 81.8347 57.0168H88.3511C88.702 57.0168 89.0385 56.8774 89.2866 56.6293C89.5347 56.3812 89.6741 56.0447 89.6741 55.6938V38.9256C89.6741 38.5747 89.5347 38.2382 89.2866 37.99C89.0385 37.7419 88.702 37.6025 88.3511 37.6025Z" fill="#FF6519"/>
<path d="M146.849 31.6309H99.2915C98.9983 31.6306 98.7172 31.514 98.5099 31.3066C98.3025 31.0993 98.1859 30.8182 98.1855 30.525V1.10598C98.1859 0.812759 98.3025 0.531642 98.5099 0.324304C98.7172 0.116965 98.9983 0.000335571 99.2915 0H146.849C147.142 0.000335572 147.423 0.116965 147.63 0.324304C147.838 0.531642 147.954 0.812759 147.954 1.10598V30.525C147.954 30.8182 147.838 31.0993 147.63 31.3066C147.423 31.514 147.142 31.6306 146.849 31.6309Z" fill="white"/>
<path d="M146.849 31.6309H99.2915C98.9983 31.6306 98.7172 31.514 98.5099 31.3066C98.3025 31.0993 98.1859 30.8182 98.1855 30.525V1.10598C98.1859 0.812759 98.3025 0.531642 98.5099 0.324304C98.7172 0.116965 98.9983 0.000335571 99.2915 0H146.849C147.142 0.000335572 147.423 0.116965 147.63 0.324304C147.838 0.531642 147.954 0.812759 147.954 1.10598V30.525C147.954 30.8182 147.838 31.0993 147.63 31.3066C147.423 31.514 147.142 31.6306 146.849 31.6309ZM99.2915 0.442391C99.1156 0.442583 98.9469 0.512559 98.8225 0.636964C98.6981 0.76137 98.6281 0.930044 98.6279 1.10598V30.525C98.6281 30.7009 98.6981 30.8696 98.8225 30.994C98.9469 31.1184 99.1156 31.1883 99.2915 31.1885H146.849C147.024 31.1883 147.193 31.1184 147.318 30.994C147.442 30.8696 147.512 30.7009 147.512 30.525V1.10598C147.512 0.930044 147.442 0.76137 147.318 0.636964C147.193 0.512559 147.024 0.442583 146.849 0.442391H99.2915Z" fill="#3F3D56"/>
<path d="M137.446 9.82475H108.691C108.427 9.82475 108.174 9.71988 107.987 9.53321C107.8 9.34654 107.695 9.09336 107.695 8.82937C107.695 8.56537 107.8 8.3122 107.987 8.12553C108.174 7.93886 108.427 7.83398 108.691 7.83398H137.446C137.71 7.83398 137.963 7.93886 138.15 8.12553C138.337 8.3122 138.441 8.56537 138.441 8.82937C138.441 9.09336 138.337 9.34654 138.15 9.53321C137.963 9.71988 137.71 9.82475 137.446 9.82475Z" fill="#CCCCCC"/>
<path d="M137.446 16.6822H108.691C108.427 16.6822 108.174 16.5773 107.987 16.3906C107.8 16.204 107.695 15.9508 107.695 15.6868C107.695 15.4228 107.8 15.1696 107.987 14.9829C108.174 14.7963 108.427 14.6914 108.691 14.6914H137.446C137.71 14.6914 137.963 14.7963 138.15 14.9829C138.337 15.1696 138.441 15.4228 138.441 15.6868C138.441 15.9508 138.337 16.204 138.15 16.3906C137.963 16.5773 137.71 16.6822 137.446 16.6822Z" fill="#CCCCCC"/>
<path d="M134.885 27.5539C136.85 27.5539 138.443 25.9613 138.443 23.9967C138.443 22.0321 136.85 20.4395 134.885 20.4395C132.921 20.4395 131.328 22.0321 131.328 23.9967C131.328 25.9613 132.921 27.5539 134.885 27.5539Z" fill="#FF6519"/>
<path d="M134.983 22.3213V21.9824H135.084V22.3213C135.226 22.3275 135.365 22.3616 135.494 22.4217C135.587 22.4656 135.668 22.5328 135.728 22.6168C135.783 22.6945 135.813 22.7877 135.813 22.8832C135.815 22.953 135.791 23.0212 135.747 23.075C135.728 23.0995 135.703 23.1192 135.675 23.1328C135.647 23.1463 135.616 23.1532 135.585 23.153C135.562 23.1534 135.539 23.1491 135.518 23.1403C135.496 23.1315 135.477 23.1184 135.46 23.1017C135.444 23.0852 135.43 23.0653 135.422 23.0435C135.413 23.0216 135.409 22.9982 135.409 22.9746C135.409 22.9416 135.416 22.909 135.429 22.8787L135.469 22.794C135.484 22.7586 135.49 22.7207 135.489 22.6825C135.491 22.6235 135.472 22.5657 135.436 22.5187C135.397 22.4694 135.344 22.4325 135.284 22.4127C135.219 22.3914 135.152 22.3779 135.084 22.3726V23.5922L135.106 23.6056C135.315 23.7165 135.506 23.8603 135.67 24.0315C135.743 24.1174 135.8 24.2151 135.841 24.3202C135.881 24.4222 135.901 24.5306 135.902 24.6401C135.904 24.7819 135.867 24.9215 135.795 25.0437C135.725 25.163 135.622 25.2598 135.498 25.3224C135.368 25.3863 135.228 25.427 135.084 25.4428V25.8063H134.983V25.4495C134.838 25.4484 134.694 25.4188 134.56 25.3626C134.426 25.3128 134.308 25.2281 134.217 25.1173C134.138 25.018 134.095 24.8944 134.096 24.7673C134.093 24.6779 134.121 24.5903 134.174 24.5186C134.195 24.4877 134.223 24.4623 134.256 24.4447C134.289 24.427 134.326 24.4176 134.363 24.4172C134.386 24.4164 134.408 24.4202 134.429 24.4285C134.45 24.4367 134.469 24.4491 134.485 24.465C134.501 24.4808 134.513 24.4998 134.522 24.5206C134.53 24.5415 134.534 24.5639 134.533 24.5863C134.525 24.6549 134.496 24.7195 134.45 24.7709C134.426 24.8028 134.406 24.8371 134.389 24.8733C134.378 24.9015 134.372 24.9318 134.372 24.9622C134.373 25.0435 134.401 25.1223 134.452 25.1858C134.507 25.2568 134.581 25.3117 134.664 25.3448C134.76 25.3822 134.863 25.4003 134.965 25.3982H134.983V23.9423L134.856 23.8687C134.736 23.7989 134.644 23.7409 134.581 23.6948C134.519 23.65 134.462 23.5992 134.41 23.5432C134.282 23.4067 134.211 23.2264 134.212 23.0393C134.211 22.9228 134.24 22.808 134.297 22.706C134.352 22.6041 134.432 22.5184 134.531 22.4573C134.668 22.3747 134.823 22.3279 134.983 22.3213ZM134.983 22.3704C134.897 22.3731 134.812 22.3919 134.732 22.426C134.653 22.4653 134.588 22.5283 134.546 22.6063C134.498 22.6911 134.474 22.7871 134.475 22.8844C134.474 23.0032 134.51 23.1192 134.579 23.216C134.616 23.2687 134.659 23.3159 134.709 23.3563C134.79 23.4163 134.874 23.4713 134.961 23.5209L134.983 23.5343V22.3704ZM135.084 25.3938C135.141 25.389 135.198 25.377 135.252 25.3581C135.297 25.341 135.338 25.3169 135.374 25.2868C135.443 25.2281 135.497 25.1535 135.53 25.0694C135.569 24.9765 135.588 24.8768 135.588 24.7762C135.579 24.6147 135.527 24.4583 135.439 24.3229C135.351 24.1875 135.228 24.0777 135.084 24.0047V25.3938Z" fill="white"/>
<path d="M97.061 133H0.254086C0.186698 133 0.12207 132.974 0.07442 132.926C0.0267695 132.878 0 132.814 0 132.746C0 132.679 0.0267695 132.614 0.07442 132.567C0.12207 132.519 0.186698 132.492 0.254086 132.492H97.061C97.1284 132.492 97.193 132.519 97.2407 132.567C97.2883 132.614 97.3151 132.679 97.3151 132.746C97.3151 132.814 97.2883 132.878 97.2407 132.926C97.193 132.974 97.1284 133 97.061 133Z" fill="#CACACA"/>
</g>
<defs>
<clipPath id="clip0_508_1621">
<rect width="213.381" height="133" fill="white"/>
</clipPath>
</defs>
</svg>
