<svg width="184" height="165" viewBox="0 0 184 165" fill="none" xmlns="http://www.w3.org/2000/svg">
<g clip-path="url(#clip0_508_2661)">
<path d="M114.227 164.4H60.3695C53.3519 164.4 47.6426 158.691 47.6426 151.673V12.727C47.6426 5.70925 53.3519 0 60.3695 0H114.227C121.245 0 126.954 5.70925 126.954 12.727V151.673C126.954 158.691 121.245 164.4 114.227 164.4Z" fill="#2F2E41"/>
<path d="M114.283 160.965H60.3152C55.0495 160.965 50.7656 156.681 50.7656 151.416V12.2039C50.7656 6.93829 55.0495 2.6543 60.3152 2.6543H114.283C119.548 2.6543 123.832 6.93829 123.832 12.2039V151.416C123.832 156.681 119.548 160.965 114.283 160.965Z" fill="white"/>
<path d="M95.7295 11.7091H78.5557C76.5757 11.7091 74.9648 10.0983 74.9648 8.11823C74.9648 6.13815 76.5757 4.52734 78.5557 4.52734H95.7295C97.7096 4.52734 99.3204 6.13815 99.3204 8.11823C99.3204 10.0983 97.7096 11.7091 95.7295 11.7091Z" fill="#2F2E41"/>
<path d="M108.88 50.6721H63.8666C62.1395 50.6721 60.7344 49.2668 60.7344 47.5398V29.6497C60.7344 27.9226 62.1395 26.5176 63.8666 26.5176H108.88C110.607 26.5176 112.012 27.9226 112.012 29.6497V47.5398C112.012 49.2668 110.607 50.6721 108.88 50.6721Z" fill="#FF6519"/>
<path d="M108.88 105.458H63.8666C62.1395 105.458 60.7344 104.053 60.7344 102.326V84.4358C60.7344 82.7087 62.1395 81.3037 63.8666 81.3037H108.88C110.607 81.3037 112.012 82.7087 112.012 84.4358V102.326C112.012 104.053 110.607 105.458 108.88 105.458Z" fill="#D8D8D8"/>
<path d="M108.612 77.7458H90.9157C89.098 77.7458 87.6191 76.267 87.6191 74.4492V57.2927C87.6191 55.4749 89.098 53.9961 90.9157 53.9961H108.612C110.43 53.9961 111.909 55.4749 111.909 57.2927V74.4492C111.909 76.267 110.43 77.7458 108.612 77.7458Z" fill="#D8D8D8"/>
<path d="M81.6238 77.7458H63.9274C62.1097 77.7458 60.6309 76.267 60.6309 74.4492V57.2927C60.6309 55.4749 62.1097 53.9961 63.9274 53.9961H81.6238C83.4415 53.9961 84.9204 55.4749 84.9204 57.2927V74.4492C84.9204 76.267 83.4415 77.7458 81.6238 77.7458Z" fill="#D8D8D8"/>
<path d="M134.712 40.201L133.576 43.0429C133.576 43.0429 132.529 47.021 133.757 48.6079C134.982 50.1921 135.255 62.3395 133.938 63.2356C132.621 64.1343 150.63 54.9178 150.63 54.9178C150.63 54.9178 143.6 38.6141 143.481 38.5547C143.362 38.4954 138.755 37.0596 138.755 37.0596L134.718 40.201H134.712Z" fill="#2F2E43"/>
<path d="M146.439 54.2481L140.404 56.2317V47.5469H145.88L146.439 54.2481Z" fill="#F2A2A5"/>
<path d="M127.185 103.558C126.859 105.547 125.531 106.975 124.222 106.746C122.913 106.516 122.114 104.716 122.443 102.724C122.562 101.928 122.878 101.173 123.364 100.528L124.859 92.1152L128.929 92.9681L127.02 101.17C127.271 101.947 127.328 102.765 127.185 103.558Z" fill="#F2A2A5"/>
<path d="M144.171 151.485H138.52V159.504H144.171V151.485Z" fill="#F2A2A5"/>
<path d="M133.015 164.358C132.421 164.358 131.892 164.344 131.493 164.306C129.992 164.169 128.559 163.059 127.838 162.412C127.515 162.12 127.412 161.656 127.579 161.257C127.701 160.971 127.941 160.755 128.241 160.671L132.208 159.537L138.631 155.203L138.704 155.333C138.731 155.381 139.362 156.517 139.573 157.284C139.654 157.575 139.632 157.818 139.511 158.007C139.427 158.137 139.308 158.212 139.214 158.255C139.33 158.377 139.694 158.625 140.817 158.803C142.455 159.062 142.801 157.365 142.814 157.295L142.825 157.238L142.874 157.206C143.654 156.704 144.134 156.474 144.299 156.523C144.401 156.553 144.574 156.606 145.041 161.23C145.087 161.375 145.413 162.439 145.192 163.456C144.952 164.563 140.115 164.182 139.147 164.096C139.12 164.098 135.498 164.358 133.017 164.358L133.015 164.358Z" fill="#2F2E43"/>
<path d="M160.264 145.186L155.469 148.177L159.712 154.98L164.507 151.99L160.264 145.186Z" fill="#F2A2A5"/>
<path d="M153.896 163.257C153.232 163.257 152.622 163.176 152.188 163.1C151.762 163.025 151.427 162.685 151.357 162.258C151.308 161.951 151.397 161.64 151.608 161.411L154.374 158.35L157.532 151.274L157.661 151.344C157.71 151.371 158.846 152 159.432 152.54C159.656 152.745 159.766 152.963 159.761 153.187C159.758 153.344 159.699 153.468 159.639 153.557C159.801 153.6 160.241 153.617 161.288 153.174C162.816 152.529 162.211 150.904 162.184 150.837L162.163 150.783L162.187 150.731C162.584 149.892 162.867 149.444 163.035 149.398C163.14 149.369 163.313 149.323 166.154 153.001C166.27 153.098 167.11 153.83 167.461 154.809C167.841 155.875 163.537 158.113 162.67 158.55C162.643 158.572 158.139 161.845 156.287 162.776C155.553 163.146 154.684 163.259 153.894 163.259L153.896 163.257Z" fill="#2F2E43"/>
<path d="M148.333 84.4316H132.51L131.074 99.1511L137.357 153.538H145.435L142.204 122.126L155.307 150.486L162.486 145.46L152.255 118.985C152.255 118.985 155.909 95.9206 153.037 90.1748C150.166 84.4316 148.333 84.4316 148.333 84.4316Z" fill="#2F2E43"/>
<path d="M156.204 85.3313H128.74L138.613 52.8428H149.562L156.204 85.3313Z" fill="#D6D6D7"/>
<path d="M140.339 52.8478C140.339 52.8478 133.519 52.667 132.801 54.4644C132.083 56.2592 123.646 98.979 123.646 98.979H129.211L140.341 52.8479L140.339 52.8478Z" fill="#D6D6D7"/>
<path d="M141.152 49.9518C144.473 49.9518 147.165 47.2597 147.165 43.9388C147.165 40.6179 144.473 37.9258 141.152 37.9258C137.831 37.9258 135.139 40.6179 135.139 43.9388C135.139 47.2597 137.831 49.9518 141.152 49.9518Z" fill="#F2A2A5"/>
<path d="M142.318 34.5954C142.318 34.5954 149.556 32.7413 151.772 42.3734C151.772 42.3734 151.831 44.8861 153.089 45.9035C154.347 46.921 153.926 52.1864 153.926 52.1864C153.926 52.1864 156.32 56.1348 154.285 57.9295C154.285 57.9295 153.386 61.5784 154.703 63.6726C156.02 65.7669 160.986 77.2856 152.728 77.9873C152.728 77.9873 148.539 75.4585 150.514 67.9206C152.49 60.3828 150.274 56.2185 150.274 56.2185C150.274 56.2185 143.932 53.9191 144.291 49.0126C144.65 44.1061 140.221 39.259 139.924 39.3211C139.627 39.3831 136.513 37.5857 135.137 43.0913L133.663 42.8403C133.663 42.8403 133.042 33.5779 142.318 34.5954Z" fill="#2F2E43"/>
<path d="M160.891 102.592C161.293 104.568 160.556 106.373 159.25 106.624C157.944 106.875 156.559 105.475 156.16 103.499C155.99 102.711 156.017 101.896 156.238 101.119L154.648 92.7227L158.756 92.0723L159.887 100.417C160.397 101.054 160.74 101.799 160.891 102.592Z" fill="#F2A2A5"/>
<path d="M144.779 52.8859C144.779 52.8859 150.787 52.1248 151.505 53.9195C152.223 55.7142 160.659 98.4341 160.659 98.4341H155.094L144.779 52.8859Z" fill="#D6D6D7"/>
<path d="M183.148 163.973C183.148 164.197 182.967 164.378 182.743 164.378H0.404825C0.180822 164.378 0 164.197 0 163.973C0 163.749 0.180822 163.568 0.404825 163.568H182.743C182.967 163.568 183.148 163.749 183.148 163.973Z" fill="#2F2E43"/>
</g>
<defs>
<clipPath id="clip0_508_2661">
<rect width="183.148" height="164.4" fill="white"/>
</clipPath>
</defs>
</svg>
