<svg width="319" height="244" viewBox="0 0 319 244" fill="none" xmlns="http://www.w3.org/2000/svg">
<path d="M127.919 2.47774C123.453 4.47929 108.035 17.5371 69.3294 51.7543C63.2684 57.0918 57.9517 61.3809 57.42 61.2856C56.9947 61.1902 55.9314 61.7621 55.0807 62.6199C53.911 63.9543 53.911 64.1449 55.2934 63.4777C56.144 63.0965 54.0174 65.0027 50.6147 67.8621C47.1057 70.6262 40.194 76.6309 35.3027 81.2059C30.4114 85.7809 25.9454 89.4027 25.52 89.1168C25.0947 88.8309 24.1377 89.3074 23.3934 90.0699C22.649 90.8324 22.4364 91.4996 22.968 91.4996C23.3934 91.4996 21.4794 93.5965 18.6084 96.2653C15.8437 98.8387 13.1854 100.745 12.76 100.554C11.6967 99.9824 4.9977 106.464 4.57236 108.37C4.46603 109.323 4.0407 111.42 3.61536 112.945C3.19003 115.137 3.61536 116.281 5.52936 117.901C6.9117 119.045 21.5857 124.573 38.28 130.197C71.6687 141.539 75.4967 142.206 83.4717 138.489C86.2364 137.154 99.1027 125.621 119.625 106.082C147.697 79.3949 176.301 52.2309 199.056 30.8809C206.499 23.8277 208.094 20.3012 205.011 17.1559C204.266 16.3934 204.692 16.584 206.074 17.5371C208.626 19.5387 209.051 22.7793 207.244 25.9246C206.606 27.0684 191.081 41.9371 172.898 59.0934C154.715 76.1543 128.344 100.936 114.415 114.184C86.8744 140.109 84.1097 142.111 73.37 142.778C67.947 143.159 65.1824 142.301 37.323 132.675C20.735 126.861 5.74203 121.237 4.0407 120.093L0.957031 118.092L3.19003 121.714C4.3597 123.715 5.3167 125.812 5.3167 126.479C5.3167 128.195 6.5927 128.671 39.6624 140.3C64.8634 149.068 70.6054 150.784 75.7094 150.879C86.6617 150.975 88.044 149.926 130.79 109.418C198.205 45.559 208.201 35.9324 210.221 33.359C211.284 32.0246 211.497 29.8324 210.965 25.3527C210.221 18.6809 208.094 15.8215 203.097 14.8684C201.608 14.5824 197.78 13.7246 194.59 12.8668C191.4 12.009 187.997 11.1512 187.147 10.9606C186.296 10.7699 182.681 9.91211 179.172 8.95898C167.688 6.09961 161.733 4.95586 161.201 5.43242C160.882 5.71837 159.925 5.52774 159.075 4.86055C154.928 1.71524 133.236 0.0949249 127.919 2.47774ZM149.824 4.76524C157.054 6.38554 163.966 7.43399 165.242 7.14806C167.05 6.67149 167.156 6.7668 165.88 7.62462C164.604 8.48242 165.136 8.57774 168.007 8.10118C170.984 7.62462 171.409 7.71992 170.133 8.57774C168.857 9.43555 169.283 9.53087 172.26 9.14961C174.387 8.86368 175.45 8.95898 174.599 9.34024C173.749 9.91211 178.108 11.3418 186.615 13.3434C201.502 16.7746 204.904 18.4902 203.628 21.8262C202.99 23.8277 192.251 34.4074 154.183 70.5309C145.57 78.6324 126.749 96.6465 112.182 110.467C83.6844 137.536 80.2817 139.918 72.3067 138.775C66.033 137.917 9.35736 118.473 7.12436 116.376C5.3167 114.756 5.21036 114.184 6.2737 111.801C7.33703 109.323 26.9024 91.8809 103.675 24.5902C126.749 4.47929 128.238 3.43086 136.107 2.00117C136.426 1.90587 142.593 3.24023 149.824 4.76524ZM208.094 31.7387C207.244 32.8824 201.821 38.4106 196.079 43.9387C190.23 49.5621 182.468 57.1871 178.64 61.0949C173.536 66.2418 171.622 67.5762 171.409 66.3371C171.197 65.2887 173.749 62.0481 178.321 57.6637C182.255 53.8512 190.868 45.559 197.248 39.2684C203.735 33.0731 209.158 28.3074 209.264 28.784C209.477 29.2606 208.945 30.5949 208.094 31.7387ZM166.624 71.6746C164.498 73.9621 146.527 91.0231 126.749 109.609C103.888 131.15 89.1074 144.303 86.2364 145.732C80.9197 148.306 73.051 148.782 66.671 146.876C61.3544 145.256 62.9494 143.54 68.3724 145.065C73.2637 146.4 82.1957 144.779 87.2997 141.729C89.2137 140.586 108.247 123.048 129.62 102.842C151.206 82.4449 168.964 66.4324 169.495 66.8137C170.027 67.2902 168.751 69.3871 166.624 71.6746ZM45.1917 137.44C46.6804 138.012 47.85 138.775 47.85 139.156C47.85 140.395 42.6397 138.965 42.108 137.631C41.3637 136.011 41.6827 136.011 45.1917 137.44Z" fill="#D74B05"/>
<path d="M154.291 9.91159C153.228 11.0553 153.334 11.4366 154.929 12.1991C159.076 14.1053 172.049 16.4882 174.707 15.821C180.024 14.6772 177.897 12.6757 169.284 10.5788C159.502 8.19597 155.993 8.10066 154.291 9.91159Z" fill="black"/>
<path d="M103.461 28.7836C92.8277 38.3148 88.2553 42.8898 88.468 44.2242C88.787 45.6539 93.7847 47.3695 118.029 54.0414C134.085 58.4258 149.397 62.2383 151.843 62.6195L156.521 63.1914L167.048 53.2789C184.806 36.6945 187.677 33.4539 186.507 31.643C185.338 30.0227 127.28 15.2492 121.857 15.2492C119.411 15.2492 116.008 17.7273 103.461 28.7836ZM127.386 19.7289C129.3 20.0148 131.001 20.5867 131.32 20.968C131.533 21.3492 129.938 23.1602 127.811 25.0664L123.877 28.4977L118.667 27.3539C115.796 26.6867 113.244 25.6383 113.031 25.0664C112.393 23.4461 120.155 17.918 122.176 18.5852C123.133 18.9664 125.472 19.443 127.386 19.7289ZM162.689 26.4961C168.856 28.1164 176.406 29.9273 179.489 30.5945C182.467 31.2617 185.019 32.2148 185.019 32.6914C185.019 33.4539 163.858 53.7555 157.691 58.807C156.309 60.0461 153.969 60.9992 152.587 60.9992C148.227 60.9992 90.382 45.1773 90.382 44.0336C90.382 42.8898 94.848 38.6008 102.717 32.1195L110.373 25.8289L114.413 27.7352C120.793 30.5945 124.409 30.118 128.981 25.9242C131.214 23.8273 132.915 21.8258 132.809 21.3492C132.703 20.8727 132.703 20.2055 132.809 19.9195C132.915 19.2523 140.465 20.968 162.689 26.4961Z" fill="#3F3D56"/>
<path d="M159.713 86.2575C160.139 86.6388 173.643 90.7372 189.806 95.3122C205.862 99.8872 220.323 104.367 221.706 105.225C223.62 106.368 224.364 107.608 224.364 109.99C224.364 112.468 222.875 114.661 217.24 120.665C202.885 135.725 179.172 159.839 171.835 166.701C167.688 170.609 165.349 173.087 166.625 172.42C167.795 171.658 172.048 167.94 175.982 164.128C179.917 160.315 183.426 157.456 183.957 157.742C184.383 157.933 185.659 157.265 186.722 156.026L188.742 153.929L186.403 155.74C185.021 156.789 183.957 157.17 183.957 156.598C183.957 155.454 188.742 151.356 189.38 152.023C189.699 152.309 191.401 151.07 193.102 149.45C194.803 147.734 195.122 147.162 193.846 148.115C192.464 149.164 191.401 149.545 191.401 148.973C191.401 147.829 196.186 143.731 196.824 144.398C197.143 144.684 198.844 143.445 200.545 141.825C202.247 140.109 202.778 139.347 201.821 140.014C200.758 140.681 199.907 140.872 199.907 140.395C199.907 139.156 204.692 135.153 205.437 135.82C205.649 136.106 207.032 135.153 208.52 133.723C209.903 132.293 210.222 131.722 209.265 132.389C208.201 133.056 207.351 133.247 207.351 132.77C207.351 131.34 211.179 128.576 212.029 129.339C212.455 129.815 212.667 129.434 212.455 128.672C212.348 127.909 212.667 127.337 213.412 127.242C214.156 127.242 215.326 126.67 216.07 125.908C217.133 124.954 217.133 124.764 216.176 125.24C215.432 125.622 214.794 125.526 214.794 125.05C214.794 123.906 217.452 121.904 218.197 122.476C218.409 122.762 219.792 121.809 221.28 120.379C222.663 118.95 222.982 118.378 222.025 119.045C219.685 120.665 219.579 119.426 221.812 117.139C223.407 115.614 223.726 115.614 228.724 117.806C233.509 119.998 236.061 122 232.339 120.665C231.063 120.284 230.744 120.951 230.744 124.192C230.744 127.337 230 129.053 227.341 132.008C220.43 139.633 204.799 155.931 200.226 160.411C195.548 164.795 195.548 165.272 200.014 166.034C201.077 166.225 208.201 159.458 219.366 147.734C234.891 131.34 237.018 128.767 237.124 125.717C237.124 121.904 235.529 119.617 231.807 117.901C229.787 116.948 228.936 115.614 228.298 111.992C227.767 109.323 226.384 106.273 225.215 105.129C223.194 103.128 217.24 100.745 215.751 101.317C215.432 101.412 214.369 100.936 213.412 100.173C212.348 99.506 211.604 99.1247 211.604 99.506C211.604 99.8872 210.222 99.506 208.52 98.6482C206.713 97.8857 203.523 96.9325 201.29 96.6466C199.057 96.3607 196.824 95.7888 196.186 95.4075C195.229 94.7403 188.317 92.7388 183.957 91.7857C180.555 91.0232 179.172 90.6419 178.96 90.5466C178.747 90.356 178.322 90.2607 177.896 90.07C177.365 89.9747 176.301 89.6888 175.451 89.3075C174.6 89.0216 172.473 88.4497 170.666 88.0685C166.306 87.1153 165.881 87.02 165.668 86.7341C164.817 86.2575 159.075 85.781 159.713 86.2575ZM209.584 155.264C206.606 158.314 203.416 161.364 202.353 162.126C200.439 163.461 203.948 159.553 210.434 153.167C216.176 147.639 215.645 148.973 209.584 155.264Z" fill="#426292"/>
<path d="M151.527 93.3101C152.803 94.4539 211.924 111.61 212.562 110.943C213.519 110.085 210.861 109.227 184.278 101.602C153.335 92.7383 149.932 91.8805 151.527 93.3101Z" fill="black"/>
<path d="M196.611 129.816C168.327 158.314 160.352 166.32 158.65 167.464C157.693 168.131 157.481 168.703 158.119 168.703C159.395 168.703 173.218 155.359 203.523 124.859C210.116 118.188 213.306 114.375 212.242 114.375C212.03 114.375 205.012 121.333 196.611 129.816Z" fill="black"/>
<path d="M159.075 115.995C158.756 116.376 158.437 117.424 158.437 118.473C158.437 122.095 153.014 128.767 146.527 133.056C143.018 135.343 139.509 137.249 138.765 137.249C138.021 137.249 136.851 137.917 136.107 138.679C133.874 141.157 137.914 141.539 142.912 139.442C152.482 135.248 162.69 124.382 162.69 118.473C162.69 116.471 160.351 114.946 159.075 115.995Z" fill="#0A183E"/>
<path d="M170.135 117.901C170.135 121.332 165.456 128.099 159.395 133.342C154.61 137.44 143.764 143.921 141.531 143.921C139.83 143.921 140.042 146.781 141.85 147.352C146.316 148.877 167.583 133.342 171.623 125.431C174.282 120.379 174.388 115.995 172.049 115.518C170.56 115.232 170.135 115.804 170.135 117.901Z" fill="#0A183E"/>
<path d="M136.851 116.852C136.532 117.138 136.532 117.996 136.851 118.759C137.595 120.57 134.405 123.62 129.408 126.002C125.367 127.813 124.623 129.815 127.813 130.387C130.046 130.768 138.446 124.859 140.147 121.713C141.317 119.616 141.317 118.759 140.36 117.615C138.978 116.185 137.914 115.899 136.851 116.852Z" fill="#0A183E"/>
<path d="M147.485 119.045C146.634 122.858 141.424 127.909 135.575 130.673C128.876 133.914 129.089 137.631 135.788 134.677C143.976 131.15 153.014 121.428 151.419 117.806C150.356 115.328 148.123 116.091 147.485 119.045Z" fill="#0A183E"/>
<path d="M96.2325 149.83C98.3592 150.974 99.9542 151.451 128.664 161.077C150.994 168.416 155.46 169.846 155.992 169.369C156.205 169.083 151.526 167.368 145.465 165.366C139.404 163.365 125.793 158.79 115.054 155.263C95.7009 148.782 92.1919 147.733 96.2325 149.83Z" fill="black"/>
<path d="M51.041 152.023C50.403 152.69 49.6587 153.929 49.5523 154.596C49.446 155.264 49.0207 156.407 48.489 157.075C47.3193 158.79 48.808 173.564 50.403 175.279C52.636 177.853 85.5993 190.339 123.879 203.206C140.467 208.734 141.105 208.925 149.399 208.543C163.116 207.876 163.223 206.351 149.612 206.256C138.341 206.065 136.958 205.875 124.411 201.776C98.572 193.484 58.378 177.662 55.0817 174.421C52.955 172.325 53.3803 170.609 55.9323 170.609C56.8893 170.609 69.1177 174.707 83.26 179.759C97.4023 184.715 110.481 189.29 112.183 189.862C115.479 190.91 119.413 192.34 124.943 194.437C131.323 196.82 137.809 198.25 142.275 198.25C148.549 198.25 157.693 193.865 164.392 187.575C170.666 181.665 187.573 163.937 186.935 163.937C186.616 163.937 180.342 170.037 172.793 177.376C158.119 191.959 153.334 194.914 142.807 196.057C138.234 196.534 135.682 195.867 121.753 191.101C94.106 181.57 55.9323 167.654 53.3803 166.225C48.808 163.556 48.3827 160.887 51.36 155.454C54.0183 150.784 53.8057 148.973 51.041 152.023Z" fill="#5F77E3"/>
<path d="M75.4969 154.31C79.5376 156.217 133.342 174.898 144.295 178.139C151.844 180.426 155.46 180.617 162.478 179.092C166.625 178.139 168.964 176.614 176.407 169.751C183.425 163.27 184.914 161.459 183.319 161.173C182.043 160.982 179.491 162.793 175.557 166.796C168.432 174.04 161.627 177.281 153.333 177.281C147.272 177.281 139.51 174.993 97.8269 160.601C74.9652 152.69 67.8409 150.784 75.4969 154.31Z" fill="black"/>
<path d="M110.057 172.42C109.1 175.184 106.654 176.613 101.763 177.376L97.2969 177.948L101.869 178.138C105.378 178.234 106.973 177.662 108.994 175.851C110.482 174.612 111.652 172.896 111.652 172.038C111.652 170.037 110.908 170.227 110.057 172.42Z" fill="black"/>
</svg>
