<?xml version="1.0" encoding="UTF-8"?>
<svg version="1.1" viewBox="0 0 1000 1000" width="1280" height="1280" xmlns="http://www.w3.org/2000/svg">
<path transform="translate(370,84)" d="m0 0h14l23 2 22 4 22 6 20 7 27 12 22 12 19 12 10 6 5-1 15-6 17-5 23-4 11-1h33l24 3 25 6 16 6 21 10 14 9 14 11 12 11 11 14 7 10 10 18 8 19 5 17 4 21 4 38 30 13 26 13 20 13 14 10 14 12 10 9 10 11 13 17 13 21 9 19 9 27 4 16v78l-7 28-10 30-9 20-9 17-14 21-9 12-12 14-13 13-14 11-15 10-15 8-14 5-8 1h-701l-13-1-15-5-14-7-14-10-10-9-8-7-11-12-15-20-12-19-10-18-12-29-8-25-6-24-2-10v-83l8-30 10-25 9-17 8-12 9-12 12-14 9-9 11-9 15-11 19-12 17-9 20-9 2-3 3-26 4-20 6-21 8-21 8-16 8-15 14-21 14-18 25-25 17-13 15-10 21-11 20-8 19-5 23-4z" fill="#395280"/>
<path transform="translate(370,84)" d="m0 0h14l23 2 22 4 22 6 20 7 27 12 22 12 19 12 10 6 5-1 9-4h2l1 119v48l-2 7-3 2-82 1-5 3-1 2v7l9 13 9 12v4l-4 4 2 7 6 11 2 3v3l3 1 2 5 2 1 3 6 5 7 3 6v2h2l8 16 9 15 5 16 1 7-5 10-12 2-1 1-12 2h-18l-9 3-9 2h-2v2l-18 3h-12l-10 3-2 1-7 1h-21l-4-1h-2l1 6h2l4 14 1 5h2l1 5-6-2-14-18-22-28-10-13-22-28-8-10-11-14-8-9-6-1-6 4-9 11-8 10-18 22-13 16-8 10-11 14-13 16-9 11-5 7h-2l-2 5-10 11-10 13-14 17-11 14-8 10-3 5v6l4 5 3 1 19 1 68 1 3 3 1 152h129v-4l492-1 8-1v-2h2v-2l9-4 11-4 12-9 14-12 12-11 5-5 6-7 5-7h2l4-10 2-1 2-4 3-3 4-6 3-5h2l1-5 2-1 2-6h2l2-8h2l3-15 3-7 4-12 3-8 2-9 4-20 2-23v-26l-2-24-3-8-3-12-6-13v-3h-2l-6-10-2-4h-3v-2h-7l-2-1-15-1-3 1h-25l-17-2h-11l-8-1h-11l-15-1-26 2-26 6-11 3-12 2-11 3-9-1-8 3-17 2h-6l-5-4-1-4 3-9 8-16 5-9 3-6h2l1-4 6-11 6-10 6-9 5-9h2l2-7 4-5 1-4h2l1-13-1-3v-5l8-10 3-5-1-7-3-3-89-1-5-4-1-3-1-62v-90l1-22 10 2 16 6 21 10 14 9 14 11 12 11 11 14 7 10 10 18 8 19 5 17 4 21 4 38 30 13 26 13 20 13 14 10 14 12 10 9 10 11 13 17 13 21 9 19 9 27 4 16v78l-7 28-10 30-9 20-9 17-14 21-9 12-12 14-13 13-14 11-15 10-15 8-14 5-8 1h-701l-13-1-15-5-14-7-14-10-10-9-8-7-11-12-15-20-12-19-10-18-12-29-8-25-6-24-2-10v-83l8-30 10-25 9-17 8-12 9-12 12-14 9-9 11-9 15-11 19-12 17-9 20-9 2-3 3-26 4-20 6-21 8-21 8-16 8-15 14-21 14-18 25-25 17-13 15-10 21-11 20-8 19-5 23-4z" fill="#598ABD"/>
<path transform="translate(620,128)" d="m0 0h33l24 3 14 3 1 1v112l1 62 3 5 2 1 89 1 5 6-1 7-9 12-1 1v7l1 2-2 12-5 10-3 4-1 2h-2l-2 5-5 9-7 10-6 11-4 8h-2l-2 6-12 22-3 7-1 9 4 2 1 1 14-1 9-1 9-3 8 1 15-4 17-3 9-3 16-3 3-1 30-2 12 1h10l14 1 10 1 12 1h26l2-1 15 1 9 2v2h3l7 10 1 4h2l5 12 4 10 3 12 1 2 2 24v26l-3 30-3 13-4 16-3 7-1-4 3-26-1-13-8-3v-2l-9-1-1-3-8-2-7-1h-8l-3 1-2 5-12 3h-10l-18 5-27 1-12 1-1-1h-5l-5 2-15-2-20 1-10 3-16 2-24 8-1 1-17 3-5 1-19 2-24 1-8 1-4 1h-15l-6 1-5-1-9 1h-10v-2l-6 3-15 1h-11l-3 1-7-1-10 2-20 1h-11l-1 1h-10l-3 1-14 1-5 1h-10l-8 1-18 2h-11l-8-4-4-3-4-1v-2h-4v-9l-7-11-13-16-10-13-14-18-12-16 3-1v-4h-2l-4-11-1-8h-2l-1-6 5-1 1 1h23l5-1 12-4h14l10-2h6v-2l11-3 9-3h19l11-2 4-2h9l3-9 1-5-4-11-3-10-9-14-6-12v-3h-2l-5-9-6-9v-3l-3-1-2-5-2-1-4-8-5-9-2-7 3-4h2l-3-7-13-17-3-5v-7l4-5 3-1 82-1 3-2 1-6v-167l10-4 17-4 17-3z" fill="#436696"/>
<path transform="translate(370,84)" d="m0 0h14l23 2 22 4 22 6 20 7 27 12 22 12 19 12 10 6 5-1 8-3-1 55-1 9-1 3h-2l-1 10-6 29-5 12-6 9-11 2-6 3h-9l-10 2-6 3-7-1-2-1-1 4-8-1-11 1-2-1v2h-5l-2 1-15-2-2-1v-2l-11-1-12-1h-7l-8-1-6 2-10 1-3 2h-13l-9-2h-14l-9 2-7 2-7 1-3 2-7 2-12 5-6 3-28 7-11 1-21-2-27 2-12 4-8 5-16 1-11 2-5 6-3 6h-2v2l-25 11-16 8-5 3h-3v2l-9 4-5 2v2h-3v3h-2l-1 2-9 6-6 2v2h-2v2l-6 5h-2v2h-2v2h-2v2l-5 5-3 2-1 2h-2l-2 7-6 5-2 3-7 12-2 1-6 12-2 1 2-6 10-18 13-18 9-10 7-8 12-11 17-13 17-11 22-12 20-9 2-3 3-26 4-20 6-21 8-21 8-16 8-15 14-21 14-18 25-25 17-13 15-10 21-11 20-8 19-5 23-4z" fill="#75B6EC"/>
<path transform="translate(620,128)" d="m0 0h33l24 3 14 3 1 1v112l1 62 3 5 2 1 89 1 5 6-1 7-9 12-14 18-1 2h-2l-2 4-10 13-13 16-10 13-13 16-11 14-12 15-11 14-13 16-9 12-11 13-10 13-5 5-7 1-6-4-9-10-6-8v-2h-2l-6-8-20-26-11-14-14-18-12-15-15-20-12-15-10-13-11-14-13-17-9-13v-7l4-5 3-1 82-1 3-2 1-6v-167l10-4 17-4 17-3z" fill="#09163C"/>
<path transform="translate(300,403)" d="m0 0 6 1 7 7 13 17 10 12 10 13 11 14 10 13 22 28 10 13 11 14 14 18 11 14 14 18 10 14 1 7-5 6-3 1-23 1-61 1-1 149-1 5h-128l-1-5-1-149-70-1-19-1-5-3-3-4v-6l7-10 26-32 11-14 12-14 3-5h2l2-5 10-11 10-13 13-16 11-14 9-11 13-16 9-11 8-10 9-11z" fill="#09163C"/>
<path transform="translate(692,135)" d="m0 0 10 2 16 6 21 10 14 9 14 11 12 11 11 14 7 10 10 18 8 19 5 17 4 21 4 38 30 13 26 13 20 13 14 10 14 12 10 9 10 11 13 17 13 21 9 19 9 27 4 16v78l-7 28-10 30-9 20-9 17-14 21-9 12-12 14-13 13-14 11-15 10-15 8-14 5-8 1h-701l-13-1-15-5-14-7-14-10-10-9-8-7-11-12-15-20-12-19-10-18-12-29-2-8 4 2 6 16 4 9 8 16 9 16 14 21 8 10 10 11 3 3v3l4 1 5 5 10 9 18 9 16 7 5 1 89 1 9 2v2h131v-4l492-1 8-1v-2h2v-2l9-4 11-4 12-9 14-12 12-11 5-5 6-7 5-7h2l4-10 2-1 2-4 3-3 4-6 3-5h2l1-5 2-1 2-6h2l2-8h2l3-15 3-7 4-12 3-8 2-9 4-20 2-23v-26l-2-24-3-8-3-12-6-13v-3h-2l-6-10-2-4h-3v-2h-7l-2-1-15-1-3 1h-25l-17-2h-11l-8-1h-11l-15-1-26 2-26 6-11 3-12 2-11 3-9-1-8 3-17 2h-6l-5-4-1-4 3-9 8-16 5-9 3-6h2l1-4 6-11 6-10 6-9 5-9h2l2-7 4-5 1-4h2l1-13-1-3v-5l8-10 3-5-1-7-3-3-89-1-5-4-1-3-1-62v-90z" fill="#5A8BBE"/>
<path transform="translate(219,497)" d="m0 0 2 1-10 13-10 12-1 2h-2l-2 5-10 11-10 13-14 17-11 14-8 10-3 5v6l4 5 3 1 19 1 68 1 3 3 1 152h-2v-2l-9-1-89-1-10-3-16-8-7-3-10-6-8-8-3-2v-2l-4-1v-3l-3-1-7-8-10-12-16-24-9-16-9-17-5-13-3-9-6-21-3-21-2-21v-7l4-21 7-10 7-8 9-4h63l20-1 7-2 16-6 8-2 6-1-3 3-12 3 7-1 10-2 5-2h6l4-2-2-2 5-2 9 1-1 2h-3 4 9l15-1 5 2 6-4z" fill="#395280"/>
<path transform="translate(563,140)" d="m0 0h2l1 119v48l-2 7-3 2-82 1-5 3-1 2v7l1 6-10-2v-2l-5-1v2l-8 3-9 1-1 1h-7l-14 5-3 2-17 3-14-1h-6l-7-4-6 1h-10l-16 2-11 1h-11l-7 2h-16l-14 3-17 3-18 5-3 1h-13l-8 2-24 2-28 7-9 1-13 5-5-1-4 2-8 1-4-1-16 4h-12l-4-1h-7l-8 3-8 1-10 5h-2v2l-6 5-2 3-8 8h-2l-1 4h-2l-1 4h-2l-2 4-3 5h-2l-1 4-4 1-1 6-4 6-5 13-2 1-7 28-3 34v35l3 28 3 16 1 8 4 11 1 8h-2l-7-23-6-27v-83l8-30 8-21 6-8 4-8h2l2-6 5-8 2-2 5-4 3-8 2-1 5-5 4-2v-2h2v-2h2v-2l6-5h2v-2h2v-2l6-3 10-7h2v-3h3v-2l11-6h3v-2l26-13 19-8 4-1v-2h2l2-6 6-7 13-2 14-1 8-5 12-4 31-2 17 2 11-1 12-3 19-5 10-5 7-3 7-2 1-1 12-2 5-2 6-1h14l9 2h13l3-2 21-3 3 1h9l21 3v2l13 1 5 1 2-1 4 1v-2h8l9-1 4 2 1-4 9 1 9-4 12-1 6-1 8-3 7-1 6-9 4-11 8-39 2-3 1-11 1-50z" fill="#66A1D5"/>
<path transform="translate(779,344)" d="m0 0 2 4 1 3-2 12-5 10-3 4-1 2h-2l-2 5-5 9-7 10-6 11-4 8h-2l-2 6-12 22-3 7-1 9 4 2 1 1 14-1 9-1 9-3 8 1 15-4 17-3 9-3 16-3 3-1 30-2 12 1h10l14 1 10 1 12 1h26l2-1 15 1 9 2v2h3l7 10 1 4h2l5 12 4 10 3 12 1 2 2 24v26l-1 11h-1l-2-17-3-15-5-8-9-4-11-1h-14l-5-2-10-1-15 1-9-1-10 2-4 3-13 1-8 1h-11l-8 1-5-1h-15l-21 2-8 2-11 4-8 1-5 4h-7l-13 4h-16l-3 1-23 2h-33l-6 2-6 1-4 2h-16l-5-2 1-8 7-14 2-5h2l1-4 5-8 8-16 9-15h2l1-4 5-7h-2l2-6h2l2-5 12-20 2-5-1-5 3-6 9-11 12-15 11-14 10-13 6-8h2l2-4 9-12z" fill="#4F77A9"/>
<path transform="translate(219,497)" d="m0 0 2 1-10 13-10 12-1 2h-2l-2 5-10 11-10 13-14 17-11 14-8 10-3 5-1 11-6 11-4 18-5 3-4 1-3 3h-14l-9 1-3-2-6 1-4 1h-10l-4 1-3-1-9 3v3h-2l-2 14 1 10 3 8v5h2l2 5 1 10-5-5-14-22-10-18-5-10-5-13-3-9-6-21-3-21-2-21v-7l4-21 7-10 7-8 9-4h63l20-1 7-2 16-6 8-2 6-1-3 3-12 3 7-1 10-2 5-2h6l4-2-2-2 5-2 9 1-1 2h-3 4 9l15-1 5 2 6-4z" fill="#446797"/>
<path transform="translate(945,567)" d="m0 0h13l4 2 7 2 1 2 6 1 2 1v2l7 1 2 2 1 13-2 17-2 15-3 10-2 5-2-2v-6l2-5v-12l-2-6-13-3v3l-3 1-3-1h-12l-6 1v2l4-1 1 2-5 1-9-1-5-1-8 2-5 1-9 2-7 2h-6v-2l-9 3-12 1-5-1-12 3h-18l-14-1h-16l-2 1-23 2-10 2-7 2-8 2-3 2-14 2h-12l-3 2h-8l-13 3-24 1-3 1h-13l-9 2-7-1-9 3h-18l-5 2-10 1h-22l-2 1-22 1-14-1h-26l-6 1-6-1-22 2-22 1-7-2v-10l2-3 2-16-3-7 1-4 1-1h5v2h5l6 5 6 2h11l11-1 9-1 5-1h11l4-1 14-1 8-1h5l5-1h15l19-2 8-1 3 1 7-1h12l9-1 3-2h3v2l10-1 11-1 7 1 7-1h11l6-2h13l16-1 12-1 7-1 12-2 10-2 10-4 15-5 16-2 10-3 23-1 12 2 5-2h5l1 1 36-2 9-2 12-3h10l12-3 2-4z" fill="#405D8C"/>
<path transform="translate(491,355)" d="m0 0 5 5 11 14 14 18 13 17 14 18 9 11-1 4-4-3 4 10 3 3 3 9 10 17-2 1 2 2 2-1 3 5 2 5 2 4h-2l3 7 3-2 4 7-1 2-2-2 1 4h3l2 1-1 6 6 16 2 10v6l-10-1v2l-23 4-4 1h-12l-29 5-7 3-14 2-3 2h-9l-10 3-1 1h-14l-3 3-5-1v12l-3 3-1-2-5-3-12-16-13-16-18-24 3-1v-4h-2l-4-11-1-8h-2l-1-6 5-1 1 1h23l5-1 12-4h14l10-2h6v-2l11-3 9-3h19l11-2 4-2h9l3-9 1-5-4-11-3-10-9-14-6-12v-3h-2l-5-9-6-9v-3l-3-1-2-5-2-1-4-8-5-9-2-7 3-4h2z" fill="#496FA0"/>
<path transform="translate(775,349)" d="m0 0 2 4-5 14-3 3-1 3h-2l-2 5-8 13-3 5-9 14-1 2h-2l-2 5-4 6h-2l-2 6-7 10-13 21-5 9-7 11-7 14-6 14 1 5 6 3 9-2 10-2v2h3l1-3 9 1 17-1h12l9-1 10-3 5-2 16-4 18-5 13-3 20-3h15l12-1 23-1 4-1 16 1 5 1h11l6 2 5 1 11 1 5 1 5 2 10 1 9 2 4 1 8 14 2 20 1 14-1 12h-1l-2-16-3-9-4-7-9-4-11-1h-14l-5-2-10-1-15 1-9-1-10 2-4 3-13 1-8 1h-11l-8 1-5-1h-15l-21 2-8 2-11 4-8 1-5 4h-7l-13 4h-16l-3 1-23 2h-33l-6 2-6 1-4 2h-16l-5-2 1-8 7-14 2-5h2l1-4 5-8 8-16 9-15h2l1-4 5-7h-2l2-6h2l2-5 12-20 2-5-1-5 3-6 9-11 12-15 11-14 10-13 6-8h2l2-4z" fill="#496FA0"/>
<path transform="translate(695,136)" d="m0 0 7 1 16 6 21 10 14 9 14 11 12 11 11 14 7 10 10 18 8 19 5 17 4 21 4 38 30 13 26 13 20 13 14 10 14 12 10 9 10 11 13 17 13 21 4 8v2l-3-1-5-9-4-8-2-2v-4h-2l-8-11-6-7v-2h-2l-4-5v-2h-2l-7-8-6-5-4-1-8-8v-2l-4-2-8-7-9-6-19-11-19-10-13-6-9-2-2-3-7-3-4-4-3-20-4-18-3-6-3-10-2-6h-2v-2l-4-2-3-1-6 3-7-1h-9l-6 1h-11l-11-1-16-3h-10l-10-2-6-12-4-7-3-15-1-2-4-30-2-37z" fill="#76B6EC"/>
<path transform="translate(491,355)" d="m0 0 5 5 6 8 1 4-1 4 4 11 7 11 6 10 6 9 4 7v3h2l6 10v2h2l7 12 4 6 9 18 4 9 2 6 4 8v13l-4 3-10 3-18 4-8 1-11 2-11 1-5 2-17 1h-3v2l-10 2-4 1-12 1-1 4-6 1-5-2-11 1-5-1 1 4h-3l2 7-1 4-4 1-12-15-8-11 3-1v-4h-2l-4-11-1-8h-2l-1-6 5-1 1 1h23l5-1 12-4h14l10-2h6v-2l11-3 9-3h19l11-2 4-2h9l3-9 1-5-4-11-3-10-9-14-6-12v-3h-2l-5-9-6-9v-3l-3-1-2-5-2-1-4-8-5-9-2-7 3-4h2z" fill="#4F77A9"/>
<path transform="translate(219,497)" d="m0 0 2 1-10 13-10 12-1 2h-2l-2 5-10 11h-5v2l-11 1h-12l-16 3-13 2-7 3-9 1-13 1-11 4-15 1-5-2h-11l-1 2-9-3h-3l-7 2-1 2-6-2-1 4-8 7-5 15-1 2v28h-2l-2-6-3-21-2-21v-7l4-21 7-10 7-8 9-4h63l20-1 7-2 16-6 8-2 6-1-3 3-12 3 7-1 10-2 5-2h6l4-2-2-2 5-2 9 1-1 2h-3 4 9l15-1 5 2 6-4z" fill="#4F77A9"/>
<path transform="translate(139,610)" d="m0 0h2l2 6v10l5 8 8 5h3v2l5-1 38 4 10 4 3 3-2 1 5 3v6l-4 2-3 4-12 4h-6l-5 2-7 2-1 1h-13v2h-10v2l-9 2-21 2-2-2-8-2-7 2h-11l-15 4-7 3-2-1-1 6-2 3v10l4 9 7 9v2l3 1 1 3 4 2 13 12 7 5v2l5 1 12 6h6l7 3 8 1 87 1 1 5-1-2-9-1-89-1-10-3-16-8-7-3-10-6-8-8-3-2v-2l-4-1v-3l-3-1-7-8-10-12-2-12-1-5h-2l-4-14-1-14 3-9h2v-3l10-4 5 1 4-1h10l4-2 4 1 7 1 5-1h13l5-4 5-1 3-8 2-11 6-11z" fill="#405D8C"/>
<path transform="translate(695,158)" d="m0 0h1l1 13 2 25 3 21 3 12 2 6 4 9 4 8 10 2h10l16 3 11 1h11l6-1h9l7 1 6-3 4 2 3 2v2h2l5 11 3 9 3 10 3 14 2 16 3 3 9 4 1 2 8 2 32 16 11 6-4 2-6-3-13-7-7-3-12-5-1-2-14-3-10-6-5-6-4-11-4-3-9 1-5-2-3 3h-6l-7-2h-16l-9-2h-39l-6-7-3-6-3-8-3-10-3-25-2-28-1-39z" fill="#67A2D6"/>
<path transform="translate(181,541)" d="m0 0h4l-2 4-8 10-13 16-11 14-7 3h-7v1h7l-3 1-1 3h-2l-2 2-3-3-4-1-1-3h2l-1-3 7-3h4l-3-2 3-2-7 2-6 4-9 2-8 3-11 1h-14l-9 2-13 1-9 1h-9l-6-1-9 2-1-2-6 8-1 15 2 11 1 8 1 5 3 9 4 8 1 7-3-3-5-10-5-13-3-9-3-11v-32l4-11 3-7 8-7 1-3 6 1 5-3h3l1-2 11 5 1-3h11l7 2 13-1 11-4 18-1 10-3 1-1 21-3 8-2h12l2 1 1-2v2l8-1z" fill="#496FA0"/>
<path transform="translate(500,823)" d="m0 0h41l14 3 10 5 8 8 5 10 2 8v14l-2 11-4 11-6 10-9 9-12 7-15 4-13 1h-39l-2-1 4-20 13-62 4-17zm19 18-3 8-11 54v2h24l10-4 8-7 6-10 3-12v-11l-3-10-8-7-12-3z" fill="#0A183E"/>
<path transform="translate(313,822)" d="m0 0h23l11 4 8 6 7 9 5 13v21l-4 16-6 11-9 10-9 7-9 4-17 3-13-1-10-4-9-6-6-8-5-11-1-5v-19l3-12 8-16 9-10 10-7 10-4zm6 19-11 4-7 7-6 13-2 9v16l5 10 5 4 5 2h11l9-4 5-5 4-5 5-12 1-5v-17l-3-8-4-5-5-3-4-1z" fill="#0A183E"/>
<path transform="translate(395,823)" d="m0 0h22l-1 7-9 41-2 10v15l4 6 6 3h10l8-4 6-9 6-26 9-42 1-1h22l-1 9-11 52-5 16-7 12-9 8-11 4-13 2-14-1-10-4-8-7-5-8-2-7v-16l8-39 4-19z" fill="#0A183E"/>
<path transform="translate(675,823)" d="m0 0h25l2 5 12 86v10h-21l-2-6-2-17-36 1-9 17-2 4-6 1h-19v-4l8-13 10-18 16-27 14-25 8-13zm6 21-11 23-8 14v3h25v-9l-3-27-1-4z" fill="#0A183E"/>
<path transform="translate(999,551)" d="m0 0h1v29l-7 28-10 30-9 20-9 17-14 21-9 12-12 14-13 13-14 11-15 10-15 8-14 5-8 1h-701l-13-1-15-5-14-7-14-10-10-9-8-7-11-12-15-20-12-19-10-18-12-29-2-8 4 2 6 16 4 9 8 16 9 16 14 21 8 10 10 11 3 3v3l4 1 5 5 10 9 18 9 16 7 5 1 89 1 9 2v2h131v-4l492-1 8-1v-2h2v-2l9-4 11-4 12-9 14-12 12-11 5-5 6-7 5-7h2l4-10 2-1 2-4 3-3 4-6 3-5h2l1-5 2-1 2-6h2l2-8h2l3-15 3-7 4-12 3-8 2-9 4-11 2-16z" fill="#5F90C2"/>
<path transform="translate(840,823)" d="m0 0h41l11 3 8 5 5 8 2 6v15l-5 12-6 7-7 5-13 4-7 1h-21l-2 13-4 19-2 3-22-1 2-11 14-66 5-22zm20 17-3 7-5 21 1 4h14l8-3 5-4 3-6v-10l-3-5-5-3-5-1z" fill="#0A183E"/>
<path transform="translate(749,823)" d="m0 0h41l9 2 10 6 5 7 2 6v16l-4 11-9 10-10 5-7 2-8 1h-21l-1 9-5 24-5 2h-17l-1-5 20-95zm20 17-2 3-6 28 1 1h15l8-3 6-7 1-2v-12l-4-5-8-3z" fill="#0A183E"/>
<path transform="translate(152,822)" d="m0 0h28l12 3v7l-3 14-4 1-5-3-10-2h-12l-10 3-9 6-6 8-4 11-1 5v10l4 11 7 6 8 3h15l11-3 5-2 1 3-5 17-3 3-20 3h-8l-14-3-8-4-9-8-5-8-3-8-1-6v-13l2-12 5-12 6-10 9-9 10-6 12-4z" fill="#0A183E"/>
<path transform="translate(213,823)" d="m0 0h22l-1 7-9 43-7 32h36l1 3-4 15-2 1h-57l-1-4 9-42 11-51z" fill="#0B1A40"/>
<path transform="translate(563,140)" d="m0 0h2l1 119v48l-2 7-3 2-84 1v-2l17-2 25-1 12-1h16l3-2v-12l4-15 2-11 1-7 1-3 2-22 1-35 1-63z" fill="#5380B2"/>
<path transform="translate(588,480)" d="m0 0 5 5 9 11 3 4v2h2l9 12 8 9 4 2 7-1 9-10 11-14 5-5v3l4-4v-2l4 1-2 6-7 12-1 3-3 3-5 10-5 5-5 7-8 3-7-1-8-5-2-5h-2l-10-14-6-13-7-12-1-9z" fill="#3F5C8B"/>
<path transform="translate(692,135)" d="m0 0h1l1 52 1 81 1 41 2 3 85 1 6 3 4 5v6h-1l-2-7-3-3-89-1-5-4-1-3-1-62v-90z" fill="#426191"/>
<path transform="translate(999,551)" d="m0 0h1v29l-7 28-10 30-9 20-9 17-14 21-9 12-12 14-13 13-14 11-15 10-11 6h-2v-2l7-2v-2l5-2v-2l13-9 15-13 12-11 5-5 6-7 5-7h2l4-10 2-1 2-4 3-3 4-6 3-5h2l1-5 2-1 2-6h2l2-8h2l3-15 3-7 4-12 3-8 2-9 4-11 2-16z" fill="#8FBFE8"/>
<path transform="translate(826,311)" d="m0 0h1l1 10 30 13 26 13 20 13 14 10 14 12 10 9 10 11 13 17 13 21 4 8v2l-3-1-5-9-4-8-2-2v-4h-2l-8-11-6-7v-2h-2l-4-5v-2h-2l-7-8-6-5-4-1-8-8v-2l-4-2-8-7-9-6-19-11-19-10-13-6-9-2-2-3-7-3-4-4z" fill="#97C7EF"/>
<path transform="translate(14,625)" d="m0 0 4 2 6 16 4 9 8 16 9 16 14 21 8 10 10 11 3 3v3l4 1 5 5 10 9 6 3 5 3v2l6 2 5 3 13 6 1 2-11-3-16-8-14-10-10-9-8-7-11-12-15-20-12-19-10-18-12-29z" fill="#89BFED"/>
<path transform="translate(110,753)" d="m0 0 5 2 18 8 5 1 89 1 9 2v2l2 1h-88l-13-1-7-4-13-6-7-4z" fill="#6D9BC9"/>
<path transform="translate(14,445)" d="m0 0 2 1-1 6-3 9-6 23-3 34v35l3 28 3 16 1 8 4 11 1 8h-2l-7-23-6-27v-83l8-30z" fill="#67A2D6"/>
<path transform="translate(862,760)" d="m0 0h7l-2 1v2l-8 2h-491v-1l489-1z" fill="#4B71A2"/>
<path transform="translate(915,370)" d="m0 0 7 5 7 4 15 14 12 14 11 15 12 20 3 6v2l-3-1-5-9-4-8-2-2v-4h-2l-8-11-6-7v-2h-2l-4-5v-2h-2l-7-8-6-5-4-1-8-8v-2l-4-2z" fill="#8EC2EE"/>
<path transform="translate(937,709)" d="m0 0v3l-6 9-14 14-14 11-15 10-11 6h-2v-2l7-2v-2l5-2v-2l13-9 15-13 12-11 5-5z" fill="#70A9DB"/>
<path transform="translate(980,640)" d="m0 0 1 3-13 27-12 19-13 18-7 8v-3l4-8 3-4h2l4-10 2-1 2-4 3-3 4-6 3-5h2l1-5 2-1 2-6h2l2-8h2l2-9h2z" fill="#C1D6EA"/>
<path transform="translate(104,749)" d="m0 0 11 3 4 3 5 2 4 2h6l7 3 8 1 87 1 1 5-1-2-9-1-89-1-10-3-16-8-7-3z" fill="#4A70A1"/>
<path transform="translate(14,445)" d="m0 0 2 1-1 6-3 9-6 23-5 30h-1v-23l8-30z" fill="#7FBBED"/>
<path transform="translate(914,729)" d="m0 0 2 1-12 11-15 11-11 4-12 5-3-1 7-2 1-3 6-2 14-7h2v-2l10-6h2l1-3 4-2z" fill="#446594"/>
<path transform="translate(996,515)" d="m0 0h2l2 13v23l-3 32-3 13h-1l1-9 3-30v-26z" fill="#5B8EC1"/>
<path transform="translate(60,706)" d="m0 0h2l1 2 5 3 7 9 3 5 15 15 11 8-3 1-9-7-8-7v-2l-4-1v-3l-3-1-7-8-10-12z" fill="#5E92C6"/>
<path transform="translate(43,396)" d="m0 0 2 1-2 7-6 5-2 3-7 12-2 1-6 12-2 1 2-6 10-18z" fill="#88BFEE"/>
<path transform="translate(605,502)" d="m0 0h2l9 12 8 9 4 2 7-1 5-4-2 4-3 7h-5l-3-4-6-1-3-5-13-18z" fill="#395280"/>
<path transform="translate(104,749)" d="m0 0 11 3 4 3 5 2 4 2h6l7 3 8 1v1h-16l-12-5-9-5-7-3z" fill="#405D8C"/>
<path transform="translate(862,760)" d="m0 0h7l-2 1v2l-8 2h-67v-1l65-1z" fill="#4A6FA0"/>
<path transform="translate(932,717)" d="m0 0v3l-15 15-14 11-4 2 1-3 6-5h2l2-4 9-7z" fill="#9BC8EE"/>
<path transform="translate(995,523)" d="m0 0h2l1 8v26l-1 11h-1v-21l-2-22z" fill="#5078AA"/>
<path transform="translate(4,589)" d="m0 0 1 2h2l2 9 4 13 2 6v5h-2l-7-23-2-8z" fill="#96C6ED"/>
<path transform="translate(986,617)" d="m0 0 2 2-1 8-5 13h-2v2h-2l3-12 4-9z" fill="#89B9E4"/>
<path transform="translate(994,482)" d="m0 0 2 4 4 16v16l-2-4-4-26z" fill="#86BEED"/>
<path transform="translate(922,527)" d="m0 0 5 1h8l-3 2-12 1-6 3-6-1 2-5h9z" fill="#4A70A1"/>
<path transform="translate(890,355)" d="m0 0 8 4 9 6 6 5-4 1-4-3v-2l-5-1-6-3-2-4-2-1z" fill="#67A2D6"/>
<path transform="translate(0,545)" d="m0 0h1l3 38-2 1-2-10z" fill="#7AB8EC"/>
<path transform="translate(980,640)" d="m0 0 1 3-13 27-5 8-1-4h2l1-5 1-3 2-1 2-6h2l2-8h2l2-9h2z" fill="#FAFAFA"/>
<path transform="translate(897,745)" d="m0 0 3 1-1 3-13 8-9 5h-2v-2l7-2v-2l5-2v-2z" fill="#81B6E3"/>
<path transform="translate(889,747)" d="m0 0m-3 1h3v4l-11 4-12 5-3-1 7-2 1-3 6-2 8-4z" fill="#405E8D"/>
<path transform="translate(999,551)" d="m0 0h1v29l-2 4-1-1v-10z" fill="#78B5E8"/>
<path transform="translate(9,597)" d="m0 0h2l3 13 4 14-1 3-3-3-1-8-5-15z" fill="#5E93C6"/>
<path transform="translate(132,584)" d="m0 0 2 1 3 4h7l-3 1-1 3h-2l-2 2-3-3-4-1-1-3h2l-1-3z" fill="#4A70A1"/>
<path transform="translate(884,753)" d="m0 0 3 1-5 2v2l-4 2h-3v2h-8l2-1v-2l9-4z" fill="#527EB0"/>
<path transform="translate(23,641)" d="m0 0h3l6 14 2 9-3-3-5-10z" fill="#527EB0"/>
<path transform="translate(932,711)" d="m0 0 3 1h-2l-2 5-8 7-6 5v-3l3-1 2-4 5-5z" fill="#436494"/>
<path transform="translate(977,642)" d="m0 0 1 4-2 5h-2l-1 6-1 2h-2l-1 6-3 1 2-6 7-13z" fill="#6EACE1"/>
<path transform="translate(60,706)" d="m0 0h2l1 2 5 3 7 9-1 2-4-5-5-3-5-6z" fill="#4F7AAC"/>
<path transform="translate(915,370)" d="m0 0 8 6 6 7 2 2h-4l-8-8v-2l-4-2z" fill="#6BA8DC"/>
<path transform="translate(110,753)" d="m0 0 5 2 17 8v2l-7-2-8-4-7-4z" fill="#5F94C7"/>
<path transform="translate(917,728)" d="m0 0h2l-2 4-8 6-7 7-3-1 10-9z" fill="#5C8FC3"/>
<path transform="translate(943,697)" d="m0 0 3 1-7 9-4 4-1-4 5-5z" fill="#456797"/>
<path transform="translate(209,764)" d="m0 0h27l1 5-1-2-27-2z" fill="#476C9C"/>
<path transform="translate(932,717)" d="m0 0v3l-15 15-2-1 7-8z" fill="#CBE2F5"/>
<path transform="translate(972,434)" d="m0 0 3 1 7 13v2l-3-1-5-9z" fill="#84B7E3"/>
<path transform="translate(458,586)" d="m0 0h3 3v8l-6-1-1-5z" fill="#4A70A1"/>
<path transform="translate(20,439)" d="m0 0v3l-5 13-1-3 2-12z" fill="#71AADB"/>
<path transform="translate(983,630)" d="m0 0h2l-1 5-2 5h-2v2h-2l2-7z" fill="#9BC7ED"/>
<path transform="translate(424,553)" d="m0 0 5 1 5 7-2 1-4-2z" fill="#4B71A2"/>
<path transform="translate(963,671)" d="m0 0 1 3h-2v6l-4 6-2-4 4-6z" fill="#98C5EB"/>
<path transform="translate(133,765)" d="m0 0 5 1 3 1 14 1v1h-18z" fill="#6CA6D9"/>
<path transform="translate(104,749)" d="m0 0 11 3 5 5-5-1-10-5z" fill="#4B73A4"/>
<path transform="translate(916,533)" d="m0 0h7l1 3-12 1z" fill="#4A70A1"/>
<path transform="translate(150,504)" d="m0 0 4 1-5 3-12 2 3-3 8-2z" fill="#5078AA"/>
<path transform="translate(235,478)" d="m0 0v3l-9 11-2 1 1-5h3v-3l5-5z" fill="#426292"/>
<path transform="translate(120,756)" d="m0 0 4 1 12 6-3 1-12-5z" fill="#446696"/>
<path transform="translate(154,577)" d="m0 0h2l-2 4-5 5-4-2h2v-2l5-3h2z" fill="#406090"/>
<path transform="translate(14,445)" d="m0 0 2 1-1 6-3 5-2 1 3-10z" fill="#86BFED"/>
<path transform="translate(947,695)" d="m0 0 1 3-8 10-2 1 2-5 3-4h2z" fill="#6BA7DC"/>
<path transform="translate(862,760)" d="m0 0h7l-2 1v2l-3 1h-7l3-3z" fill="#466899"/>
<path transform="translate(34,664)" d="m0 0 3 3v2h2l3 6-1 4-7-13z" fill="#537EB0"/>
<path transform="translate(870,762)" d="m0 0h5l-2 2-10 4h-2v-2z" fill="#89BBE6"/>
<path transform="translate(99,744)" d="m0 0 7 2 5 5-5-1-7-5z" fill="#436494"/>
<path transform="translate(914,729)" d="m0 0 2 1-10 9-3-1h2l1-3 4-2z" fill="#416190"/>
<path transform="translate(4,589)" d="m0 0 1 2h2l2 9-3-1-2-6z" fill="#7FBBED"/>
</svg>
