<svg width="25" height="25" viewBox="0 0 25 25" fill="none" xmlns="http://www.w3.org/2000/svg">
<g clip-path="url(#clip0_2138_5206)">
<path fill-rule="evenodd" clip-rule="evenodd" d="M12.1829 25V19.8318C11.5931 19.7692 11.0547 19.5652 10.6635 19.256C10.2722 18.9468 10.0534 18.5524 10.046 18.143C10.0534 17.7335 10.2722 17.3392 10.6635 17.03C11.0547 16.7208 11.5931 16.5167 12.1829 16.4542V14.1833C11.5931 14.1207 11.0547 13.9167 10.6635 13.6075C10.2722 13.2983 10.0534 12.9039 10.046 12.4945C10.0534 12.085 10.2722 11.6907 10.6635 11.3815C11.0547 11.0722 11.5931 10.8682 12.1829 10.8057V8.33296C11.5931 8.2704 11.0547 8.06638 10.6635 7.75718C10.2722 7.44797 10.0534 7.0536 10.046 6.64416C10.0535 6.23473 10.2723 5.84039 10.6635 5.5312C11.0548 5.22202 11.5931 5.01802 12.1829 4.95546V0C9.97656 0.0513062 7.91588 0.669404 6.13923 1.71771V10.7741C6.75808 10.8195 7.33059 11.0204 7.74667 11.338C8.16274 11.6555 8.39302 12.0674 8.39321 12.4945C8.38632 12.9183 8.15305 13.3256 7.7376 13.6392C7.32216 13.9529 6.75343 14.151 6.13923 14.1961V16.4285C6.74568 16.4832 7.30249 16.6873 7.70602 17.0027C8.10955 17.3181 8.33231 17.7233 8.33284 18.143C8.3255 18.5593 8.09967 18.9599 7.69676 19.2712C7.29386 19.5825 6.74088 19.7838 6.13923 19.838V23.2823C7.91588 24.3306 9.97656 24.9487 12.1829 25ZM19.0795 4.92397V1.84863C22.6371 4.04743 24.9999 7.98625 24.9999 12.4998C24.9999 17.0134 22.6371 20.9523 19.0795 23.1511V14.195C19.692 14.1486 20.2585 13.95 20.6722 13.6367C21.0859 13.3234 21.3181 12.9171 21.3251 12.4944C21.3251 12.0683 21.0959 11.6572 20.6815 11.3398C20.2672 11.0224 19.6968 10.8211 19.0795 10.7743V8.34467C19.692 8.29829 20.2585 8.09971 20.6722 7.78641C21.0859 7.47312 21.3181 7.06676 21.3251 6.64403C21.3251 6.21795 21.0959 5.80685 20.6815 5.48948C20.2672 5.1721 19.6968 4.97075 19.0795 4.92397ZM5.50519 19.8406V22.8849C2.17972 20.6427 0 16.8359 0 12.4999C0 8.16394 2.17972 4.35716 5.50519 2.11496V10.8034C4.91117 10.8631 4.36763 11.0661 3.97224 11.3761C3.57686 11.686 3.35556 12.0826 3.34811 12.4945C3.35556 12.9063 3.57686 13.3029 3.97224 13.6128C4.36763 13.9228 4.91117 14.1259 5.50519 14.1855V16.4453C4.89859 16.496 4.33942 16.6961 3.93158 17.0083C3.52374 17.3205 3.29496 17.7237 3.28774 18.143C3.29496 18.5622 3.52374 18.9654 3.93158 19.2776C4.33942 19.5899 4.89859 19.7899 5.50519 19.8406ZM12.817 4.92298V0C14.8531 0.0473297 16.7662 0.575481 18.4456 1.48108V4.95234C17.8498 5.01077 17.3042 5.2134 16.9071 5.52364C16.5101 5.83389 16.2877 6.2313 16.2802 6.64416C16.2877 7.05703 16.51 7.45447 16.9071 7.76474C17.3042 8.075 17.8498 8.27765 18.4456 8.33609V10.8025C17.8498 10.861 17.3042 11.0636 16.9071 11.3739C16.51 11.6842 16.2877 12.0816 16.2802 12.4945C16.2877 12.9073 16.51 13.3048 16.9071 13.6151C17.3042 13.9253 17.8498 14.128 18.4456 14.1864V23.5189C16.7662 24.4245 14.8531 24.9527 12.817 25V19.8467C13.4353 19.8048 14.0093 19.6077 14.429 19.2933C14.8487 18.9789 15.0844 18.5693 15.0911 18.143C15.0907 17.7137 14.8577 17.2998 14.4375 16.9817C14.0172 16.6636 13.4396 16.4641 12.817 16.4218V14.1982C13.4353 14.1563 14.0093 13.9592 14.429 13.6448C14.8487 13.3304 15.0844 12.9208 15.0911 12.4945C15.0907 12.0652 14.8577 11.6513 14.4375 11.3332C14.0172 11.0151 13.4396 10.8156 12.817 10.7733V8.34792C13.4353 8.30596 14.0093 8.10889 14.429 7.79448C14.8487 7.48008 15.0844 7.07046 15.0911 6.64416C15.0907 6.21484 14.8577 5.80095 14.4375 5.48288C14.0172 5.16481 13.4396 4.96526 12.817 4.92298Z" fill="url(#paint0_linear_2138_5206)"/>
</g>
<defs>
<linearGradient id="paint0_linear_2138_5206" x1="12.5" y1="0" x2="12.5" y2="25" gradientUnits="userSpaceOnUse">
<stop stop-color="#355ADC"/>
<stop offset="0.285" stop-color="#2D4CBA"/>
<stop offset="0.645" stop-color="#233B90"/>
<stop offset="1" stop-color="#1C3076"/>
</linearGradient>
<clipPath id="clip0_2138_5206">
<rect width="25" height="25" fill="white"/>
</clipPath>
</defs>
</svg>
